<?xml version="1.0" encoding="UTF-8" standalone="no"?>
<svg
   width="210mm"
   height="297mm"
   viewBox="0 0 210 297"
   version="1.1"
   id="svg5"
   sodipodi:docname="Peep.svg"
   inkscape:version="1.1 (c68e22c387, 2021-05-23)"
   inkscape:export-xdpi="96"
   inkscape:export-ydpi="96"
   xmlns:inkscape="http://www.inkscape.org/namespaces/inkscape"
   xmlns:sodipodi="http://sodipodi.sourceforge.net/DTD/sodipodi-0.dtd"
   xmlns:xlink="http://www.w3.org/1999/xlink"
   xmlns="http://www.w3.org/2000/svg"
   xmlns:svg="http://www.w3.org/2000/svg">
  <sodipodi:namedview
     id="namedview7"
     pagecolor="#ffffff"
     bordercolor="#666666"
     borderopacity="1.0"
     inkscape:pageshadow="2"
     inkscape:pageopacity="0.0"
     inkscape:pagecheckerboard="0"
     inkscape:document-units="mm"
     showgrid="false"
     inkscape:zoom="2"
     inkscape:cx="396.25"
     inkscape:cy="428.75"
     inkscape:window-width="1920"
     inkscape:window-height="1001"
     inkscape:window-x="-9"
     inkscape:window-y="-9"
     inkscape:window-maximized="1"
     inkscape:current-layer="layer4"
     inkscape:snap-grids="true"
     showguides="false" />
<defs>

  <linearGradient id="linearGradient67308" x1="62.442" x2="177.27" y1="143.4" y2="52.388" gradientUnits="userSpaceOnUse">
   <stop stop-color="#0ff" offset="0"/>
   <stop stop-color="#d0a1ff" stop-opacity="0" offset="1"/>
  </linearGradient>
 
  <linearGradient id="linearGradient45629-8-4" x1="123.66" x2="114.77" y1="91.869" y2="114.29" gradientUnits="userSpaceOnUse">
   <stop offset="0"/>
   <stop stop-opacity="0" offset="1"/>
  </linearGradient>
  <filter id="filter4971" x="-.40363" y="-.42182" width="1.8073" height="1.8436" color-interpolation-filters="sRGB">
   <feGaussianBlur stdDeviation="1.8249526"/>
  </filter>
  <filter id="filter4971-8" x="-.40363" y="-.42182" width="1.8073" height="1.8436" color-interpolation-filters="sRGB">
   <feGaussianBlur stdDeviation="1.8249526"/>
  </filter>
  <filter id="filter4971-0" x="-.40363" y="-.42182" width="1.8073" height="1.8436" color-interpolation-filters="sRGB">
   <feGaussianBlur stdDeviation="1.8249526"/>
  </filter>
  <filter id="filter4971-6" x="-.40363" y="-.42182" width="1.8073" height="1.8436" color-interpolation-filters="sRGB">
   <feGaussianBlur stdDeviation="1.8249526"/>
  </filter>
  <filter id="filter4971-8-0" x="-.40363" y="-.42182" width="1.8073" height="1.8436" color-interpolation-filters="sRGB">
   <feGaussianBlur stdDeviation="1.8249526"/>
  </filter>
  <filter id="filter4971-0-6" x="-.40363" y="-.42182" width="1.8073" height="1.8436" color-interpolation-filters="sRGB">
   <feGaussianBlur stdDeviation="1.8249526"/>
  </filter>
 
  <linearGradient id="linearGradient45671">
   <stop offset="0"/>
   <stop stop-opacity="0" offset="1"/>
  </linearGradient>
  <linearGradient id="linearGradient18942" x1="45.457" x2="70.626" y1="154.64" y2="101" gradientUnits="userSpaceOnUse" xlink:href="#linearGradient45671"/>
  <linearGradient id="linearGradient18996" x1="124.87" x2="151.82" y1="102.15" y2="96.365" gradientTransform="translate(3.2e-6)" gradientUnits="userSpaceOnUse" xlink:href="#linearGradient45671"/>
  <filter id="filter21702" x="-.010905" y="-.010518" width="1.0218" height="1.021" color-interpolation-filters="sRGB">
   <feGaussianBlur stdDeviation="0.15876734"/>
  </filter>
  <filter id="filter22301" x="-.020664" y="-.016559" width="1.0413" height="1.0331" color-interpolation-filters="sRGB">
   <feGaussianBlur stdDeviation="0.16541507"/>
  </filter>
  <filter id="filter23958" x="-.024325" y="-.079322" width="1.0486" height="1.1586" color-interpolation-filters="sRGB">
   <feGaussianBlur stdDeviation="0.75675472"/>
  </filter>
  <filter id="filter21702-9" x="-.014368" y="-.017114" width="1.0287" height="1.0342" color-interpolation-filters="sRGB">
   <feGaussianBlur stdDeviation="0.15584947"/>
  </filter>
  <filter id="filter22301-2" x="-.0061683" y="-.005954" width="1.0123" height="1.0119" color-interpolation-filters="sRGB">
   <feGaussianBlur stdDeviation="0.067466026"/>
  </filter>
  <filter id="filter33290" x="-.02348" y="-.035063" width="1.047" height="1.0701" color-interpolation-filters="sRGB">
   <feGaussianBlur stdDeviation="0.69827714"/>
  </filter>
 
  <linearGradient id="linearGradient45091">
   <stop offset="0"/>
   <stop stop-opacity="0" offset=".53219"/>
   <stop stop-opacity=".40486" offset="1"/>
  </linearGradient>
  <linearGradient id="linearGradient45093" x1="85.011" x2="127.47" y1="230.01" y2="230.82" gradientUnits="userSpaceOnUse" xlink:href="#linearGradient45091"/>
  <filter id="filter48371" x="-.14245" y="-.13022" width="1.2858" height="1.248" color-interpolation-filters="sRGB">
   <feGaussianBlur stdDeviation="0.44435843"/>
  </filter>
  <linearGradient id="linearGradient82654" x1="89.924" x2="127.99" y1="163.65" y2="163.65" gradientUnits="userSpaceOnUse" xlink:href="#linearGradient45091"/>
  <filter id="filter83355" x="-.032262" y="-.065081" width="1.0645" height="1.1302" color-interpolation-filters="sRGB">
   <feGaussianBlur stdDeviation="0.23823084"/>
  </filter>
 </defs>
<g id="Background" display="none">
 <g>
  <rect width="212.72" height="298.98" fill="#fff"/>
  <rect width="212.72" height="298.98" fill="url(#linearGradient67308)"/>
 </g>

</g><g id="Skin">
 <g style="mix-blend-mode:normal">
  <path transform="scale(.26458)" d="m396.2 193.95c-8.6417 0-17.283 0.31408-22.133 0.94141-22.011 2.8471-40.957 8.5314-60.318 18.096-21.237 10.491-39.465 24.596-54.678 42.309-20.543 23.919-33.031 51.961-37.584 84.393-1.0111 7.204-0.85442 31.258 0.25196 38.672l0.87109 5.8379-1.043 0.72851c-4.8569 3.4008-6.548 6.3027-6.2305 10.691 0.42059 5.815 4.5315 9.8832 10.742 10.631 1.7919 0.21574 3.3654 0.50009 3.4961 0.63086 0.1307 0.13066 0.56997 2.6073 0.97657 5.5039 2.3414 16.68 8.1134 29.342 19.68 43.17 17.489 20.908 47.675 38.337 82.732 47.771 17.727 4.7705 44.368 8.5588 60.213 8.5625 3.9137 9.5e-4 5.0602 0.15452 5.2715 0.70508 11.565-0.14831 14.907-1.4937 23.406-1.6732 0-0.69407 1.9142-0.56612 10.344-1.7077 34.744-4.7049 64.643-16.843 89.057-33.94 6.4548-4.5204 9.4537-6.8588 15.438-12.627 10.384-10.008 16.851-19.209 21.61-30.757l2.6275-4.8838 3.1814-0.68466c5.6539-1.2168 7.5878-2.7903 8.5254-7.7158 0.79718-4.1878-1.4637-9.4919-5.773-10.783-1.0988-0.3292-2.068-0.32037-2.3118-0.61442-0.27659-0.33324 0.567-3.5211 1.4537-6.6796 1.8201-6.4833 3.561-14.765 4.6602-22.166 1.1022-7.4209 1.2567-31.486 0.24805-38.672-4.5527-32.432-17.041-60.473-37.584-84.393-4.9084-5.715-14.73-15.473-19.865-19.738-26.69-22.165-59.051-35.999-95.131-40.666-4.8497-0.62733-13.493-0.94141-22.135-0.94141zm-73.223 576.28c0.27209 1.0693-5e-3 1.519-1.8887 3.0625-2.6426 2.1654-2.6075 4.4541-2.2515 8.9394 0.28876 3.6355 0.27059 4.3299 3.2551 6.2226 2.9846 1.8928 4.6699 0.71567 7.2247-0.26005 5.2796-2.0163 6.3979-3.1289 5.2363-8.3196-0.30844-1.3784-0.47845-2.1861-0.90588-2.7964-1.3098-1.87-3.68-4.7034-5.7428-4.7034-2.6921-0.0802-3.1249 0.12911-4.9273-2.1452zm169.89-1.3078c-2.0628 0-4.1227 1.2616-5.4325 3.1316-0.42743 0.61024-1.3044 2.3285-1.6128 3.7069-1.1616 5.1907 0.75349 7.9769 6.033 9.9932 2.5548 0.97568 3.4268 0.51673 6.4115-1.3761 2.9845-1.8928 3.248-1.9755 3.5368-5.611 0.35622-4.4852 0.12016-5.4625-2.5224-7.6279-2.7989-1.214-4.2088-0.81674-6.4136-2.2166z" fill="#623a18"/>
  <circle cx="207.48" cy="171.56" r=".017048" fill="#333" stroke="#000" stroke-width=".26458"/>
  <circle cx="207.48" cy="171.56" r=".017048" fill="#333" stroke="#000" stroke-width=".26458"/>
 </g>

</g><g id="Head">
 <g>
  <path d="m104.32 135.44c-2.7616 0-7.6008-0.50136-11.336-1.1745-13.605-2.4516-24.641-8.9681-29.528-17.437-1.329-2.3028-2.0879-4.5222-2.5248-7.3836-0.14563-0.95359-0.33435-1.778-0.41938-1.8321-0.085-0.0541-0.36452-0.0992-0.62107-0.10025-1.1305-5e-3 -2.239-0.69567-2.7449-1.7109-0.75445-1.514-0.20525-3.0303 1.4381-3.9705 0.60604-0.34674 0.86326-0.41745 1.5093-0.4149 0.85858 3e-3 1.9454 0.39621 2.3462 0.84804 0.23 0.25926 0.22836 0.26292-0.0873 0.19439-0.17697-0.0384-0.66927-0.19776-1.094-0.3541-1.7337-0.6382-3.5822 0.18601-3.9961 1.7818-0.48396 1.8657 1.0858 3.4576 3.2883 3.3347l0.57917-0.0323 0.0843 1.3594c0.49494 7.9809 6.8355 15.61 17.162 20.649 5.6601 2.7623 12.37 4.6166 19.563 5.4066 2.5766 0.28299 8.9404 0.39558 11.656 0.20623 13.264-0.92475 24.949-5.4822 32.324-12.607 2.7776-2.6835 4.5416-5.2986 5.7737-8.5594l0.43011-1.1383 0.48888 0.0782c0.70274 0.11238 1.5531-0.143 2.1352-0.64121 0.64962-0.55605 0.844-1.0383 0.77141-1.9137-0.14185-1.7104-1.9766-2.6074-3.835-1.8749-0.78576 0.30971-0.99259 0.32987-0.78207 0.0762 0.20975-0.25274 1.011-0.61853 1.5885-0.72513 0.35335-0.0652 0.69716-0.0125 1.2692 0.19462 1.4365 0.52013 2.043 1.2638 2.043 2.505 0 0.85527-0.23263 1.3916-0.83171 1.9176-0.57778 0.5073-0.92986 0.65303-1.8605 0.77006l-0.7004 0.0881-0.48383 1.1941c-0.61838 1.5261-1.818 3.6345-2.9089 5.1125-1.218 1.6503-4.1659 4.5424-6.1064 5.9908-6.7488 5.0376-15.421 8.2896-25.502 9.5631-0.76502 0.0966-1.4082 0.2164-2.092 0.31549" fill-opacity=".99763"/>
 </g>

</g><g id="Eye Colour">
 <ellipse cx="89.796" cy="95.736" rx="26.327" ry="26.27" fill="#fff"/>
 <ellipse cx="129.96" cy="106.81" rx="15.043" ry="15.119" fill="#fff"/>
 <path d="m129.05 117.99c-0.17697-0.0314-0.66927-0.11871-1.094-0.19395-1.0061-0.17825-2.741-0.91303-3.8081-1.6128-1.0916-0.71587-2.6407-2.34-3.3122-3.4725-3.7682-6.3552-0.43118-14.456 6.7341-16.347 1.2384-0.32691 4.1568-0.33478 5.3257-0.0144 2.5188 0.69048 4.4426 1.9369 6.0039 3.89 2.8072 3.5115 3.134 8.4351 0.82474 12.426-0.6125 1.0586-1.9694 2.5334-3.022 3.2845-1.0163 0.72522-2.693 1.5073-3.8295 1.7864-0.86007 0.21115-3.1914 0.36594-3.8228 0.25382zm-41.186-3.4055c-2.3446-0.28748-4.1852-0.80572-6.1345-1.7273-4.966-2.3477-8.7428-6.8419-10.128-12.052-0.50649-1.9052-0.64845-3.0014-0.64845-5.0071 0-1.0264 0.0735-2.3006 0.16335-2.8315 1.0671-6.306 4.7277-11.274 10.428-14.151 1.195-0.60322 3.6229-1.3803 5.097-1.6314 1.6908-0.28799 4.6029-0.29038 6.2727-5e-3 7.2353 1.2359 13.22 6.6404 15.074 13.612 0.50649 1.9052 0.64845 3.0014 0.64845 5.0071 0 5.164-1.8572 9.6502-5.518 13.329-2.8382 2.8523-6.3008 4.641-10.228 5.2836-1.4576 0.2385-3.8276 0.32019-5.0261 0.17323z" fill="#2ca05a"/>
 <path d="m128.73 116.32c-0.49552-0.10938-1.3932-0.43496-1.9949-0.7235-1.5418-0.73934-3.0804-2.2759-3.8412-3.8359-0.781-1.6015-0.96222-2.463-0.89269-4.244 0.0936-2.3977 0.81202-4.0526 2.4858-5.7264 1.6746-1.6746 3.3285-2.3922 5.7292-2.4859 1.7459-0.0682 2.9202 0.18902 4.4283 0.9698 1.3876 0.71841 2.9717 2.3527 3.6486 3.7642 2.2926 4.7806 0.0115 10.288-4.9726 12.006-1.3758 0.47421-3.1961 0.58354-4.5906 0.27571zm-41.572-4.4446c-4.7422-0.68336-9.0365-3.8237-11.132-8.1405-2.0624-4.2485-2.0624-8.7873 0-13.036 4.4889-9.2469 17.015-11.11 24.05-3.5769 5.5812 5.9763 5.2684 15.316-0.69957 20.889-3.271 3.0548-7.8298 4.4965-12.218 3.8641z" fill-opacity=".99763" opacity=".59939"/>

</g><g id="Eye Style">
 <path d="m129.01 117.92c-0.17697-0.0314-0.66927-0.11871-1.094-0.19395-1.0061-0.17825-2.741-0.91303-3.8081-1.6128-1.0916-0.71587-2.6407-2.34-3.3122-3.4725-3.7682-6.3552-0.43118-14.456 6.7341-16.347 1.2384-0.32691 4.1568-0.33478 5.3257-0.0144 2.5188 0.69048 4.4426 1.9369 6.0039 3.89 2.8072 3.5115 3.134 8.4351 0.82474 12.426-0.6125 1.0586-1.9694 2.5334-3.022 3.2845-1.0163 0.72522-2.693 1.5073-3.8295 1.7864-0.86007 0.21115-3.1914 0.36594-3.8228 0.25382zm-41.186-3.4055c-2.3446-0.28748-4.1852-0.80572-6.1345-1.7273-4.966-2.3477-8.7428-6.8419-10.128-12.052-0.50649-1.9052-0.64845-3.0013-0.64845-5.0071 0-1.0264 0.0735-2.3006 0.16335-2.8315 1.0671-6.306 4.7277-11.274 10.428-14.151 1.195-0.60322 3.6229-1.3803 5.097-1.6314 1.6908-0.28799 4.6029-0.29038 6.2727-5e-3 7.2353 1.2359 13.22 6.6404 15.074 13.612 0.50649 1.9052 0.64845 3.0013 0.64845 5.0071 0 5.164-1.8572 9.6502-5.518 13.329-2.8382 2.8523-6.3008 4.641-10.228 5.2836-1.4576 0.2385-3.8276 0.32019-5.0261 0.17323z" fill="url(#linearGradient45629-8-4)"/>
 <g fill-opacity=".30364" fill-rule="evenodd">
  <ellipse cx="86.996" cy="89.101" rx="5.4256" ry="5.1917" fill="#5b00ff" filter="url(#filter4971)" style="mix-blend-mode:normal"/>
  <ellipse transform="matrix(.5496 0 0 .54054 40.509 45.555)" cx="98.689" cy="99.251" rx="5.4256" ry="5.1917" fill="#b054f3" filter="url(#filter4971-8)" style="mix-blend-mode:normal"/>
  <ellipse transform="matrix(1.7931 0 0 1.8919 -69.145 -71.588)" cx="84.471" cy="90.177" rx="5.4256" ry="5.1917" fill="#f100ff" filter="url(#filter4971-0)" style="mix-blend-mode:normal"/>
 </g>
 <g fill="#fff" fill-opacity=".99763">
  <path d="m80.013 117.62c2.8293-5.1249 18.614-22.027 12.79-14.535l-8.4956 10.929z"/>
  <path d="m83.016 118.68c3.1961-5.8245 21.027-25.033 14.448-16.52l-9.5971 12.421z"/>
  <ellipse cx="100.42" cy="98.081" rx=".79513" ry=".70158" fill-rule="evenodd"/>
  <path transform="matrix(.26458 0 0 .26458 1.7198 -.66146)" d="m326.68 360.62-20.163-13.466-10.449 21.88-2.0434-24.16-23.621 5.4722 17.615-16.661-19.006-15.056 24.009 3.384-0.0788-24.247 12.324 20.881 18.908-15.179-8.6418 22.654 23.656 5.3185-23.1 7.3684z" fill-rule="evenodd"/>
 </g>
 <g fill-opacity=".30364" fill-rule="evenodd">
  <ellipse transform="matrix(.58947 0 0 .58947 50.294 41.013)" cx="132.74" cy="105.1" rx="5.4256" ry="5.1917" fill="#5b00ff" filter="url(#filter4971-6)" style="mix-blend-mode:normal"/>
  <ellipse transform="matrix(.32398 0 0 .31863 101.14 77.299)" cx="98.689" cy="99.251" rx="5.4256" ry="5.1917" fill="#b054f3" filter="url(#filter4971-8-0)" style="mix-blend-mode:normal"/>
  <ellipse transform="matrix(1.057 0 0 1.1152 36.498 8.2463)" cx="84.471" cy="90.177" rx="5.4256" ry="5.1917" fill="#f100ff" filter="url(#filter4971-0-6)" style="mix-blend-mode:normal"/>
 </g>
 <g fill="#fff" fill-opacity=".99763">
  <path d="m124.42 119.78c1.6678-3.021 10.972-12.984 7.5394-8.5681l-5.008 6.4422z"/>
  <path d="m126.19 120.41c1.884-3.4334 12.395-14.757 8.5169-9.7378l-5.6572 7.3216z"/>
  <ellipse cx="136.45" cy="108.26" rx=".46871" ry=".41356" fill-rule="evenodd"/>
  <path transform="matrix(.15596 0 0 .15596 78.271 50.056)" d="m326.68 360.62-20.163-13.466-10.449 21.88-2.0434-24.16-23.621 5.4722 17.615-16.661-19.006-15.056 24.009 3.384-0.0788-24.247 12.324 20.881 18.908-15.179-8.6418 22.654 23.656 5.3185-23.1 7.3684z" fill-rule="evenodd"/>
 </g>

</g><g id="Eye Outline">
 <g fill-opacity=".99763">
  <path d="m128.38 122.38c-0.10618-0.0257-0.62743-0.11705-1.1583-0.20298-2.2203-0.35935-4.6187-1.4106-6.5736-2.8812-3.9178-2.9474-6.1682-7.4745-6.1682-12.409 0-0.93371-0.0453-1.4434-0.12143-1.3667-0.0668 0.0673-0.50447 0.89936-0.97265 1.8491-1.4378 2.9168-3.4041 5.5958-5.6275 7.6672-10.35 9.6423-26.145 9.6423-36.494 0-2.2749-2.1194-4.243-4.8225-5.6908-7.8161-1.0485-2.168-1.6806-4.0092-2.1206-6.1768-1.1581-5.7057-0.45472-11.573 2.0008-16.689 1.4721-3.0668 2.9533-5.1727 5.2629-7.4823 10.414-10.414 27.176-10.414 37.59 0 2.3096 2.3096 3.7908 4.4155 5.2629 7.4823 1.9529 4.0685 2.834 8.7728 2.4743 13.211-0.0846 1.0441-0.18815 2.0287-0.2301 2.188-0.15078 0.57247 0.20715 0.27701 0.71236-0.58803 0.77775-1.3317 1.5569-2.3085 2.7711-3.4742 2.9217-2.8049 6.5946-4.2714 10.698-4.2714 8.5897 0 15.506 6.9379 15.503 15.55-3e-3 6.26-3.7982 11.885-9.6588 14.314-1.7167 0.71149-3.3174 1.035-5.3992 1.0913-1.0264 0.0277-1.9531 0.0294-2.0593 4e-3zm5.3034-1.2665c2.3913-0.63206 4.5354-1.8436 6.3562-3.5916 3.0902-2.9667 4.5573-6.3765 4.5573-10.592 0-2.6621-0.43113-4.4634-1.6186-6.7626-2.0521-3.9732-5.7649-6.7594-10.203-7.6568-1.5055-0.3044-5.0577-0.2054-6.4591 0.18002-5.22 1.4356-9.1355 5.3639-10.581 10.616-0.25709 0.93381-0.28828 1.3401-0.28319 3.6879 5e-3 2.4972 0.0246 2.7005 0.35744 3.7968 0.40251 1.3256 1.2762 3.2163 1.9809 4.2868 0.68977 1.0478 2.7334 3.1176 3.8128 3.8615 1.6993 1.1712 3.4931 1.9482 5.4261 2.3503 1.7424 0.36246 4.9372 0.27795 6.6548-0.17603zm-41.368 0.1598c4.7611-0.51748 9.6127-2.5504 13.412-5.62 1.1393-0.9204 3.3028-3.1267 4.1369-4.2188 1.0789-1.4126 2.0397-2.993 2.8716-4.7233 1.8558-3.8602 2.635-7.6347 2.4776-12.002-0.20035-5.5609-2.0504-10.572-5.5615-15.065-0.9084-1.1623-3.2134-3.4437-4.3751-4.3304-7.8562-5.9962-18.287-7.0781-26.982-2.7987-2.7108 1.3341-4.5241 2.6137-6.7224 4.7438-4.8177 4.6683-7.5239 10.75-7.7653 17.45-0.15736 4.3675 0.62183 8.1421 2.4776 12.002 1.3314 2.7695 2.6333 4.6402 4.7523 6.829 2.1655 2.2368 4.2716 3.785 7.0411 5.1761 2.5024 1.2569 5.7682 2.2447 8.4074 2.5429 1.4693 0.16601 4.3671 0.17305 5.829 0.0142z"/>
  <g stroke="#000" stroke-width=".26458px">
   <path d="m64.624 87.312-9.6573-3.0427 0.92604-3.3073 9.2604 5.0932z"/>
   <path d="m66.15 83.14-8.8664-4.8896 1.5608-3.0593 8.0724 6.8214z"/>
   <path d="m68.498 79.368-7.4912-6.8119 2.2276-2.6141 6.2711 8.507z"/>
   <path d="m144.73 103.63 6.7694-1.8488-0.55224-2.3169-6.5498 3.2805z"/>
   <path d="m143.79 100.7 6.2714-3.15-0.99849-2.1621-5.7736 4.5101z"/>
   <path d="m142.26 98.024 5.3709-4.5192-1.4722-1.8715-4.5716 5.7267z"/>
  </g>
 </g>

</g><g id="Hair">
 <g fill="#956746" stroke="#000">
  <path d="m69.236 123.63s-8.7787-8.7579-8.102-16.44c-3.8647 1.0197-4.0806-2.3632-4.1212-3.0672 0.25092-1.3716 1.8873-2.467 1.8873-2.467s2.0606-20.96 8.1891-28.864c4.3551-5.6162 8.1348-7.4917 18.417-10.743 1.173-0.2284 2.4479-0.39111 3.8014-0.49707 15.831-1.2394 42.411 5.2856 42.411 5.2856 4.8482 3.4141 8.6154 8.1268 11.084 13.628 3.9396 8.7799 4.8234 27.406 4.8234 27.406s3.7874-0.86084 3.9464 2.3386c0.12591 2.5332-3.1573 2.7718-3.1573 2.7718-1.7917 4.2649-6.2938 9.6097-9.8212 12.431-0.25385 1.5231 0.35751 3.0798 1.6034-0.42585 0.1914-0.53854 1.5496 2.1148 1.7635 1.2382 0.46012-1.8853 1.2619-3.0667 1.3797-3.7548 0.14496-0.8464 1.6307 3.4479 1.6537 2.5155 0.0472-1.9123 1.432-5.4791 2.0451-5.872 0.71832-0.46029 1.205 4.8705 1.335 4.0408 0.44318-2.828 3.1794-8.5634 3.7118-9.3261 0.33948-0.48638 2.4002 0.72802 1.9827 0.15843-1.0726-1.4634-0.18313-4.0926 0.0947-5.4289 1.68-8.0811 0.64103-20.873-0.42554-26.483-0.21411-1.1262-1.212-0.71319-1.4096-1.7326-1.7517-9.0656-9.0261-17.915-16.472-23.376-3.2965-2.2028-7.6429-5.9127-13.268-7.5952-7.9885-2.3897-21-4.9572-30.814-3.6342-6.8725 0.92646-20.046 5.3849-26.479 8.9203-1.5808 0.86871 7.6843-2.1714 6.0967-0.94613-7.0584 5.4475-16.122 21.429-18.564 29.687-0.32154 1.0873 3.8389-7.2227 3.5922-6.0749-1.8586 8.6504-2.8048 35.023-1.1338 36.883l1.3531-3.5583c-0.0033 5.9869 0.9982 6.9735 2.7435 10.842l1.3073-3.8407c0.86771 3.6125 1.3982 3.9686 1.7338 5.4033 0 0 0.96894-1.6907 1.7993-2.2207 0.30682-0.19585 1.3709 2.6964 1.7795 4.0745 0.19645 0.66255 1.4598-2.3288 1.6298-1.954 2.2613 4.9828 1.6967 0.50549 1.6042 0.67719z" stroke-linecap="round" stroke-linejoin="round" stroke-width=".565"/>
  <path d="m84.921 50.719 0.58465 11.328c9.8416 12.497 25.397 23.54 30.402 27.844-0.59087-1.7977-0.48721-2.3386-0.73081-3.5079 2.436 2.5335 5.6029 4.8477 7.3082 7.6005l0.14616-3.5079c4.3061 6.2977 21.95 11.511 24.994 19.367 0 0 2.8402-5.5332 4.0926-8.6967s1.9012-5.9705 2.5794-12.275c0.12299-1.1434 2.42 4.0091 2.5791 3.0125 0.16439-1.03-1.8154-8.2097-2.0891-9.446-1.9986-9.0293-10.029-23.564-20.574-30.183s-28.17-8.0961-36.375-6.8302c-8.2048 1.266-12.918 5.2961-12.918 5.2961z" stroke-width=".52917"/>
 </g>
 <path d="m121.44 49.915-6.6792-19.001c-0.51083 4.7016 1.1708 11.23-1.5325 14.105l8.2118 4.8965" fill-opacity="0"/>
 <path d="m69.236 123.63s-8.7787-8.7579-8.102-16.44c-3.8647 1.0197-4.0806-2.3632-4.1212-3.0672 0.25092-1.3716 1.8873-2.467 1.8873-2.467s2.0606-20.96 8.1891-28.864c4.3551-5.6162 8.1348-7.4917 18.417-10.743l-0.58465-11.328 9.9227-5.2766c-7.311 0.48798-23.116 5.6772-29.549 9.2126-1.5808 0.86871 7.6843-2.1714 6.0967-0.94613-7.0584 5.4475-16.122 21.429-18.564 29.687-0.32154 1.0873 3.8389-7.2227 3.5922-6.0749-1.8586 8.6504-2.8048 35.023-1.1338 36.883l1.3531-3.5583c-0.0033 5.9869 0.9982 6.9735 2.7435 10.842l1.3073-3.8407c0.86771 3.6125 1.3982 3.9686 1.7338 5.4033 0 0 0.96894-1.6907 1.7993-2.2207 0.30682-0.19585 1.3709 2.6964 1.7795 4.0745 0.19645 0.66255 1.4598-2.3288 1.6298-1.954 2.2613 4.9828 1.6967 0.50549 1.6042 0.67719z" fill="url(#linearGradient18942)"/>
 <path d="m147.62 109.84s3.7874-2.834 3.9464 0.36541c0.12591 2.5332-3.1573 2.7718-3.1573 2.7718-1.7917 4.2649-6.2938 9.6097-9.8212 12.431-0.25385 1.5231 0.35751 3.0798 1.6034-0.42585 0.1914-0.53854 1.5496 2.1148 1.7635 1.2382 0.46012-1.8853 1.2619-3.0667 1.3797-3.7549 0.14496-0.8464 1.6307 3.4479 1.6537 2.5155 0.0472-1.9123 1.432-5.4791 2.0451-5.872 0.71832-0.46029 1.205 4.8705 1.335 4.0408 0.44318-2.828 3.1794-8.5634 3.7118-9.3261 0.33948-0.48638 2.4002 0.72802 1.9827 0.15843-1.0726-1.4634-0.18313-4.0926 0.0947-5.4289 1.68-8.0811 1.5712-12.605 0.50464-18.215-2.1197 10.818-4.4746 15.189-7.0422 19.501z" fill="url(#linearGradient18996)"/>
 <path d="m97.977 65.75-2.0118-3.3421 18.938 23.244 0.27406 0.73082c-5.7669-6.849-11.226-10.476-17.2-20.632z" color="#000000" filter="url(#filter22301)" opacity=".11401" style="-inkscape-stroke:none;mix-blend-mode:normal"/>
 <path transform="rotate(189.53 90.203 65.861)" d="m23.308 54.503-2.0118-3.3421s6.8639 9.395 11.929 15.827 14.321 11.368 14.321 11.368c-11.116-3.7503-18.264-13.696-24.238-23.852z" color="#000000" filter="url(#filter22301-2)" opacity=".081433" style="-inkscape-stroke:none"/>
 <path d="m91.192 54.629c-8.787 1.5842 3.2856 0.83452 4.8704 1.4261 0.81987 0.30606 1.6289 0.65607 2.3867 1.0938 11.881 6.8619 17.037 21.581 23.869 33.549 0.12664 0.22182 0.74551-0.21814 0.625-0.44336-3.0536-4.0772-15.263-37.79-31.751-35.625z" color="#000000" filter="url(#filter21702)" opacity=".11401" style="-inkscape-stroke:none;mix-blend-mode:normal"/>
 <path d="m81.84 48.236c-0.52411 0.94554-9.4484 3.0195-9.8096 4.2804-0.35628 1.2439-14.294 15.835-13.247 17.095 1.1351 1.3657 14.352-10.761 17.699-10.738 3.0129 0.02156 3.2519 3.9149 3.5354 5.0967 3.9762-1.4295 3.759-2.1105 5.7064-1.8879 1.6185 1.5381 3.8979 4.0201 3.8979 4.0201-3.2682-2.7881-5.0116-18.238 12.776-18.545 1.0767-0.01857 22.895 0.46585 35.937 7.7101 3.3845 1.8799-9.6082-9.3001-27.628-9.8263-10.884-1.1324-27.239 1.3236-28.868 2.7941z" filter="url(#filter23958)" opacity=".10749" stroke="#000" stroke-width=".26458px" style="mix-blend-mode:normal"/>
 <path transform="matrix(-.88527 0 0 1.2977 105.27 -62.924)" d="m28.749 93.288s7.4233 1.9801 10.229 3.8142c7.3634 4.8143 15.923 18.099 15.802 17.874-3.0536-4.0772-9.5422-23.853-26.031-21.688z" color="#000000" filter="url(#filter21702-9)" opacity=".10749" style="-inkscape-stroke:none;mix-blend-mode:normal"/>
 <path d="m85.505 62.046c9.8416 12.497 23.557 17.101 30.402 27.844l-0.73081-3.5079c2.436 2.5335 5.6029 4.8477 7.3082 7.6005l0.14616-3.5079c4.3061 6.2977 21.95 11.511 24.994 19.367 0 0 2.8402-5.5332 4.0926-8.6967s1.9012-5.9705 2.5794-12.275c0.12299-1.1434 2.42 4.0091 2.5791 3.0125 0.16439-1.03-3.8717-14.078-4.4662-12.96-11.3 21.253-24.292 12.093-34.836 5.4734s-18.972-10.99-25.006-17.269c0 0-4.0973-4.097-7.0619-5.0804z" fill="#050400" filter="url(#filter33290)" opacity=".10424" style="mix-blend-mode:normal"/>

</g><g id="Expression">
 <g fill="none" stroke="#000" stroke-linecap="round" stroke-linejoin="round">
  <path d="m113.97 123.38a3.0941 4.3202 0 0 1-2.4264 1.7962 3.0941 4.3202 0 0 1-2.4938-1.6063" stroke-width=".63971" style="paint-order:normal"/>
  <path d="m118.91 123.19a3.1048 4.2978 0 0 1-2.4348 1.7869 3.1048 4.2978 0 0 1-2.5024-1.5979" stroke-width=".6" style="paint-order:normal"/>
 </g>

</g><g id="Pose">
 <path d="m93.014 270.84c-0.54243-0.12847-0.59439-0.18685-0.36789-0.41335 0.12673-0.12674 0.76593-0.23222 2.0332-0.33555 2.6743-0.21805 5.5425-0.63947 5.7475-0.84448 0.1473-0.14731 0.1291-2.4673-0.1156-14.735-0.24474-12.27-0.26577-14.951-0.13364-17.039 0.0862-1.3631 1.6025-24.471 3.3695-51.351s3.2127-49.077 3.2127-49.326c0-0.72652-0.37063-0.58428-1.1962 0.45908-0.49341 0.62361-1.373 2.1812-2.78 4.923-1.132 2.2059-2.2412 4.4162-2.4649 4.9117-0.22369 0.49551-0.77741 1.6828-1.2305 2.6384-0.45308 0.95564-0.82359 1.7818-0.82337 1.8359 2.6e-4 0.0541-0.41414 1.0097-0.92082 2.1236-1.3716 3.0153-2.8954 6.5962-3.5181 8.2675-0.30332 0.81406-0.90034 2.3489-1.3267 3.4107-0.42638 1.0618-1.0488 2.7414-1.3831 3.7324s-0.77 2.2444-0.96817 2.7851c-1.1018 3.0067-3.1481 10.673-3.6517 13.68-0.1177 0.70291-0.23613 1.3138-0.26317 1.3576-0.36925 0.59745-1.0219 8.4559-0.9302 11.2 0.0644 1.9269 0.48989 5.2043 0.73516 5.6626 0.0754 0.14092 0.32871 0.24687 0.68665 0.2872 0.34347 0.0387 0.79776 0.22259 1.1518 0.4662 1.3645 0.93881 1.3914 3.2037 0.0489 4.1208-1.1378 0.77718-1.8256 0.78616-2.9574 0.0386-0.60042-0.39657-0.86081-0.87404-0.94965-1.7414-0.10397-1.015 0.14287-1.7141 0.82694-2.3422 0.51825-0.47584 0.57489-0.58053 0.49154-0.90852-0.29442-1.1586-0.60633-3.7241-0.67099-5.5189-0.0552-1.5315-3e-3 -2.9333 0.20393-5.47 0.24067-2.9515 0.56135-5.5383 0.718-5.7917 0.0261-0.0422 0.14015-0.62416 0.25348-1.2932 0.88038-5.1974 3.5621-14.301 6.029-20.467 0.46929-1.173 1.0625-2.7337 1.3181-3.4683 0.25569-0.73457 0.60008-1.6024 0.76533-1.9285 0.16524-0.32609 0.67505-1.4875 1.1329-2.5809 0.45786-1.0934 1.1631-2.712 1.5672-3.5968 0.40408-0.88485 0.90234-2.0286 1.1072-2.5416 0.20491-0.513 0.63566-1.4566 0.95723-2.0969s0.70311-1.4658 0.84788-1.8344c0.25778-0.65647 3.8645-7.7478 5.1349-10.096 0.35365-0.65367 0.643-1.2763 0.643-1.3836 0-0.1579-0.19434-0.19509-1.0194-0.19509l0.0179-0.70739c1.7755 0.15344 3.5326 0.18527 5.2569 0.0774 0.7158-0.0499 1.427-0.11039 2.1332-0.18129l0.17271 0.50403c-0.0694 0.0694 0.13953 0.58361 0.51729 1.2733 1.1729 2.1414 4.7405 9.1304 5.0058 9.8069 0.14464 0.36865 0.52607 1.1941 0.84764 1.8344s0.75232 1.5839 0.95723 2.0969c0.2049 0.513 0.70316 1.6567 1.1072 2.5416 0.40407 0.88485 1.1093 2.5034 1.5672 3.5968 0.45787 1.0934 0.96768 2.2548 1.1329 2.5809 0.16525 0.32609 0.50964 1.1939 0.76533 1.9285 0.25568 0.73457 0.84885 2.2953 1.3181 3.4683 2.4669 6.1659 5.1486 15.27 6.029 20.467 0.11333 0.66908 0.2274 1.251 0.25348 1.2932 0.15665 0.25348 0.47733 2.8402 0.718 5.7917 0.20683 2.5366 0.25909 3.9384 0.20392 5.47-0.0647 1.7948-0.37656 4.3604-0.67098 5.5189-0.0834 0.328-0.0267 0.43269 0.49154 0.90852 0.68407 0.62808 0.93091 1.3272 0.82694 2.3422-0.0888 0.86735-0.34923 1.3448-0.94965 1.7414-1.1318 0.74753-1.8196 0.73855-2.9574-0.0386-1.3425-0.91703-1.3156-3.1819 0.0489-4.1208 0.35407-0.24361 0.80836-0.42748 1.1518-0.46619 0.35794-0.0403 0.61123-0.14629 0.68665-0.28721 0.24527-0.45831 0.67076-3.7357 0.73515-5.6626 0.0917-2.7443-0.56095-10.603-0.93019-11.2-0.027-0.0438-0.14547-0.65467-0.26318-1.3576-0.50358-3.0073-2.5499-10.673-3.6517-13.68-0.19817-0.5408-0.63385-1.7941-0.96817-2.7851s-0.95671-2.6706-1.3831-3.7324-1.0234-2.5966-1.3267-3.4107c-0.62271-1.6713-2.1465-5.2522-3.5181-8.2675-0.50668-1.1139-0.92123-2.0685-0.92123-2.1213 0-0.3198-5.5926-11.66-6.6644-13.514-0.47766-0.82604-0.75906-1.0666-0.87979-0.75193-0.0383 0.0998 1.8168 22.672 4.1223 50.161 2.3056 27.489 4.2281 50.993 4.2722 52.232 0.0442 1.2388-0.0476 8.4421-0.20384 16.007-0.24097 11.666-0.25726 13.782-0.10729 13.932 0.20719 0.20719 3.0601 0.62722 5.7495 0.84649 1.2956 0.10563 1.9053 0.20758 2.0386 0.34087 0.16775 0.16775 0.16579 0.20381-0.0166 0.3059-0.39281 0.21983-2.0158 0.2664-3.5839 0.10282-1.5433-0.16098-3.9884-0.80709-4.5043-1.1903-0.22548-0.16747-0.51904-2.4652-2.8574-22.365-0.76965-6.55-0.80826-6.95-0.9067-9.3955-0.0385-0.95563-0.12428-2.5773-0.19068-3.6037s-0.50038-7.9476-0.96439-15.38c-0.46401-7.4327-0.87393-13.651-0.91093-13.818-0.0575-0.25953-0.11765-0.28973-0.41528-0.20864-0.59549 0.16222-5.4911 0.22162-6.0288 0.0731-0.3713-0.10251-0.52774-0.0969-0.63704 0.0228-0.0982 0.10758-0.32037 4.7008-0.68939 14.252-0.80443 20.821-0.78052 20.421-1.6756 27.993-2.5342 21.44-2.7044 22.777-2.9203 22.937-0.11578 0.086-0.75511 0.33787-1.4207 0.55962-1.8384 0.61246-5.0555 0.93672-6.3207 0.63709zm-5.654-62.721c0.38879-0.21457 0.52158-0.39052 0.66877-0.88617 0.50456-1.6991-1.0089-2.9884-2.5146-2.1422-0.53979 0.30339-0.76296 0.7491-0.76296 1.5238 0 0.8699 0.21942 1.2451 0.93739 1.6029 0.70567 0.35166 0.87406 0.34175 1.6714-0.0983zm44.138-0.89653c0.52194-0.28796 0.74544-0.7404 0.74544-1.509 0-0.77469-0.22317-1.2204-0.76296-1.5238-0.6298-0.35397-1.193-0.35261-1.8283 4e-3 -0.40584 0.22809-0.538 0.40159-0.68629 0.90094-0.15976 0.53798-0.1592 0.70078 4e-3 1.2514 0.16904 0.56921 0.25518 0.66642 0.85572 0.96569 0.71322 0.35541 0.88183 0.34637 1.672-0.0896z" fill-opacity=".99763"/>

</g><g id="Clothes">
 <g>
  <path d="m96.561 191.56 0.68665 77.846s1.7834 0.3591 2.3388 0.34809c0.55542-0.011 3.1314-0.24974 3.1314-0.24974l2.7237-27.026 3.8179-37.92 7.5374 64.304s2.8155 0.26078 3.3468 0.25888c0.53133-2e-3 2.7867-0.27028 2.7867-0.27028l-1.938-77.627s-2.7333 0.32189-11.776 0.43419c-10.731 0.13326-12.655-0.0987-12.655-0.0987z" fill="#007fff" stroke="#000" stroke-width=".565"/>
  <path d="m96.561 191.56 0.68665 77.846s1.6555 0.13986 2.2109 0.12885c0.55543-0.011 3.1318-0.23149 3.1318-0.23149 1.4844-12.703 2.2453-23.481 3.7297-35.248l2.9394-29.497 7.5374 64.304s2.8155 0.26076 3.3468 0.25886c0.53133-2e-3 2.7867-0.27026 2.7867-0.27026l-1.938-77.627s-2.7333 0.32189-11.776 0.43419c-10.731 0.13326-12.655-0.0987-12.655-0.0987z" fill="url(#linearGradient45093)"/>
  <g fill="none" stroke="#000">
   <g stroke-width=".26458px">
    <path d="m103.91 192.75s0.22989 5.2894-7.3734 3.1969"/>
    <path d="m113.62 192.56s-0.22989 5.2894 7.3734 3.1969"/>
    <path d="m108.15 191.64c0.01 9.218-0.11002 8.4107 0.98477 8.8178l-0.10335-8.6816"/>
   </g>
   <path d="m109.13 200.46 0.12916 4.1083" stroke-width=".265"/>
   <path d="m96.609 192.57 11.343 0.10336h0.12919" stroke-width=".26458px"/>
   <path d="m109.11 192.6 11.834-0.41341" stroke-width=".26458px"/>
  </g>
  <path d="m108.73 204.03-3.3748 0.69482 2.7388 0.64597-0.0387 7.8677 1.2038-8.6794 0.93432 6.186-0.3036-5.6586 3.1652-0.93017z" filter="url(#filter48371)" opacity=".2899" stroke="#000" stroke-width=".26458px"/>
  <path d="m96.006 191.49 0.99069-27.591c1.1592-17.777 0.0558 1.8562 0 0-0.0181-0.60255-6.7329-1.0115-6.71-1.5449 0.54492-12.671 11.667-23.884 15.137-26.73l6.2665 2e-3c4.8798 3.2354 10.844 10.42 15.94 26.273 0.15223 0.47352-6.8831 2.539-6.8904 2.005-0.21561-15.716-0.0593-2.1109-0.0411-0.0835l0.25002 27.836c-8.8964-0.15313-18.081 0.22014-24.943-0.16633z" fill="#a02c2c" fill-opacity=".99763" stroke="#000" stroke-width=".724"/>
  <path d="m96.006 191.49 0.99069-27.591c1.1592-17.777 0.0558 1.8562 0 0-0.0181-0.60255-6.7329-1.0115-6.71-1.5449 0.54492-12.671 11.667-23.884 15.137-26.73l6.2665 2e-3c4.8798 3.2354 10.844 10.42 15.94 26.273 0.15223 0.47352-6.8831 2.539-6.8904 2.005-0.21561-15.716-0.0593-2.1109-0.0411-0.0835l0.25002 27.836c-8.8964-0.15313-18.081 0.22014-24.943-0.16633z" fill="url(#linearGradient82654)" opacity=".38838"/>
  <path d="m115.36 138.71-17.722 5.5177 7.4943-8.7853 6.5588 0.1847z" fill-opacity=".99763" filter="url(#filter83355)" opacity=".3792"/>
 </g>

</g></svg>
