<?xml version="1.0" encoding="UTF-8" standalone="no"?>
<svg
   width="210mm"
   height="297mm"
   viewBox="0 0 210 297"
   version="1.1"
   id="svg5"
   sodipodi:docname="Peep.svg"
   inkscape:version="1.1 (c68e22c387, 2021-05-23)"
   inkscape:export-xdpi="96"
   inkscape:export-ydpi="96"
   xmlns:inkscape="http://www.inkscape.org/namespaces/inkscape"
   xmlns:sodipodi="http://sodipodi.sourceforge.net/DTD/sodipodi-0.dtd"
   xmlns:xlink="http://www.w3.org/1999/xlink"
   xmlns="http://www.w3.org/2000/svg"
   xmlns:svg="http://www.w3.org/2000/svg">
  <sodipodi:namedview
     id="namedview7"
     pagecolor="#ffffff"
     bordercolor="#666666"
     borderopacity="1.0"
     inkscape:pageshadow="2"
     inkscape:pageopacity="0.0"
     inkscape:pagecheckerboard="0"
     inkscape:document-units="mm"
     showgrid="false"
     inkscape:zoom="2"
     inkscape:cx="396.25"
     inkscape:cy="428.75"
     inkscape:window-width="1920"
     inkscape:window-height="1001"
     inkscape:window-x="-9"
     inkscape:window-y="-9"
     inkscape:window-maximized="1"
     inkscape:current-layer="layer4"
     inkscape:snap-grids="true"
     showguides="false" />
<defs>

  <linearGradient id="linearGradient67308" x1="62.442" x2="177.27" y1="143.4" y2="52.388" gradientUnits="userSpaceOnUse">
   <stop stop-color="#baf9c0" offset="0"/>
   <stop stop-color="#d0a1ff" stop-opacity="0" offset="1"/>
  </linearGradient>
 
  <linearGradient id="linearGradient14752" x1="70.956" x2="141.26" y1="93.496" y2="93.496" gradientTransform="translate(-1e-6)" gradientUnits="userSpaceOnUse">
   <stop stop-color="#f00" offset="0"/>
   <stop stop-color="#f60" offset=".12728"/>
   <stop stop-color="#ff0" offset=".28535"/>
   <stop stop-color="#0f0" offset=".45847"/>
   <stop stop-color="#0ff" offset=".77649"/>
   <stop stop-color="#000080" offset=".87811"/>
   <stop stop-color="#800080" offset=".96644"/>
   <stop stop-color="#f0f" offset="1"/>
  </linearGradient>
 
  <filter id="filter64221" x="-.043927" y="-.076405" width="1.0879" height="1.1528" color-interpolation-filters="sRGB">
   <feGaussianBlur stdDeviation="1.1489545"/>
  </filter>
  <linearGradient id="linearGradient45629-8-4" x1="123.66" x2="114.77" y1="91.869" y2="114.29" gradientUnits="userSpaceOnUse">
   <stop offset="0"/>
   <stop stop-opacity="0" offset="1"/>
  </linearGradient>
 
  <filter id="filter7744-7-4" x="-.005966" y="-.0015003" width="1.0119" height="1.003" color-interpolation-filters="sRGB">
   <feGaussianBlur stdDeviation="0.0057284191"/>
  </filter>
  <filter id="filter7744-7-0" x="-.013761" y="-.0044589" width="1.0275" height="1.0089" color-interpolation-filters="sRGB">
   <feGaussianBlur stdDeviation="0.01594037"/>
  </filter>
  <filter id="filter7744-7-4-9" x="-.0056329" y="-.0010333" width="1.0113" height="1.0021" color-interpolation-filters="sRGB">
   <feGaussianBlur stdDeviation="0.0057284191"/>
  </filter>
  <filter id="filter1317" x="-.010595" y="-.02" width="1.0168" height="1.0423" color-interpolation-filters="sRGB">
   <feGaussianBlur stdDeviation="0.086061471"/>
  </filter>
  <linearGradient id="linearGradient3198" x1="52.914" x2="158.63" y1="87.424" y2="87.424" gradientUnits="userSpaceOnUse">
   <stop stop-opacity=".21862" offset="0"/>
   <stop stop-color="#402412" stop-opacity="0" offset="1"/>
  </linearGradient>
  <filter id="filter5344" x="-.013328" y="-.0071202" width="1.0267" height="1.0142" color-interpolation-filters="sRGB">
   <feGaussianBlur stdDeviation="0.055828515"/>
  </filter>
  <filter id="filter5367" x="-.0094804" y="-.017249" width="1.019" height="1.0345" color-interpolation-filters="sRGB">
   <feGaussianBlur stdDeviation="0.083717166"/>
  </filter>
 
  <linearGradient id="linearGradient1707" x1="111.62" x2="111.57" y1="117.36" y2="126.45" gradientUnits="userSpaceOnUse">
   <stop offset="0"/>
   <stop stop-color="#bf4c4c" offset="1"/>
  </linearGradient>
  <linearGradient id="linearGradient3034" x1="111.3" x2="111.38" y1="118.14" y2="123.2" gradientUnits="userSpaceOnUse">
   <stop offset="0"/>
   <stop stop-color="#fff" offset="1"/>
  </linearGradient>
  <filter id="filter5858" x="-.0011039" y="-.0030483" width="1.0022" height="1.0061" color-interpolation-filters="sRGB">
   <feGaussianBlur stdDeviation="0.00300962"/>
  </filter>
 
  <clipPath id="clipPath7489">
   <path d="m88.295 135.41v68.8h17.287v-68.8zm3.1207 39.615c0.14807 2.6e-4 0.13586-0.0102 0.11937 0.1819 0.02109 0.0199 0.04025 0.04 0.05581 0.0579 0.02262 7e-3 0.04042 4e-3 0.05064-0.0155 0.0053-0.0253 0.0084-0.0507 0.0088-0.0827-5.29e-4 -7e-3 -0.0011-0.0144-0.0021-0.0222 0.0011 6e-3 0.0021 0.0112 0.0021 0.0139 1.1e-5 3e-3 2.9e-5 5e-3 0 8e-3 0.0031 0.0405-5.29e-4 0.0669-0.0088 0.0827-0.0041 0.0196-0.01 0.0394-0.01707 0.0625 2.38e-4 5.2e-4 7.93e-4 1e-3 0.0011 2e-3h0.50695l0.0011-1e-3c0.44415 0 0.44415 0.43926 0 0.43926h-0.27182c-0.0068 0.0341-0.02032 0.0704-0.03824 0.10903-0.01214 0.0262-0.03341 0.0478-0.05478 0.0672-0.09009 0.0817-0.08946 0.0745-0.17983 0.11059-0.09244 0.0267-0.12316 0.0356-0.14418 0.0419 0.01892-6e-3 0.04002-0.0127 0.04392-0.015-0.0011-5.3e-4 -0.01828 3e-3 -0.04702 9e-3 -7.94e-4 2e-3 -0.0013 5e-3 -0.0021 7e-3 -0.0011 3e-3 -0.0021 7e-3 -0.0031 0.01-0.0011 3e-3 -0.0021 6e-3 -0.0031 0.01 0.03239 0.0442 0.06199 0.0904 0.08785 0.13849 0.0085 0.016-0.01725 0.024-0.03979 0.032-2.65e-4 1.3e-4 -7.94e-4 2.6e-4 -0.0011 5.3e-4 -0.0016 7.9e-4 -0.0033 1e-3 -0.0052 2e-3 -0.0037 1e-3 -0.0072 3e-3 -0.01035 4e-3 -7.94e-4 2.7e-4 -0.0019 8e-4 -0.0026 1e-3 -5.29e-4 2.7e-4 -0.0016 8e-4 -0.0021 1e-3 -0.0031 2e-3 -0.0058 3e-3 -0.0088 5e-3 -2.64e-4 2.4e-4 -7.93e-4 2.6e-4 -0.0011 5.3e-4 -0.02334 0.0201-0.04435 0.0423-0.06666 0.0636-0.0036 4e-3 -0.0072 8e-3 -0.01085 0.0114 0.01373 0.0449 0.02183 0.11112 0.02739 0.21136 5.29e-4 8e-3 -0.0011 0.0158-0.0041 0.0227 0.01971 0.0304 0.03839 0.0612 0.05633 0.0925 0.0074 0.0129-0.0047 0.0206-0.0279 0.0253-0.0016 0.0208-0.05001 0.0227-0.07028 0.0377-0.02447 0.0182-0.04882 0.0435-0.07131 0.0672-0.0029 8e-3 -0.0062 0.0178-0.0098 0.0295 0.01897 7e-3 0.05213 0.0211 0.03773 0.0181-7e-3 -1e-3 -0.01381-3e-3 -0.02066-5e-3 0.04647 0.0265 0.10027 0.0457 0.12609 0.0909 0.09492 0.16621-0.01251 0.24214-0.10956 0.35191-0.01566 0.0177-0.0323 0.0343-0.04961 0.0501 0.0057 2.6e-4 0.01135 7.9e-4 0.01707 1e-3 0.05132 0.37227 0.19987 0.40771-0.02016 0.44131-0.0097 1e-3 -0.01963 1e-3 -0.02945 1e-3 0.0013 2e-3 0.0026 4e-3 0.0031 6e-3 0.01328 0.0504 0.02 0.10233 0.0217 0.15503 0.05346 0.0293 0.10146 0.0697 0.11369 0.12971 8e-3 0.0391 0.01741 0.0798 0.0098 0.11886-0.0086 0.0439-0.03783 0.0814-0.05684 0.12195-0.04009 0.0265-0.07846 0.0561-0.12041 0.0796-0.01188 7e-3 -0.02585 8e-3 -0.03928 0.01-0.02691 4e-3 -0.05396 8e-3 -0.08113 0.0109-0.0075 2.6e-4 -0.01542 1e-3 -0.02273-1e-3 -0.0013-2.6e-4 -0.0024-7.9e-4 -0.0036-1e-3 -0.01908 3e-3 -0.04253 0.0217-0.05736 9e-3 -0.01286-0.0108-0.02495-0.022-0.03669-0.0326-0.02109-6e-3 -0.03502-9e-3 -0.01913-7e-3 0.0048 7.9e-4 0.0097 2e-3 0.01447 3e-3 -0.01254-0.0114-0.02439-0.0225-0.03566-0.0336-0.03296-5.3e-4 -0.06579-5.3e-4 -0.0987-1e-3 0.0074 5e-3 0.01455 0.0108 0.0217 0.0165-0.0038-3e-3 -0.0092-6e-3 -0.01188-7e-3 -0.0058-3e-3 -0.01169-6e-3 -0.01757-9e-3 -0.01421-1e-4 -0.0282-1.3e-4 -0.04238-1e-3 -0.02732-2e-3 -0.05491-5e-3 -0.08217-8e-3 -0.07131-0.0112-0.15243-0.0178-0.19482-0.0977-0.0063-0.012-0.01053-0.0242-0.01344-0.0372-0.0104-4e-3 -0.02066-9e-3 -0.031-0.0129-0.04766-0.0144-0.09346-0.0382-0.12609-0.0677-0.0097-9e-3 -0.01889-0.0179-0.02791-0.0274-0.02297-0.0212-0.04629-0.0466-0.07648-0.0796-0.0088-0.01-0.01778-0.0303-0.02582-0.0532-0.03054-0.0324-0.05546-0.0702-0.08165-0.10594-0.01132-0.0155-0.02376-0.0304-0.0341-0.0465-0.01357-0.0212-0.02516-0.0433-0.03772-0.0651-3e-3 -8e-3 -0.0062-0.0165-0.0093-0.0248-0.01233-0.0129-0.02606-0.0313-0.04961-0.0636-0.01162-0.016-0.03531-0.037-0.02479-0.0537 0.04549-0.0722 0.09426-0.14494 0.15193-0.20825-0.02196 2e-3 -0.04007 4e-3 -0.04547 5e-3 4e-3 -7.9e-4 0.02405-4e-3 0.04909-9e-3 0.02694-0.0292 0.05594-0.0565 0.08733-0.0806 0.0042-3e-3 0.05574 0.0167 0.09405 0.032 0.0021-1e-3 0.0045-2e-3 0.0067-4e-3 -0.07594-0.078-0.15427-0.15399-0.21136-0.24598-0.01278-0.0205 0.03537-0.0332 0.0553-0.047 0.0059-4e-3 0.01196-8e-3 0.0181-0.0114-0.0081-0.0261-0.0145-0.0527-0.01913-0.0796-0.0057-0.0335 0.04992-0.0321 0.09043-0.0388 0.06401-0.0286 0.12362-0.0549 0.18293-0.0832 0.0047-6e-3 0.01389-0.0169 0.02119-0.0258-0.0691-0.0123-0.13683-0.0715-0.20206-0.21601-0.03344-0.0741 0.08298-0.13991 0.12454-0.20981 0.0068-4e-3 0.01339-8e-3 0.02016-0.0119-0.09586-0.0607-0.12691-0.10899-0.11989-0.18603-8e-3 -0.0121-0.01651-0.0238-0.02479-0.0357 0.01389-0.0142 0.02696-0.0297 0.04082-0.0439 0.0056-0.0189 0.01638-0.0362 0.02429-0.0543 0.01905-0.0293 0.03719-0.0589 0.05736-0.0873 0.0026-4e-3 0.0072-0.0104 0.01138-0.0155l5.3e-4 -5.3e-4c0.0021-7e-3 0.0036-0.0116 0.0067-0.0217 0.01244-0.0271 0.02376-0.0545 0.03721-0.0811 0.01175-0.0231 0.02831-0.0433 0.04083-0.0661 0.0159-0.0289 0.02979-0.0603 0.04702-0.0889-0.05716-0.0799-0.0834-0.19197-0.03928-0.25476 0.08574-0.0498 0.11955-0.0773 0.14263-0.0925-0.01016-4e-3 0.01728-0.0141 0.02687-0.0191 0.04023-0.022 0.08163-0.0416 0.12247-0.0625 0.05775-0.0302 0.11936-0.0502 0.18242-0.0651 0.04916-0.0463 0.05539-0.027 0.13074-0.0496 0.0163-5e-3 0.03247-0.0105 0.04858-0.0165 0.02751-0.0104 0.05542-0.02 0.08268-0.031 0.0069-3e-3 0.0079-3e-3 0.01394-6e-3 0.0046-0.074 0.04104-0.0786 0.09095-0.0527 0.0021-8e-4 0.0047-1e-3 0.0067-2e-3 -0.0019 7.9e-4 -0.0034 2e-3 -0.0052 3e-3 0.0049 3e-3 0.0098 6e-3 0.01498 9e-3 9e-3 -3e-3 0.0199-7e-3 0.03049-0.0114-0.0029-2e-3 -0.0048-3e-3 -0.0067-4e-3 -0.0082-4e-3 -0.01667-3e-3 -0.02479 0 0.0016-5.2e-4 0.0033-2e-3 0.0047-2e-3 0.02904-0.0128 0.06847-0.0177 0.09767-0.0227zm-1.3095 2.3828c-0.0013 1e-3 -0.0024 3e-3 -0.0036 4e-3 0.02809-3e-3 0.06418-6e-3 0.10284-7e-3 -5.29e-4 -2e-3 -0.0013-3e-3 -0.0021-5e-3 -0.0041-0.0112 0.0217-9e-3 0.03256-0.0139 7.94e-4 -2.6e-4 0.0013-7.9e-4 0.0021-1e-3 -0.06186 0.0112-0.10371 0.0184-0.13178 0.0232zm0.84388 0.99115c0.0016 1e-3 0.0031 3e-3 0.0047 4e-3 0.02689 7e-3 0.06708 0.0172 0.08682 0.0227 0.0013-1.5e-4 0.0024-2.6e-4 0.0036-5.3e-4 -0.03191-8e-3 -0.06294-0.0196-0.09508-0.0263zm0.34003-1.5389c-0.0061-3e-3 -0.0118-8e-3 -0.01757-0.0114-5.29e-4 2e-3 -0.0011 3e-3 -0.0016 5e-3 0.0063 2e-3 0.0127 4e-3 0.01913 6e-3zm-0.01757-0.0114c1.64e-4 -5.3e-4 2.64e-4 -1e-3 5.29e-4 -2e-3 -0.0024-8e-4 -0.0054-2e-3 -0.0072-3e-3 0.0021 2e-3 0.0046 3e-3 0.0067 4e-3zm0.35295-1.5353h-0.0016c-2.64e-4 7.9e-4 -2.38e-4 2e-3 -5.29e-4 3e-3 -0.0047 0.01-0.0087 0.019-0.01241 0.0274 0.01791-2e-3 0.02138-0.0135 0.01447-0.03zm-0.0016 0c1.72e-4 -5.3e-4 2.65e-4 -1e-3 5.29e-4 -2e-3 -0.0058-0.013-0.01791-0.029-0.03359-0.047-0.01707-5e-3 -0.03688-0.0172-0.05839-0.032-0.0019 0.0241-0.0041 0.0506-0.0057 0.0806h0.0026zm-0.09147-0.0806c7.93e-4 -9e-3 0.0019-0.0176 0.0026-0.0259-0.05439-0.0513-0.11871-0.10347-0.1602-0.13332 7.94e-4 0.0122 0.0013 0.0242 0.0021 0.0357 0.052 0.0408 0.10775 0.0906 0.15555 0.12351zm-0.13333-0.20154c-0.0067-5.3e-4 -0.02746 2e-3 -0.02687 0.01 7.2e-5 7.9e-4 -7.1e-5 2e-3 0 3e-3 0.0109-4e-3 0.01508-6e-3 0.02739-0.0103 0.0021-1e-3 0.0016-2e-3 -5.29e-4 -2e-3zm-0.10904 0.0419c-0.0019 1.7e-4 -0.0205 7e-3 -0.03927 0.0145-0.0024 1e-3 -0.0049 2e-3 -0.0072 3e-3 -0.01162 4e-3 -0.02117 9e-3 -0.02739 0.0114 0.0084-3e-3 0.02604-9e-3 0.05478-0.0196 0 0 5.29e-4 -5.3e-4 5.29e-4 -5.3e-4 7.94e-4 -2.6e-4 0.0024-7.9e-4 0.0031-1e-3 0.0093-4e-3 0.01638-7e-3 0.0155-7e-3zm-0.10077 0.0486c-0.0011 2.4e-4 -0.0026 1e-3 -0.0031 2e-3 -0.0024 3e-3 -0.0045 5e-3 -0.0067 8e-3 0.0037-3e-3 0.0072-6e-3 0.01138-9e-3 5.29e-4 -5.3e-4 -5.29e-4 -8e-4 -0.0016-5.3e-4zm0.03772 2.1875c0.02339 0.0201 0.0208 6e-3 0 0zm0.01241 0.47749c-0.0016 6e-5 -0.0053 5.3e-4 -0.0072 5.3e-4 1.77e-4 1e-3 2.65e-4 2e-3 5.29e-4 3e-3 0.0071-2e-3 0.01132-3e-3 0.01291-4e-3 -0.0011-5e-5 -0.0032-1.3e-4 -0.0062 0zm-0.46716 0.41961c-0.0047 2e-3 -0.0093 5e-3 -0.01394 8e-3 0.0013 4e-3 0.0026 9e-3 0.0041 0.0139 0.0076-4e-3 0.01468-8e-3 0.0217-0.0119-0.0027-4e-3 -0.0048-6e-3 -0.0072-9e-3 -0.0016-6e-5 -0.0031-5.3e-4 -0.0047-5.3e-4z" fill="#f00"/>
  </clipPath>
 
  <linearGradient id="linearGradient45091">
   <stop offset="0"/>
   <stop stop-opacity="0" offset=".53219"/>
   <stop stop-opacity=".40486" offset="1"/>
  </linearGradient>
  <linearGradient id="linearGradient45093" x1="85.011" x2="132.3" y1="230.01" y2="230.38" gradientUnits="userSpaceOnUse" xlink:href="#linearGradient45091"/>
  <filter id="filter48371" x="-.16325" y="-.10672" width="1.328" height="1.2045" color-interpolation-filters="sRGB">
   <feGaussianBlur stdDeviation="0.44435843"/>
  </filter>
  <linearGradient id="linearGradient49510" x1="48.345" x2="73.787" y1="158.74" y2="158.74" gradientTransform="translate(16.851 -.25549)" gradientUnits="userSpaceOnUse" xlink:href="#linearGradient45091"/>
  <filter id="filter50702" x="-.052043" y="-.16795" width="1.1041" height="1.3359" color-interpolation-filters="sRGB">
   <feGaussianBlur stdDeviation="0.28572222"/>
  </filter>
  <linearGradient id="linearGradient50786" x1="53.241" x2="68.013" y1="158.74" y2="158.67" gradientTransform="translate(16.851 -.25549)" gradientUnits="userSpaceOnUse">
   <stop offset="0"/>
   <stop stop-opacity="0" offset=".48512"/>
   <stop stop-opacity="0" offset=".71785"/>
   <stop offset="1"/>
  </linearGradient>
  <filter id="filter51069" x="-.14923" y="-2.558" width="1.2928" height="6.132" color-interpolation-filters="sRGB">
   <feGaussianBlur stdDeviation="0.20956735"/>
  </filter>
  <filter id="filter83355" x="-.077859" y="-.08446" width="1.1557" height="1.1689" color-interpolation-filters="sRGB">
   <feGaussianBlur stdDeviation="0.23823084"/>
  </filter>
 </defs>
<g id="Background" display="none">
 <g display="none">
  <rect width="212.72" height="298.98" fill="#fff"/>
 </g>
 <rect width="212.72" height="298.98" fill="#fff"/>
 <rect width="212.72" height="298.98" fill="url(#linearGradient67308)"/>

</g><g id="Skin">
 <g style="mix-blend-mode:normal">
  <path d="m104.83 51.316c-2.2864 0-4.5728 0.0831-5.856 0.24908-5.8236 0.75329-10.837 2.2573-15.959 4.7878-5.619 2.7758-10.442 6.5078-14.467 11.194-5.4354 6.3287-8.7395 13.748-9.9441 22.329-0.26753 1.906-0.22606 8.2702 0.06667 10.232l0.23048 1.5446-0.27595 0.19275c-1.285 0.8998-1.7325 1.6676-1.6485 2.8288 0.11128 1.5386 1.199 2.6149 2.8422 2.8128 0.4741 0.0571 0.89042 0.13231 0.92501 0.16691 0.03458 0.0346 0.1508 0.68985 0.25838 1.4562 0.61949 4.4131 2.1467 7.7635 5.2069 11.422 4.6272 5.5319 12.614 10.143 21.89 12.64 4.6904 1.2622 11.739 2.2645 15.931 2.2655 1.0355 2.5e-4 1.3388 0.0409 1.3948 0.18655 3.06-0.0392 3.944-0.39522 6.1928-0.44271 0-0.18363 0.50647-0.14978 2.7369-0.45182 9.1926-1.2448 17.103-4.4563 23.563-8.98 1.7078-1.196 2.5013-1.8147 4.0848-3.3409 2.7474-2.648 4.4586-5.0824 5.7177-8.1378l0.6952-1.2922 0.84176-0.18115c1.4959-0.32193 2.0076-0.73826 2.2557-2.0415 0.21092-1.108-0.38728-2.5114-1.5274-2.853-0.29071-0.0871-0.54716-0.0848-0.61166-0.16257-0.0732-0.0882 0.15002-0.93163 0.38463-1.7673 0.48156-1.7154 0.94219-3.9067 1.233-5.8648 0.29163-1.9635 0.33251-8.3308 0.0656-10.232-1.2046-8.581-4.5087-16-9.9441-22.329-1.2987-1.5121-3.8972-4.094-5.256-5.2224-7.0618-5.8645-15.624-9.5248-25.17-10.76-1.2832-0.16598-3.57-0.24908-5.8565-0.24908z" fill="#895532"/>
  <path d="m91.448 174.61c-0.54579 0-1.0908-0.015-1.4373 0.47973-0.11309 0.16146-0.34512 0.61608-0.42672 0.98078-0.30735 1.3734 0.19936 2.1106 1.5962 2.644 0.67596 0.25815 0.90669 0.13672 1.6964-0.3641 0.78966-0.50079 0.85938-0.52267 0.93578-1.4846 0.09425-1.1867 0.03179-1.4453-0.66739-2.0182-0.74054-0.3212-1.1136 0.13273-1.6969-0.23766z" fill="#895532"/>
  <circle cx="207.48" cy="171.56" r=".017048" fill="#333" stroke="#000" stroke-width=".26458"/>
  <circle cx="207.48" cy="171.56" r=".017048" fill="#333" stroke="#000" stroke-width=".26458"/>
  <path d="m87.077 204.78c-0.69918 0.57292-0.6899 1.1785-0.5957 2.3652 0.0764 0.9619 0.07159 1.1456 0.86125 1.6464 0.78968 0.50081 1.2356 0.18935 1.9115-0.0688 1.3969-0.53347 1.6928-0.82785 1.3854-2.2012-0.08161-0.3647-0.12659-0.57842-0.23968-0.73988-0.80652-0.88742-1.9395-1.9494-3.3228-1.0017z" fill="#895532"/>
 </g>

</g><g id="Head">
 <g>
  <path d="m104.32 135.44c-2.7616 0-7.6008-0.50136-11.336-1.1745-13.605-2.4516-24.641-8.9681-29.528-17.437-1.329-2.3028-2.0879-4.5222-2.5248-7.3836-0.14563-0.95359-0.33435-1.778-0.41938-1.8321-0.085-0.0541-0.36452-0.0992-0.62107-0.10025-1.1305-5e-3 -2.239-0.69567-2.7449-1.7109-0.75445-1.514-0.20525-3.0303 1.4381-3.9705 0.60604-0.34674 0.86326-0.41745 1.5093-0.4149 0.85858 3e-3 1.9454 0.39621 2.3462 0.84804 0.23 0.25926 0.22836 0.26292-0.0873 0.19439-0.17697-0.0384-0.66927-0.19776-1.094-0.3541-1.7337-0.6382-3.5822 0.18601-3.9961 1.7818-0.48396 1.8657 1.0858 3.4576 3.2883 3.3347l0.57917-0.0323 0.0843 1.3594c0.49494 7.9809 6.8355 15.61 17.162 20.649 5.6601 2.7623 12.37 4.6166 19.563 5.4066 2.5766 0.28299 8.9404 0.39558 11.656 0.20623 13.264-0.92475 24.949-5.4822 32.324-12.607 2.7776-2.6835 4.5416-5.2986 5.7737-8.5594l0.43011-1.1383 0.48888 0.0782c0.70274 0.11238 1.5531-0.143 2.1352-0.64121 0.64962-0.55605 0.844-1.0383 0.77141-1.9137-0.14185-1.7104-1.9766-2.6074-3.835-1.8749-0.78576 0.30971-0.99259 0.32987-0.78207 0.0762 0.20975-0.25274 1.011-0.61853 1.5885-0.72513 0.35335-0.0652 0.69716-0.0125 1.2692 0.19462 1.4365 0.52013 2.043 1.2638 2.043 2.505 0 0.85527-0.23263 1.3916-0.83171 1.9176-0.57778 0.5073-0.92986 0.65303-1.8605 0.77006l-0.7004 0.0881-0.48383 1.1941c-0.61838 1.5261-1.818 3.6345-2.9089 5.1125-1.218 1.6503-4.1659 4.5424-6.1064 5.9908-6.7488 5.0376-15.421 8.2896-25.502 9.5631-0.76502 0.0966-1.4082 0.2164-2.092 0.31549" fill-opacity=".99763"/>
 </g>

</g><g id="Eye Colour">
 <g fill="#fff">
  <ellipse cx="89.796" cy="95.736" rx="26.327" ry="26.27"/>
  <ellipse cx="129.96" cy="106.81" rx="15.043" ry="15.119"/>
 </g>
 <path d="m129.05 117.99c-0.17697-0.0314-0.66927-0.11871-1.094-0.19395-1.0061-0.17825-2.741-0.91303-3.8081-1.6128-1.0916-0.71587-2.6407-2.34-3.3122-3.4725-3.7682-6.3552-0.43118-14.456 6.7341-16.347 1.2384-0.32691 4.1568-0.33478 5.3257-0.0144 2.5188 0.69048 4.4426 1.9369 6.0039 3.89 2.8072 3.5115 3.134 8.4351 0.82474 12.426-0.6125 1.0586-1.9694 2.5334-3.022 3.2845-1.0163 0.72522-2.693 1.5073-3.8295 1.7864-0.86007 0.21115-3.1914 0.36594-3.8228 0.25382zm-41.186-3.4055c-2.3446-0.28748-4.1852-0.80572-6.1345-1.7273-4.966-2.3477-8.7428-6.8419-10.128-12.052-0.50649-1.9052-0.64845-3.0014-0.64845-5.0071 0-1.0264 0.0735-2.3006 0.16335-2.8315 1.0671-6.306 4.7277-11.274 10.428-14.151 1.195-0.60322 3.6229-1.3803 5.097-1.6314 1.6908-0.28799 4.6029-0.29038 6.2727-5e-3 7.2353 1.2359 13.22 6.6404 15.074 13.612 0.50649 1.9052 0.64845 3.0014 0.64845 5.0071 0 5.164-1.8572 9.6502-5.518 13.329-2.8382 2.8523-6.3008 4.641-10.228 5.2836-1.4576 0.2385-3.8276 0.32019-5.0261 0.17323z" fill="url(#linearGradient14752)"/>
 <path d="m128.73 116.32c-0.49552-0.10938-1.3932-0.43496-1.9949-0.7235-1.5418-0.73934-3.0804-2.2759-3.8412-3.8359-0.781-1.6015-0.96222-2.463-0.89269-4.244 0.0936-2.3977 0.81202-4.0526 2.4858-5.7264 1.6746-1.6746 3.3285-2.3922 5.7292-2.4859 1.7459-0.0682 2.9202 0.18902 4.4283 0.9698 1.3876 0.71841 2.9717 2.3527 3.6486 3.7642 2.2926 4.7806 0.0115 10.288-4.9726 12.006-1.3758 0.47421-3.1961 0.58354-4.5906 0.27571zm-41.572-4.4446c-4.7422-0.68336-9.0365-3.8237-11.132-8.1405-2.0624-4.2485-2.0624-8.7873 0-13.036 4.4889-9.2469 17.015-11.11 24.05-3.5769 5.5812 5.9763 5.2684 15.316-0.69957 20.889-3.271 3.0548-7.8298 4.4965-12.218 3.8641z" fill-opacity=".99763" opacity=".59939"/>

</g><g id="Eye Style">
 <path d="m129.01 117.92c-0.17697-0.0314-0.66927-0.11871-1.094-0.19395-1.0061-0.17825-2.741-0.91303-3.8081-1.6128-1.0916-0.71587-2.6407-2.34-3.3122-3.4725-3.7682-6.3552-0.43118-14.456 6.7341-16.347 1.2384-0.32691 4.1568-0.33478 5.3257-0.0144 2.5188 0.69048 4.4426 1.9369 6.0039 3.89 2.8072 3.5115 3.134 8.4351 0.82474 12.426-0.6125 1.0586-1.9694 2.5334-3.022 3.2845-1.0163 0.72522-2.693 1.5073-3.8295 1.7864-0.86007 0.21115-3.1914 0.36594-3.8228 0.25382zm-41.186-3.4055c-2.3446-0.28748-4.1852-0.80572-6.1345-1.7273-4.966-2.3477-8.7428-6.8419-10.128-12.052-0.50649-1.9052-0.64845-3.0013-0.64845-5.0071 0-1.0264 0.0735-2.3006 0.16335-2.8315 1.0671-6.306 4.7277-11.274 10.428-14.151 1.195-0.60322 3.6229-1.3803 5.097-1.6314 1.6908-0.28799 4.6029-0.29038 6.2727-5e-3 7.2353 1.2359 13.22 6.6404 15.074 13.612 0.50649 1.9052 0.64845 3.0013 0.64845 5.0071 0 5.164-1.8572 9.6502-5.518 13.329-2.8382 2.8523-6.3008 4.641-10.228 5.2836-1.4576 0.2385-3.8276 0.32019-5.0261 0.17323z" fill="url(#linearGradient45629-8-4)"/>
 <g style="mix-blend-mode:normal">
  <g filter="url(#filter64221)" style="mix-blend-mode:normal">
   <path d="m90.42 101.84s7.5834-5.7234 7.7131-8.8857c0.12339-3.0084-5.9525-6.8482-8.0873-0.28161-1.8977-6.5182-7.9279-2.6967-7.8444 0.22583 0.0921 3.2239 8.2186 8.9415 8.2186 8.9415z" fill="#ff00ca" fill-opacity=".39271"/>
   <path d="m90.549 105s10.194-7.6937 10.368-11.945c0.16587-4.044-8.0016-9.2057-10.871-0.37855-2.551-8.7621-10.657-3.6251-10.545 0.30357 0.1238 4.3338 11.048 12.02 11.048 12.02z" fill="#ff00ca" fill-opacity=".22267"/>
   <g fill="#fff">
    <path d="m75.49 104.91c0.54784 3.3726 8.0748 8.1509 13.049 8.4658s13.565-4.3029 14.359-7.6239c0.79435-3.321-0.99187-4.6305-3.6015-5.1449s-5.3353 5.3333-9.1206 5.1917-7.3468-6.6556-10.29-6.2207c-2.9431 0.43489-4.9444 1.9594-4.3966 5.332z"/>
    <g fill-opacity=".99763">
     <ellipse cx="103.18" cy="96.725" rx="2.9934" ry="1.5903" fill-rule="evenodd"/>
     <path d="m90.457 82.974c-0.07533 1.6606-3.095 1.2248-4.5837 1.9644-1.8635 0.92578-3.3835 3.4863-5.4256 3.087-1.2856-0.25139-2.7562-1.8177-2.4322-3.087 0.80507-3.1539 5.7287-3.9849 8.9803-3.8353 1.3101 0.06025 3.5206 0.56076 3.4611 1.8709z"/>
     <ellipse cx="93.077" cy="83.395" rx="1.6838" ry="1.5435" fill-rule="evenodd"/>
    </g>
   </g>
   <path d="m130.87 110.52s4.3696-3.2979 4.4443-5.12c0.0711-1.7334-3.4299-3.946-4.6599-0.16226-1.0935-3.7558-4.5681-1.5539-4.52 0.13013 0.053 1.8577 4.7356 5.1522 4.7356 5.1522z" fill="#ff00ca" fill-opacity=".39271"/>
   <path d="m130.95 112.34s5.8738-4.4332 5.9743-6.8826c0.0956-2.3302-4.6106-5.3044-6.2641-0.21812-1.4699-5.0487-6.1407-2.0888-6.076 0.17493 0.0714 2.4971 6.3658 6.9258 6.3658 6.9258z" fill="#ff00ca" fill-opacity=".22267"/>
   <g fill="#fff">
    <path d="m122.27 112.29c0.31566 1.9434 4.6528 4.6966 7.5192 4.878 2.8664 0.18141 7.8161-2.4794 8.2738-4.3929 0.45771-1.9136-0.57152-2.6681-2.0752-2.9645-1.5037-0.2964-3.0742 3.0731-5.2553 2.9915-2.1811-0.0815-4.2332-3.835-5.9291-3.5844-1.6958 0.2506-2.849 1.129-2.5334 3.0724z"/>
    <g fill-opacity=".99763">
     <ellipse cx="138.22" cy="107.58" rx="1.7248" ry=".91631" fill-rule="evenodd"/>
     <path d="m130.89 99.654c-0.0434 0.95684-1.7834 0.70574-2.6412 1.1319-1.0737 0.53345-1.9496 2.0088-3.1262 1.7787-0.74081-0.14484-1.5881-1.0474-1.4014-1.7787 0.46389-1.8173 3.3009-2.2961 5.1745-2.2099 0.75488 0.03481 2.0286 0.32312 1.9943 1.078z"/>
     <ellipse cx="132.4" cy="99.896" rx=".97022" ry=".88936" fill-rule="evenodd"/>
    </g>
   </g>
  </g>
  <path d="m90.42 101.84s7.5834-5.7234 7.7131-8.8857c0.12339-3.0084-5.9525-6.8482-8.0873-0.28161-1.8977-6.5182-7.9279-2.6967-7.8444 0.22583 0.0921 3.2239 8.2186 8.9415 8.2186 8.9415z" fill="#ff00ca" fill-opacity=".39271"/>
  <path d="m90.549 105s10.194-7.6937 10.368-11.945c0.16587-4.044-8.0016-9.2057-10.871-0.37855-2.551-8.7621-10.657-3.6251-10.545 0.30357 0.1238 4.3338 11.048 12.02 11.048 12.02z" fill="#ff00ca" fill-opacity=".22267"/>
  <g fill="#fff">
   <path d="m75.49 104.91c0.54784 3.3726 8.0748 8.1509 13.049 8.4658s13.565-4.3029 14.359-7.6239c0.79435-3.321-0.99187-4.6305-3.6015-5.1449s-5.3353 5.3333-9.1206 5.1917-7.3468-6.6556-10.29-6.2207c-2.9431 0.43489-4.9444 1.9594-4.3966 5.332z"/>
   <g fill-opacity=".99763">
    <ellipse cx="103.18" cy="96.725" rx="2.9934" ry="1.5903" fill-rule="evenodd"/>
    <path d="m90.457 82.974c-0.07533 1.6606-3.095 1.2248-4.5837 1.9644-1.8635 0.92578-3.3835 3.4863-5.4256 3.087-1.2856-0.25139-2.7562-1.8177-2.4322-3.087 0.80507-3.1539 5.7287-3.9849 8.9803-3.8353 1.3101 0.06025 3.5206 0.56076 3.4611 1.8709z"/>
    <ellipse cx="93.077" cy="83.395" rx="1.6838" ry="1.5435" fill-rule="evenodd"/>
   </g>
  </g>
  <path d="m130.87 110.52s4.3696-3.2979 4.4443-5.12c0.0711-1.7334-3.4299-3.946-4.6599-0.16226-1.0935-3.7558-4.5681-1.5539-4.52 0.13013 0.053 1.8577 4.7356 5.1522 4.7356 5.1522z" fill="#ff00ca" fill-opacity=".39271"/>
  <path d="m130.95 112.34s5.8738-4.4332 5.9743-6.8826c0.0956-2.3302-4.6106-5.3044-6.2641-0.21812-1.4699-5.0487-6.1407-2.0888-6.076 0.17493 0.0714 2.4971 6.3658 6.9258 6.3658 6.9258z" fill="#ff00ca" fill-opacity=".22267"/>
  <g fill="#fff">
   <path d="m122.27 112.29c0.31566 1.9434 4.6528 4.6966 7.5192 4.878 2.8664 0.18141 7.8161-2.4794 8.2738-4.3929 0.45771-1.9136-0.57152-2.6681-2.0752-2.9645-1.5037-0.2964-3.0742 3.0731-5.2553 2.9915-2.1811-0.0815-4.2332-3.835-5.9291-3.5844-1.6958 0.2506-2.849 1.129-2.5334 3.0724z"/>
   <g fill-opacity=".99763">
    <ellipse cx="138.22" cy="107.58" rx="1.7248" ry=".91631" fill-rule="evenodd"/>
    <path d="m130.89 99.654c-0.0434 0.95684-1.7834 0.70574-2.6412 1.1319-1.0737 0.53345-1.9496 2.0088-3.1262 1.7787-0.74081-0.14484-1.5881-1.0474-1.4014-1.7787 0.46389-1.8173 3.3009-2.2961 5.1745-2.2099 0.75488 0.03481 2.0286 0.32312 1.9943 1.078z"/>
    <ellipse cx="132.4" cy="99.896" rx=".97022" ry=".88936" fill-rule="evenodd"/>
   </g>
  </g>
 </g>

</g><g id="Eye Outline">
 <g fill-opacity=".99763">
  <path d="m128.38 122.38c-0.10618-0.0257-0.62743-0.11705-1.1583-0.20298-2.2203-0.35935-4.6187-1.4106-6.5736-2.8812-3.9178-2.9474-6.1682-7.4745-6.1682-12.409 0-0.93371-0.0453-1.4434-0.12143-1.3667-0.0668 0.0673-0.50447 0.89936-0.97265 1.8491-1.4378 2.9168-3.4041 5.5958-5.6275 7.6672-10.35 9.6423-26.145 9.6423-36.494 0-2.2749-2.1194-4.243-4.8225-5.6908-7.8161-1.0485-2.168-1.6806-4.0092-2.1206-6.1768-1.1581-5.7057-0.45472-11.573 2.0008-16.689 1.4721-3.0668 2.9533-5.1727 5.2629-7.4823 10.414-10.414 27.176-10.414 37.59 0 2.3096 2.3096 3.7908 4.4155 5.2629 7.4823 1.9529 4.0685 2.834 8.7728 2.4743 13.211-0.0846 1.0441-0.18815 2.0287-0.2301 2.188-0.15078 0.57247 0.20715 0.27701 0.71236-0.58803 0.77775-1.3317 1.5569-2.3085 2.7711-3.4742 2.9217-2.8049 6.5946-4.2714 10.698-4.2714 8.5897 0 15.506 6.9379 15.503 15.55-3e-3 6.26-3.7982 11.885-9.6588 14.314-1.7167 0.71149-3.3174 1.035-5.3992 1.0913-1.0264 0.0277-1.9531 0.0294-2.0593 4e-3zm5.3034-1.2665c2.3913-0.63206 4.5354-1.8436 6.3562-3.5916 3.0902-2.9667 4.5573-6.3765 4.5573-10.592 0-2.6621-0.43113-4.4634-1.6186-6.7626-2.0521-3.9732-5.7649-6.7594-10.203-7.6568-1.5055-0.3044-5.0577-0.2054-6.4591 0.18002-5.22 1.4356-9.1355 5.3639-10.581 10.616-0.25709 0.93381-0.28828 1.3401-0.28319 3.6879 5e-3 2.4972 0.0246 2.7005 0.35744 3.7968 0.40251 1.3256 1.2762 3.2163 1.9809 4.2868 0.68977 1.0478 2.7334 3.1176 3.8128 3.8615 1.6993 1.1712 3.4931 1.9482 5.4261 2.3503 1.7424 0.36246 4.9372 0.27795 6.6548-0.17603zm-41.368 0.1598c4.7611-0.51748 9.6127-2.5504 13.412-5.62 1.1393-0.9204 3.3028-3.1267 4.1369-4.2188 1.0789-1.4126 2.0397-2.993 2.8716-4.7233 1.8558-3.8602 2.635-7.6347 2.4776-12.002-0.20035-5.5609-2.0504-10.572-5.5615-15.065-0.9084-1.1623-3.2134-3.4437-4.3751-4.3304-7.8562-5.9962-18.287-7.0781-26.982-2.7987-2.7108 1.3341-4.5241 2.6137-6.7224 4.7438-4.8177 4.6683-7.5239 10.75-7.7653 17.45-0.15736 4.3675 0.62183 8.1421 2.4776 12.002 1.3314 2.7695 2.6333 4.6402 4.7523 6.829 2.1655 2.2368 4.2716 3.785 7.0411 5.1761 2.5024 1.2569 5.7682 2.2447 8.4074 2.5429 1.4693 0.16601 4.3671 0.17305 5.829 0.0142z"/>
  <g stroke="#000" stroke-width=".26458px">
   <path d="m64.624 87.312-9.6573-3.0427 0.92604-3.3073 9.2604 5.0932z"/>
   <path d="m66.15 83.14-8.8664-4.8896 1.5608-3.0593 8.0724 6.8214z"/>
   <path d="m68.498 79.368-7.4912-6.8119 2.2276-2.6141 6.2711 8.507z"/>
   <path d="m144.73 103.63 6.7694-1.8488-0.55224-2.3169-6.5498 3.2805z"/>
   <path d="m143.79 100.7 6.2714-3.15-0.99849-2.1621-5.7736 4.5101z"/>
   <path d="m142.26 98.024 5.3709-4.5192-1.4722-1.8715-4.5716 5.7267z"/>
  </g>
 </g>

</g><g id="Hair">
 <g stroke="#000" stroke-width=".565">
  <g fill="#845C52">
   <path d="m106.55 47.333v0s-1.7234 4.1219-1.7183 6.2979c8e-3 3.3913 2.7244 9.8025 2.7244 9.8025 12.25 37.115 36.754 19.203 41.804 44.119 1.4693 0.51044 2.4036 1.2018 2.2797 2.7708-0.12388 1.569-1.2056 2.3623-3.2232 2.6548-2.6707 7.2329-8.5218 11.379-13.344 14.683 11.217-2.9955 23.886-14.518 23.548-32.279s-6.7037-28.232-17.198-36.777c-19.648-15.998-50.234-14.548-70.005-0.44731-11.652 8.3102-19.125 21.091-18.461 38.765 0.66398 17.674 6.1638 24.533 18.483 28.357-8.5328-5.844-10.751-14.635-10.304-18.093-1.5096 0.69274-4.0482-0.53218-4.2482-2.4119 0.02262-3.3689 3.2257-3.8847 5.8208-2.249-3.3256-10.939-1.6753-37.731 38.563-37.505 4.0241 0.02268 6.2839-1.5875 6.2839-1.5875" stroke-linecap="round" stroke-linejoin="round" style="mix-blend-mode:normal"/>
   <path d="m106.55 47.333s-12.981 4.4874-17.568 0.83639c-3.7111-2.954-4.6443-9.7582-2.5285-14.003 1.088-2.1828 4.1452-3.7983 6.5321-3.2967 6.9585 1.4623 13.564 16.464 13.564 16.464z"/>
   <path d="m91.406 37.852c-2.1473-3.1953-3.6975-7.9344-1.9777-11.379 1.4079-2.8197 5.2875-4.6587 8.419-4.303 6.0694 0.68927 12.542 5.8627 14.032 11.787 1.1709 4.6551-5.332 13.377-5.332 13.377s-11.819-4.5392-15.141-9.4817z"/>
   <path d="m93.442 24.265c1.6888-4.1982 8.49-4.0518 13.012-3.8721 4.409 0.17524 9.6579 1.273 12.348 4.7708 2.6198 3.4065 3.197 8.9105 1.4032 12.816-2.3033 5.0143-13.657 9.3544-13.657 9.3544s-16.406-14.864-13.105-23.069z"/>
   <path d="m106.55 47.333s2.3518-16.228 8.7693-18.818c3.2306-1.3035 7.4192 1.1701 9.7524 3.757 2.3152 2.567 4.479 7.0378 2.7128 10.009-3.7175 6.2543-21.235 5.0514-21.235 5.0514z"/>
   <path d="m106.55 47.333s4.8559-7.2293 8.7032-8.5406c3.9607-1.3499 9.7261-1.6738 12.464 1.4902 1.7234 1.9913 1.7244 6.0978-0.19762 7.898-5.1058 4.7823-20.97-0.84767-20.97-0.84767z"/>
  </g>
  <g fill="none">
   <path d="m107.55 63.434s-0.81422 13.946 10.845 20.996c2.6816 1.6214 6.4216 4.8965 6.8542 6.981" stroke-linecap="round"/>
   <path d="m61.134 107.19c-0.55186 16.553 7.9446 25.82-1.0583 30.692-1.7227 0.93222-4.7377-1.1055-5.0271-3.0427-0.33225-2.2238 1.6493-5.5081 4.4979-5.0271 5.9521 1.0051 10.481 6.5515 6.4823 11.774-4.249 5.5497-4.7865 4.3357-6.35 9.2604-0.86435 2.7226 1.4552 10.054 1.4552 10.054"/>
   <path d="m148.41 112.98c-4.8737 17.489-8.9123 25.668 0 30.692 1.7064 0.96177 4.7376-1.1055 5.0271-3.0427 0.33226-2.2238-1.6493-5.5081-4.4979-5.0271-5.9521 1.0051-10.481 6.5515-6.4823 11.774 4.249 5.5497 4.7865 4.3357 6.35 9.2604 0.86435 2.7226-1.4552 10.054-1.4552 10.054"/>
  </g>
 </g>
 <path d="m106.55 47.334v0s-1.7234 4.1219-1.7183 6.2979c8e-3 3.3913 2.7244 9.8025 2.7244 9.8025 12.25 37.115 36.754 19.203 41.804 44.119 1.4693 0.51044 2.4036 1.2018 2.2797 2.7708-0.12388 1.569-1.2056 2.3623-3.2232 2.6548-2.6707 7.2329-8.5218 11.379-13.344 14.683 11.217-2.9955 23.886-14.518 23.548-32.279s-6.7037-28.232-17.198-36.777c-5.0335-4.0984-11.354-7.0388-16.336-8.9134 4.275 1.4628 4.9963-8.3882 3.1397-9.6585 0.81617-1.198-3.4818-11.271-8.1073-11.648 1.6434-5.3809-15.419-12.736-25.414-5.4393-4.8043-1.2077-7.0805 7.4008-6.1 8.6839-1.8574-1.7637-7.1778 14.475 2.3264 17.556-5.969 1.8929-13.381 4.5974-19.514 8.9715-11.652 8.3102-19.125 21.091-18.461 38.765 0.66398 17.674 6.1638 24.533 18.483 28.357-8.5328-5.844-10.751-14.635-10.304-18.093-1.5096 0.69274-4.0482-0.53218-4.2482-2.4119 0.02262-3.3689 3.2257-3.8847 5.8208-2.249-3.3256-10.939-1.6753-37.731 38.563-37.505 4.0241 0.02268 6.2839-1.5875 6.2839-1.5875" fill="url(#linearGradient3198)" stroke-linecap="round" stroke-linejoin="round" style="mix-blend-mode:normal"/>
 <g>
  <path d="m106.55 47.333s-12.981 4.4874-17.568 0.83639c-3.7111-2.954-4.6443-9.7582-2.5285-14.003 0.20524 4.4673 5.3659 4.4869 7.5537 6.2888 5.556 4.685 12.542 6.8785 12.542 6.8785z" opacity=".16"/>
  <path d="m91.406 37.852c-2.1473-3.1953-3.6975-7.9344-1.9777-11.379-1.176 5.0164 4.1346 8.9231 9.1464 12.102 3.5941 4.3351 7.9726 8.7592 7.9726 8.7592s-11.819-4.5392-15.141-9.4817z" opacity=".16"/>
  <path d="m93.442 24.265c1.6888-4.1982 8.49-4.0518 13.012-3.8721-7.4783 5.5703-4.6707 6.5917-2.5569 8.7942 2.6152 2.7249 5.9471 5.9836 5.9471 5.9836-0.93873 2.3714-3.2961 12.163-3.2961 12.163s-16.406-14.864-13.105-23.069z" opacity=".16"/>
 </g>
 <path d="m106.55 47.333s2.3518-16.228 8.7693-18.818c2.3693 1.095-1.8319 7.3356 1.2834 9.8799-6.4585 1.9132-10.053 8.9375-10.053 8.9375z" filter="url(#filter5344)" opacity=".16"/>
 <path d="m106.55 47.333s4.8559-7.2293 8.7032-8.5406c3.9607-1.3499-1.3382 1.6181 1.3996 4.7821 1.7234 1.9913 12.789 2.8059 10.867 4.6061-5.1058 4.7823-20.97-0.84767-20.97-0.84767z" filter="url(#filter5367)" opacity=".16"/>
 <g fill="none">
  <path d="m107.55 63.434s-0.81422 13.946 10.845 20.996c2.6816 1.6214 6.4216 4.8965 6.8542 6.981" stroke-linecap="round"/>
  <path d="m61.134 107.19c-0.55186 16.553 7.9446 25.82-1.0583 30.692-1.7227 0.93222-4.7377-1.1055-5.0271-3.0427-0.33225-2.2238 1.6493-5.5081 4.4979-5.0271 5.9521 1.0051 10.481 6.5515 6.4823 11.774-4.249 5.5497-4.7865 4.3357-6.35 9.2604-0.86435 2.7226 1.4552 10.054 1.4552 10.054"/>
  <path d="m148.41 112.98c-4.8737 17.489-8.9123 25.668 0 30.692 1.7064 0.96177 4.7376-1.1055 5.0271-3.0427 0.33226-2.2238-1.6493-5.5081-4.4979-5.0271-5.9521 1.0051-10.481 6.5515-6.4823 11.774 4.249 5.5497 4.7865 4.3357 6.35 9.2604 0.86435 2.7226-1.4552 10.054-1.4552 10.054"/>
 </g>
 <path transform="matrix(-12.018 0 0 5.4713 1850.7 -839.86)" d="m141.57 173.16c-0.50056-6.6003 1.1084-7.9791 2.0777-9.1634-0.83796 0.47718-3.006 2.6972-2.0777 9.1634z" color="#000000" filter="url(#filter7744-7-4)" opacity=".23127" style="-inkscape-stroke:none;mix-blend-mode:normal"/>
 <path transform="matrix(12.018 0 0 5.4713 -1640.3 -840.23)" d="m140.92 170.18c-0.29963 4.4424 0.80619 5.7762 1.5071 6.2879-0.84315-1.8253-0.86959-1.7095-1.018-3.2382-0.19136-0.29763-0.30015-0.61997-0.0659-1.0858-0.10314-4.1883 0.9495-7.2452 1.9671-8.9815-1.1616 0.98894-2.207 2.9358-2.3904 7.0176z" color="#000000" filter="url(#filter7744-7-4-9)" opacity=".14007" style="-inkscape-stroke:none;mix-blend-mode:normal"/>
 <path transform="matrix(6.691 0 0 -2.1507 -827.26 443.72)" d="m141.01 173.21c0.55069-2.8958 0.64244-2.796 1.0897-3.8329 0.50774-1.1773 1.4497-2.3497 1.6904-4.747-0.72214 3.5085-2.6454 4.0825-2.7801 8.5799z" color="#000000" filter="url(#filter7744-7-0)" opacity=".23127" style="-inkscape-stroke:none;mix-blend-mode:normal"/>
 <path d="m120.88 50.658s-11.956 3.2089-13.127 12.869l-2.5358 0.90806c-1.9854-8.2621-17.107-4.148-23.17-11.953l2.909-1.4023 5.8193-1.8104 4.7201 0.38795 11.047-2.3237z" filter="url(#filter1317)" opacity=".14332" stroke="#000" stroke-width=".26458px" style="mix-blend-mode:normal"/>

</g><g id="Expression">
 <g>
  <path d="m106.04 122.06c3.2901-0.53399 6.9935-0.55122 10.645 0.10335 0 0-1.9181 10.053-5.7361 9.9219-3.7187-0.128-4.9093-10.025-4.9093-10.025z" fill="url(#linearGradient1707)" stroke="#000" stroke-width=".665"/>
  <path d="m106.46 122.33c3.6058 2.6739 6.3141 1.8876 9.8232 0.11247-3.4864-0.58638-6.3854-0.69492-9.8232-0.11247z" fill="url(#linearGradient3034)"/>
  <path d="m107.51 127.22s2.6111-0.82534 3.8481-0.45393c1.1256 0.33796 2.6949 2.2735 2.6949 2.2735-2.8479 5.1341-5.2612 2.2629-6.543-1.8196z" fill="#ef8a8a"/>
  <path d="m107.51 127.22s2.611-0.82534 3.8481-0.45393c1.1256 0.33796 2.6949 2.2735 2.6949 2.2735-4.2721-3.5542-5.705-1.1047-6.4736-1.3501 0 0 0.026-0.26363-0.0695-0.4695z" filter="url(#filter5858)" opacity=".12052" style="mix-blend-mode:normal"/>
 </g>

</g><g id="Pose">
 <path d="m111.62 135.18s14.05 20.935 14.102 31.602c-0.26639 14.182-20.941 10.93-31.628 10.131" fill="none" stroke="#000" stroke-width=".865"/>
 <g fill-opacity=".99763">
  <path d="m93.81 178.34c-0.62808 0.68407-1.3272 0.93091-2.3422 0.82694-0.86735-0.0888-1.3448-0.34922-1.7414-0.94965-0.74752-1.1318-0.73855-1.8196 0.0386-2.9574 0.91703-1.3425 3.1819-1.3156 4.1208 0.0489 0.24361 0.35408 0.42748 0.80836 0.46619 1.1518 0.0403 0.35795 5.1e-4 0.56052-0.0123 0.71985-0.0163 0.20329-0.0538 0.64134-0.52961 1.1595zm-3.5117-0.65138c0.28796 0.52195 0.7404 0.74544 1.509 0.74544 0.77469 0 1.2204-0.22317 1.5238-0.76296 0.35397-0.62979 0.35261-1.193-4e-3 -1.8283-0.22809-0.40584-0.40159-0.53799-0.90094-0.68629-0.53798-0.15975-0.70078-0.1592-1.2514 4e-3 -0.56921 0.16904-0.66642 0.25518-0.96569 0.85572-0.35541 0.71322-0.34637 0.88183 0.0896 1.672z"/>
  <path d="m105.32 135.6c0-0.1579-0.19434-0.19509-1.0194-0.19509l0.15461-0.54479c1.992 0.0234 3.9152-1e-3 5.1202-0.0852 0.81309-0.0567 1.6202-0.12703 2.4208-0.21077l0.26964 0.72472c-0.15705 0.23639-0.22878 0.59896-0.1676 1.1681 0 0 0.69216 23.103 2.9977 50.592 2.3056 27.489 4.4152 50.467 4.4593 51.705 0.0442 1.2388-0.0476 8.4421-0.20385 16.007-0.24097 11.666-0.25726 13.782-0.10729 13.932 0.20719 0.20719 3.0601 0.62722 5.7495 0.84649 1.2956 0.10563 1.9053 0.20758 2.0386 0.34087 0.16775 0.16775 0.16579 0.20381-0.0166 0.3059-0.39281 0.21983-2.0158 0.2664-3.5839 0.10282-1.5433-0.16098-3.9884-0.80709-4.5043-1.1903-0.22548-0.16747-0.51904-2.4652-2.8574-22.365-0.76965-6.55-0.80826-6.95-0.9067-9.3955-0.0385-0.95563-0.12428-2.5773-0.19068-3.6037s-0.50038-7.9476-0.96439-15.38c-0.46401-7.4327-0.87393-13.651-0.91093-13.818-0.0575-0.25953-0.11764-0.28973-0.41528-0.20864-0.59548 0.16222-5.4911 0.22162-6.0288 0.0731-0.37131-0.10251-0.52774-0.0969-0.63704 0.0228-0.0982 0.10758-0.32037 4.7008-0.6894 14.252-0.80442 20.821-0.78051 20.421-1.6755 27.993-2.5342 21.44-2.7044 22.777-2.9203 22.937-0.11578 0.086-0.75511 0.33787-1.4207 0.55962-1.8384 0.61246-5.0555 0.93672-6.3207 0.63709l-7e-5 2e-5c-0.54243-0.12847-0.59439-0.18685-0.36789-0.41335 0.12673-0.12674 0.76593-0.23222 2.0332-0.33555 2.6743-0.21805 5.5425-0.63947 5.7475-0.84448 0.14731-0.14731 0.1291-2.4673-0.1156-14.735-0.24474-12.27-0.26577-14.951-0.13363-17.039 0.0862-1.3631 1.6025-24.471 3.3695-51.351s1.6414-48.894 1.6414-49.144"/>
  <path d="m88.085 204.21c-1.6238 0.3264-2.5394 2.3982-1.6659 3.7693 0.74035 1.1621 1.3692 1.4409 2.7038 1.1988 0.70801-0.12842 1.1352-0.46498 1.5581-1.2275 0.49484-0.89226 0.4768-2.3279-0.31912-2.9441-0.64573-0.49993-1.2472-0.56171-1.3871-1.1699 0 0-0.62868-0.1433-0.64146-0.0142-0.02989 0.30243-0.16211 0.37021-0.24834 0.38755zm-0.93449 3.4975c-0.27304-0.3502-0.32592-0.5642-0.26627-1.0778 0.20445-1.7606 2.1031-2.3507 3.1545-0.98042 0.37693 0.49126 0.40679 0.98883 0.10206 1.7011-0.34218 0.79977-0.6915 1.0584-1.4923 1.1049-0.78711 0.0457-0.93803-0.0296-1.4979-0.74781z"/>
 </g>
 <path d="m106.02 135.12c-15.203 21.389-15.989 48.25-17.395 69.07" clip-path="url(#clipPath7489)" fill="none" stroke="#000" stroke-width=".665"/>

</g><g id="Clothes">
 <g stroke="#000">
  <path d="m96.561 191.56 1.1982 77.81s1.1439 0.1764 1.6994 0.16539c0.55543-0.011 1.6332-0.23149 1.6332-0.23149l4.4531-35.3 3.7146-29.445 9.191 64.304s1.1619 0.26078 1.6932 0.25888c0.53133-2e-3 1.4948-0.27028 1.4948-0.27028l-0.64613-77.627s-2.7333 0.32189-11.776 0.43419c-10.731 0.13326-12.655-0.0987-12.655-0.0987z" fill="#007fff" stroke-width=".26458px"/>
  <path d="m96.561 191.56 1.1982 77.81s1.1439 0.1764 1.6994 0.16539c0.55543-0.011 1.6332-0.23149 1.6332-0.23149l4.4531-35.3 3.7146-29.445 9.191 64.304s1.1619 0.26078 1.6932 0.25888c0.53133-2e-3 1.4948-0.27028 1.4948-0.27028l-0.64613-77.627s-2.7333 0.32189-11.776 0.43419c-10.731 0.13326-12.655-0.0987-12.655-0.0987z" fill="url(#linearGradient45093)" stroke-linecap="round" stroke-linejoin="round" stroke-width=".565"/>
  <g fill="none">
   <path d="m101.94 192.56s-0.0259 3.4623-5.4002 2.868" stroke-width=".26458px"/>
   <path d="m108.15 191.64c0.01 9.218-0.11002 8.4107 0.98477 8.8178l-0.10335-8.6816" stroke-width=".26458px"/>
   <path d="m109.13 200.46 0.12916 4.1083" stroke-width=".265"/>
   <g stroke-width=".26458px">
    <path d="m96.609 192.57 11.343 0.10336h0.12919"/>
    <path d="m109.11 192.6 11.834-0.41341"/>
    <path d="m115.2 192.42s0.0278 3.4623 5.8021 2.868"/>
   </g>
  </g>
  <path d="m108.73 204.03-3.3748-1.1655 2.7388 2.5063-0.0387 7.8677 1.2038-8.6794 0.93432 6.186-0.3036-5.6586 2.5451-2.9456z" filter="url(#filter48371)" opacity=".2899" stroke-width=".26458px"/>
 </g>
 <path d="m108.08 191.62c7.2904 4.9187 12.919 2.6097 12.919 2.6097l0.17496-2.1965s-2.9421 3.5016-12.148-1.3147c-0.38597-0.20193-1.3071 0.65792-0.94601 0.90154z" fill-opacity=".53846" filter="url(#filter50702)"/>
 <g transform="matrix(1 0 0 1.026 47.768 1.8761)" fill="#382e85" fill-opacity=".99763">
  <path d="m61.259 185.09s-10.687 4.7682-12.904 1.153c0 0 3.3796-16.889 7.7444-44.853 0.70119-4.4939 1.7901-11.239 1.7901-11.239l5.5934-0.31303c0.0481 0.28858 1.2365 7.7581 1.9295 11.586 3.7502 20.711 8.3241 44.948 8.3241 44.948-2.4225 3.0868-12.477-1.2814-12.477-1.2814z" fill="#382e85" fill-opacity=".99763" stroke="#000" stroke-width=".71478"/>
 </g>
 <g transform="matrix(1 0 0 1.026 30.917 2.1382)" fill="url(#linearGradient49510)" opacity=".30945">
  <path d="m78.111 184.84s-10.687 4.8038-12.904 1.1886c0 0 3.3796-16.924 7.7444-44.889 0.70119-4.4939 1.7901-11.239 1.7901-11.239l5.5934-0.31303c0.0481 0.28858 1.2365 7.7581 1.9295 11.586 3.7502 20.711 8.4702 44.912 8.4702 44.912-2.4225 3.0868-12.623-1.2458-12.623-1.2458z" fill="url(#linearGradient50786)" opacity="1"/>
 </g>
 <path d="m107.18 191.17c0.78911 0.34701 2.4848 0.31059 3.7272-1e-5" fill="none" stroke="#000" stroke-width=".26458px"/>
 <path d="m107.21 191.46c0.78911 0.34701 2.4848 0.31059 3.7272-1e-5" fill="none" filter="url(#filter51069)" stroke="#000" stroke-width=".26458px"/>
 <path d="m111.95 139.32-7.3435 2.5459 1.0477-6.4536 5.5944-0.31598z" fill-opacity=".99763" filter="url(#filter83355)" opacity=".3792"/>

</g></svg>
