<?xml version="1.0" encoding="UTF-8"?>
<!-- Created with Inkscape (http://www.inkscape.org/) -->
<svg width="210mm" height="297mm" version="1.1" viewBox="0 0 210 297" xmlns="http://www.w3.org/2000/svg" xmlns:xlink="http://www.w3.org/1999/xlink">
 <defs>
  <linearGradient id="linearGradient110076">
   <stop stop-color="#3c200d" offset="0"/>
   <stop stop-color="#231308" offset="1"/>
  </linearGradient>
  <linearGradient id="linearGradient104853">
   <stop stop-color="#3c200d" offset="0"/>
   <stop offset="1"/>
  </linearGradient>
  <linearGradient id="linearGradient45091">
   <stop offset="0"/>
   <stop stop-opacity="0" offset=".53219"/>
   <stop stop-opacity=".40486" offset="1"/>
  </linearGradient>
  <linearGradient id="linearGradient67308" x1="62.442" x2="177.27" y1="143.4" y2="52.388" gradientUnits="userSpaceOnUse">
   <stop stop-color="#0ff" offset="0"/>
   <stop stop-color="#d0a1ff" stop-opacity="0" offset="1"/>
  </linearGradient>
  <linearGradient id="linearGradient45629-8-4" x1="123.66" x2="114.77" y1="91.869" y2="114.29" gradientTransform="translate(-1e-6)" gradientUnits="userSpaceOnUse" xlink:href="#linearGradient45671"/>
  <linearGradient id="linearGradient45671">
   <stop offset="0"/>
   <stop stop-opacity="0" offset="1"/>
  </linearGradient>
  <linearGradient id="linearGradient45093" x1="85.011" x2="127.47" y1="230.01" y2="230.82" gradientUnits="userSpaceOnUse" xlink:href="#linearGradient45091"/>
  <filter id="filter48371" x="-.14245" y="-.13022" width="1.2858" height="1.248" color-interpolation-filters="sRGB">
   <feGaussianBlur stdDeviation="0.44435843"/>
  </filter>
  <linearGradient id="linearGradient82654" x1="89.924" x2="127.99" y1="163.65" y2="163.65" gradientUnits="userSpaceOnUse" xlink:href="#linearGradient45091"/>
  <filter id="filter83355" x="-.032262" y="-.065081" width="1.0645" height="1.1302" color-interpolation-filters="sRGB">
   <feGaussianBlur stdDeviation="0.23823084"/>
  </filter>
  <filter id="filter103773" x="-.025502" y="-.040905" width="1.051" height="1.0818" color-interpolation-filters="sRGB">
   <feGaussianBlur stdDeviation="0.27362693"/>
  </filter>
  <linearGradient id="linearGradient104855" x1="112.79" x2="93.033" y1="36.12" y2="44.524" gradientUnits="userSpaceOnUse" xlink:href="#linearGradient104853"/>
  <linearGradient id="linearGradient105061" x1="110.16" x2="81.036" y1="46.724" y2="58.417" gradientUnits="userSpaceOnUse" xlink:href="#linearGradient104853"/>
  <linearGradient id="linearGradient105563" x1="137.49" x2="24.124" y1="86.815" y2="87.745" gradientUnits="userSpaceOnUse" xlink:href="#linearGradient110076"/>
  <linearGradient id="linearGradient110217" x1="126.53" x2="111.74" y1="65.781" y2="66.401" gradientUnits="userSpaceOnUse" xlink:href="#linearGradient110076"/>
  <linearGradient id="linearGradient110366" x1="92.137" x2="123.04" y1="60.608" y2="60.608" gradientUnits="userSpaceOnUse" xlink:href="#linearGradient110076"/>
  <linearGradient id="linearGradient118594" x1="96.185" x2="103.85" y1="266.9" y2="266.9" gradientUnits="userSpaceOnUse" xlink:href="#linearGradient45671"/>
  <linearGradient id="linearGradient119120" x1="124.49" x2="119.54" y1="266.26" y2="266.58" gradientUnits="userSpaceOnUse" xlink:href="#linearGradient45671"/>
  <clipPath id="clipPath7489">
   <path d="m88.295 135.41v68.8h17.287v-68.8zm3.1207 39.615c0.14807 2.6e-4 0.13586-0.0102 0.11937 0.1819 0.02109 0.0199 0.04025 0.04 0.05581 0.0579 0.02262 7e-3 0.04042 4e-3 0.05064-0.0155 0.0053-0.0253 0.0084-0.0507 0.0088-0.0827-5.29e-4 -7e-3 -0.0011-0.0144-0.0021-0.0222 0.0011 6e-3 0.0021 0.0112 0.0021 0.0139 1.1e-5 3e-3 2.9e-5 5e-3 0 8e-3 0.0031 0.0405-5.29e-4 0.0669-0.0088 0.0827-0.0041 0.0196-0.01 0.0394-0.01707 0.0625 2.38e-4 5.2e-4 7.93e-4 1e-3 0.0011 2e-3h0.50695l0.0011-1e-3c0.44415 0 0.44415 0.43926 0 0.43926h-0.27182c-0.0068 0.0341-0.02032 0.0704-0.03824 0.10903-0.01214 0.0262-0.03341 0.0478-0.05478 0.0672-0.09009 0.0817-0.08946 0.0745-0.17983 0.11059-0.09244 0.0267-0.12316 0.0356-0.14418 0.0419 0.01892-6e-3 0.04002-0.0127 0.04392-0.015-0.0011-5.3e-4 -0.01828 3e-3 -0.04702 9e-3 -7.94e-4 2e-3 -0.0013 5e-3 -0.0021 7e-3 -0.0011 3e-3 -0.0021 7e-3 -0.0031 0.01-0.0011 3e-3 -0.0021 6e-3 -0.0031 0.01 0.03239 0.0442 0.06199 0.0904 0.08785 0.13849 0.0085 0.016-0.01725 0.024-0.03979 0.032-2.65e-4 1.3e-4 -7.94e-4 2.6e-4 -0.0011 5.3e-4 -0.0016 7.9e-4 -0.0033 1e-3 -0.0052 2e-3 -0.0037 1e-3 -0.0072 3e-3 -0.01035 4e-3 -7.94e-4 2.7e-4 -0.0019 8e-4 -0.0026 1e-3 -5.29e-4 2.7e-4 -0.0016 8e-4 -0.0021 1e-3 -0.0031 2e-3 -0.0058 3e-3 -0.0088 5e-3 -2.64e-4 2.4e-4 -7.93e-4 2.6e-4 -0.0011 5.3e-4 -0.02334 0.0201-0.04435 0.0423-0.06666 0.0636-0.0036 4e-3 -0.0072 8e-3 -0.01085 0.0114 0.01373 0.0449 0.02183 0.11112 0.02739 0.21136 5.29e-4 8e-3 -0.0011 0.0158-0.0041 0.0227 0.01971 0.0304 0.03839 0.0612 0.05633 0.0925 0.0074 0.0129-0.0047 0.0206-0.0279 0.0253-0.0016 0.0208-0.05001 0.0227-0.07028 0.0377-0.02447 0.0182-0.04882 0.0435-0.07131 0.0672-0.0029 8e-3 -0.0062 0.0178-0.0098 0.0295 0.01897 7e-3 0.05213 0.0211 0.03773 0.0181-7e-3 -1e-3 -0.01381-3e-3 -0.02066-5e-3 0.04647 0.0265 0.10027 0.0457 0.12609 0.0909 0.09492 0.16621-0.01251 0.24214-0.10956 0.35191-0.01566 0.0177-0.0323 0.0343-0.04961 0.0501 0.0057 2.6e-4 0.01135 7.9e-4 0.01707 1e-3 0.05132 0.37227 0.19987 0.40771-0.02016 0.44131-0.0097 1e-3 -0.01963 1e-3 -0.02945 1e-3 0.0013 2e-3 0.0026 4e-3 0.0031 6e-3 0.01328 0.0504 0.02 0.10233 0.0217 0.15503 0.05346 0.0293 0.10146 0.0697 0.11369 0.12971 8e-3 0.0391 0.01741 0.0798 0.0098 0.11886-0.0086 0.0439-0.03783 0.0814-0.05684 0.12195-0.04009 0.0265-0.07846 0.0561-0.12041 0.0796-0.01188 7e-3 -0.02585 8e-3 -0.03928 0.01-0.02691 4e-3 -0.05396 8e-3 -0.08113 0.0109-0.0075 2.6e-4 -0.01542 1e-3 -0.02273-1e-3 -0.0013-2.6e-4 -0.0024-7.9e-4 -0.0036-1e-3 -0.01908 3e-3 -0.04253 0.0217-0.05736 9e-3 -0.01286-0.0108-0.02495-0.022-0.03669-0.0326-0.02109-6e-3 -0.03502-9e-3 -0.01913-7e-3 0.0048 7.9e-4 0.0097 2e-3 0.01447 3e-3 -0.01254-0.0114-0.02439-0.0225-0.03566-0.0336-0.03296-5.3e-4 -0.06579-5.3e-4 -0.0987-1e-3 0.0074 5e-3 0.01455 0.0108 0.0217 0.0165-0.0038-3e-3 -0.0092-6e-3 -0.01188-7e-3 -0.0058-3e-3 -0.01169-6e-3 -0.01757-9e-3 -0.01421-1e-4 -0.0282-1.3e-4 -0.04238-1e-3 -0.02732-2e-3 -0.05491-5e-3 -0.08217-8e-3 -0.07131-0.0112-0.15243-0.0178-0.19482-0.0977-0.0063-0.012-0.01053-0.0242-0.01344-0.0372-0.0104-4e-3 -0.02066-9e-3 -0.031-0.0129-0.04766-0.0144-0.09346-0.0382-0.12609-0.0677-0.0097-9e-3 -0.01889-0.0179-0.02791-0.0274-0.02297-0.0212-0.04629-0.0466-0.07648-0.0796-0.0088-0.01-0.01778-0.0303-0.02582-0.0532-0.03054-0.0324-0.05546-0.0702-0.08165-0.10594-0.01132-0.0155-0.02376-0.0304-0.0341-0.0465-0.01357-0.0212-0.02516-0.0433-0.03772-0.0651-3e-3 -8e-3 -0.0062-0.0165-0.0093-0.0248-0.01233-0.0129-0.02606-0.0313-0.04961-0.0636-0.01162-0.016-0.03531-0.037-0.02479-0.0537 0.04549-0.0722 0.09426-0.14494 0.15193-0.20825-0.02196 2e-3 -0.04007 4e-3 -0.04547 5e-3 4e-3 -7.9e-4 0.02405-4e-3 0.04909-9e-3 0.02694-0.0292 0.05594-0.0565 0.08733-0.0806 0.0042-3e-3 0.05574 0.0167 0.09405 0.032 0.0021-1e-3 0.0045-2e-3 0.0067-4e-3 -0.07594-0.078-0.15427-0.15399-0.21136-0.24598-0.01278-0.0205 0.03537-0.0332 0.0553-0.047 0.0059-4e-3 0.01196-8e-3 0.0181-0.0114-0.0081-0.0261-0.0145-0.0527-0.01913-0.0796-0.0057-0.0335 0.04992-0.0321 0.09043-0.0388 0.06401-0.0286 0.12362-0.0549 0.18293-0.0832 0.0047-6e-3 0.01389-0.0169 0.02119-0.0258-0.0691-0.0123-0.13683-0.0715-0.20206-0.21601-0.03344-0.0741 0.08298-0.13991 0.12454-0.20981 0.0068-4e-3 0.01339-8e-3 0.02016-0.0119-0.09586-0.0607-0.12691-0.10899-0.11989-0.18603-8e-3 -0.0121-0.01651-0.0238-0.02479-0.0357 0.01389-0.0142 0.02696-0.0297 0.04082-0.0439 0.0056-0.0189 0.01638-0.0362 0.02429-0.0543 0.01905-0.0293 0.03719-0.0589 0.05736-0.0873 0.0026-4e-3 0.0072-0.0104 0.01138-0.0155l5.3e-4 -5.3e-4c0.0021-7e-3 0.0036-0.0116 0.0067-0.0217 0.01244-0.0271 0.02376-0.0545 0.03721-0.0811 0.01175-0.0231 0.02831-0.0433 0.04083-0.0661 0.0159-0.0289 0.02979-0.0603 0.04702-0.0889-0.05716-0.0799-0.0834-0.19197-0.03928-0.25476 0.08574-0.0498 0.11955-0.0773 0.14263-0.0925-0.01016-4e-3 0.01728-0.0141 0.02687-0.0191 0.04023-0.022 0.08163-0.0416 0.12247-0.0625 0.05775-0.0302 0.11936-0.0502 0.18242-0.0651 0.04916-0.0463 0.05539-0.027 0.13074-0.0496 0.0163-5e-3 0.03247-0.0105 0.04858-0.0165 0.02751-0.0104 0.05542-0.02 0.08268-0.031 0.0069-3e-3 0.0079-3e-3 0.01394-6e-3 0.0046-0.074 0.04104-0.0786 0.09095-0.0527 0.0021-8e-4 0.0047-1e-3 0.0067-2e-3 -0.0019 7.9e-4 -0.0034 2e-3 -0.0052 3e-3 0.0049 3e-3 0.0098 6e-3 0.01498 9e-3 9e-3 -3e-3 0.0199-7e-3 0.03049-0.0114-0.0029-2e-3 -0.0048-3e-3 -0.0067-4e-3 -0.0082-4e-3 -0.01667-3e-3 -0.02479 0 0.0016-5.2e-4 0.0033-2e-3 0.0047-2e-3 0.02904-0.0128 0.06847-0.0177 0.09767-0.0227zm-1.3095 2.3828c-0.0013 1e-3 -0.0024 3e-3 -0.0036 4e-3 0.02809-3e-3 0.06418-6e-3 0.10284-7e-3 -5.29e-4 -2e-3 -0.0013-3e-3 -0.0021-5e-3 -0.0041-0.0112 0.0217-9e-3 0.03256-0.0139 7.94e-4 -2.6e-4 0.0013-7.9e-4 0.0021-1e-3 -0.06186 0.0112-0.10371 0.0184-0.13178 0.0232zm0.84388 0.99115c0.0016 1e-3 0.0031 3e-3 0.0047 4e-3 0.02689 7e-3 0.06708 0.0172 0.08682 0.0227 0.0013-1.5e-4 0.0024-2.6e-4 0.0036-5.3e-4 -0.03191-8e-3 -0.06294-0.0196-0.09508-0.0263zm0.34003-1.5389c-0.0061-3e-3 -0.0118-8e-3 -0.01757-0.0114-5.29e-4 2e-3 -0.0011 3e-3 -0.0016 5e-3 0.0063 2e-3 0.0127 4e-3 0.01913 6e-3zm-0.01757-0.0114c1.64e-4 -5.3e-4 2.64e-4 -1e-3 5.29e-4 -2e-3 -0.0024-8e-4 -0.0054-2e-3 -0.0072-3e-3 0.0021 2e-3 0.0046 3e-3 0.0067 4e-3zm0.35295-1.5353h-0.0016c-2.64e-4 7.9e-4 -2.38e-4 2e-3 -5.29e-4 3e-3 -0.0047 0.01-0.0087 0.019-0.01241 0.0274 0.01791-2e-3 0.02138-0.0135 0.01447-0.03zm-0.0016 0c1.72e-4 -5.3e-4 2.65e-4 -1e-3 5.29e-4 -2e-3 -0.0058-0.013-0.01791-0.029-0.03359-0.047-0.01707-5e-3 -0.03688-0.0172-0.05839-0.032-0.0019 0.0241-0.0041 0.0506-0.0057 0.0806h0.0026zm-0.09147-0.0806c7.93e-4 -9e-3 0.0019-0.0176 0.0026-0.0259-0.05439-0.0513-0.11871-0.10347-0.1602-0.13332 7.94e-4 0.0122 0.0013 0.0242 0.0021 0.0357 0.052 0.0408 0.10775 0.0906 0.15555 0.12351zm-0.13333-0.20154c-0.0067-5.3e-4 -0.02746 2e-3 -0.02687 0.01 7.2e-5 7.9e-4 -7.1e-5 2e-3 0 3e-3 0.0109-4e-3 0.01508-6e-3 0.02739-0.0103 0.0021-1e-3 0.0016-2e-3 -5.29e-4 -2e-3zm-0.10904 0.0419c-0.0019 1.7e-4 -0.0205 7e-3 -0.03927 0.0145-0.0024 1e-3 -0.0049 2e-3 -0.0072 3e-3 -0.01162 4e-3 -0.02117 9e-3 -0.02739 0.0114 0.0084-3e-3 0.02604-9e-3 0.05478-0.0196 0 0 5.29e-4 -5.3e-4 5.29e-4 -5.3e-4 7.94e-4 -2.6e-4 0.0024-7.9e-4 0.0031-1e-3 0.0093-4e-3 0.01638-7e-3 0.0155-7e-3zm-0.10077 0.0486c-0.0011 2.4e-4 -0.0026 1e-3 -0.0031 2e-3 -0.0024 3e-3 -0.0045 5e-3 -0.0067 8e-3 0.0037-3e-3 0.0072-6e-3 0.01138-9e-3 5.29e-4 -5.3e-4 -5.29e-4 -8e-4 -0.0016-5.3e-4zm0.03772 2.1875c0.02339 0.0201 0.0208 6e-3 0 0zm0.01241 0.47749c-0.0016 6e-5 -0.0053 5.3e-4 -0.0072 5.3e-4 1.77e-4 1e-3 2.65e-4 2e-3 5.29e-4 3e-3 0.0071-2e-3 0.01132-3e-3 0.01291-4e-3 -0.0011-5e-5 -0.0032-1.3e-4 -0.0062 0zm-0.46716 0.41961c-0.0047 2e-3 -0.0093 5e-3 -0.01394 8e-3 0.0013 4e-3 0.0026 9e-3 0.0041 0.0139 0.0076-4e-3 0.01468-8e-3 0.0217-0.0119-0.0027-4e-3 -0.0048-6e-3 -0.0072-9e-3 -0.0016-6e-5 -0.0031-5.3e-4 -0.0047-5.3e-4z" fill="#f00"/>
  </clipPath>
 </defs>
 <rect width="212.72" height="298.98" fill="#fff"/>
 <rect width="212.72" height="298.98" fill="url(#linearGradient67308)"/>
 <path d="m87.077 204.78c-0.69918 0.57292-0.6899 1.1785-0.5957 2.3652 0.0764 0.9619 0.07159 1.1456 0.86125 1.6464 0.78968 0.50081 1.2356 0.18935 1.9115-0.0688 1.3969-0.53347 1.6928-0.82785 1.3854-2.2012-0.08161-0.3647-0.12659-0.57842-0.23968-0.73988-0.80652-0.88742-1.9395-1.9494-3.3228-1.0017z" fill="#f8dcc4"/>
 <g style="mix-blend-mode:normal">
  <path d="m104.83 51.316c-2.2864 0-4.5728 0.0831-5.856 0.24908-5.8236 0.75329-10.837 2.2573-15.959 4.7878-5.619 2.7758-10.442 6.5078-14.467 11.194-5.4354 6.3287-8.7395 13.748-9.9441 22.329-0.26753 1.906-0.22606 8.2702 0.06667 10.232l0.23048 1.5446-0.27595 0.19275c-1.285 0.8998-1.7325 1.6676-1.6485 2.8288 0.11128 1.5386 1.199 2.6149 2.8422 2.8128 0.4741 0.0571 0.89042 0.13231 0.92501 0.16691 0.03458 0.0346 0.1508 0.68985 0.25838 1.4562 0.61949 4.4131 2.1467 7.7635 5.2069 11.422 4.6272 5.5319 12.614 10.143 21.89 12.64 4.6904 1.2622 11.739 2.2645 15.931 2.2655 1.0355 2.5e-4 1.3388 0.0409 1.3948 0.18655 3.06-0.0392 3.944-0.39522 6.1928-0.44271 0-0.18363 0.50647-0.14978 2.7369-0.45182 9.1926-1.2448 17.103-4.4563 23.563-8.98 1.7078-1.196 2.5013-1.8147 4.0848-3.3409 2.7474-2.648 4.4586-5.0824 5.7177-8.1378l0.6952-1.2922 0.84176-0.18115c1.4959-0.32193 2.0076-0.73826 2.2557-2.0415 0.21092-1.108-0.38728-2.5114-1.5274-2.853-0.29071-0.0871-0.54716-0.0848-0.61166-0.16257-0.0732-0.0882 0.15002-0.93163 0.38463-1.7673 0.48156-1.7154 0.94219-3.9067 1.233-5.8648 0.29163-1.9635 0.33251-8.3308 0.0656-10.232-1.2046-8.581-4.5087-16-9.9441-22.329-1.2987-1.5121-3.8972-4.094-5.256-5.2224-7.0618-5.8645-15.624-9.5248-25.17-10.76-1.2832-0.16598-3.57-0.24908-5.8565-0.24908zm-14.417 18.366c3.1089 0.12262 7.1806 0.98922 10.462 2.558 2.7509 1.3152 4.4481 2.8318 6.6404 4.9542 2.1958 2.1259 3.7892 4.2789 5.0989 6.8895 4.5653 9.0997 3.4067 19.887-2.9859 27.8-0.92041 1.1393-3.1267 3.3026-4.2189 4.1367-3.8152 2.9139-8.3229 5.0994-13.058 5.6152-1.4323 0.1558-4.159 0.0707-5.5733-0.0884-4.5751-0.51438-9.3735-2.4861-13.117-5.3449-1.0921-0.83413-3.3977-3.0966-4.3181-4.2359-7.6584-9.48-7.5592-23.152 0.09922-32.632 0.9204-1.1393 3.3086-3.5672 4.4008-4.4013 4.8764-3.7245 12.468-5.4557 16.569-5.2514zm40.31 22.365c2.1462 0.22999 2.2028 0.30306 3.2592 0.70073 1.4803 0.55723 3.762 1.5666 4.8865 2.419 3.0527 2.3138 5.1496 5.7528 5.7345 9.4041 0.25043 1.5632 0.10394 4.5155-0.30025 6.0529-1.4351 5.4586-6.0895 9.7546-11.612 10.718-1.381 0.24047-3.8916 0.23603-5.2524-0.01-2.8307-0.51141-5.4485-1.2181-7.647-3.345-1.9161-1.8536-3.5132-4.0724-4.3016-6.6792-0.33109-1.0948-0.41519-1.691-0.42019-4.1846-5e-3 -2.3591 0.0903-3.1424 0.35456-4.1205 0.35969-1.3315 1.5858-3.9905 2.3692-5.0883 1.98-2.7748 5.2476-4.5185 8.645-5.4491 2.2115-0.46609 1.6301-0.48704 4.2846-0.41773z" fill="#f8dcc4"/>
  <path d="m91.448 174.61c-0.54579 0-1.0908-0.015-1.4373 0.47973-0.11309 0.16146-0.34512 0.61608-0.42672 0.98078-0.30735 1.3734 0.19936 2.1106 1.5962 2.644 0.67596 0.25815 0.90669 0.13672 1.6964-0.3641 0.78966-0.50079 0.85938-0.52267 0.93578-1.4846 0.09425-1.1867 0.03179-1.4453-0.66739-2.0182-0.74054-0.3212-1.1136 0.13273-1.6969-0.23766z" fill="#f8dcc4"/>
  <circle cx="207.48" cy="171.56" r=".017048" fill="#333" stroke="#000" stroke-width=".26458"/>
  <circle cx="207.48" cy="171.56" r=".017048" fill="#333" stroke="#000" stroke-width=".26458"/>
 </g>
 <path transform="rotate(90)" d="m125.4-117.94a2.1047 2.6894 0 0 1-1.6506 1.1182 2.1047 2.6894 0 0 1-1.6964-0.99994" fill="none" stroke="#000" stroke-linecap="round" stroke-linejoin="round" stroke-width=".5" style="paint-order:normal"/>
 <rect x="110.29" y="123.67" width="6.4546" height=".093544" fill="none" stroke="#000" stroke-linecap="round" stroke-linejoin="round" stroke-width=".5" style="paint-order:normal"/>
 <ellipse cx="89.399" cy="95.555" rx="25.847" ry="26.204" fill="#fff"/>
 <ellipse cx="130.14" cy="106.97" rx="14.916" ry="15.071" fill="#fff"/>
 <path d="m129.05 117.99c-0.17697-0.0314-0.66927-0.11871-1.094-0.19395-1.0061-0.17825-2.741-0.91303-3.8081-1.6128-1.0916-0.71587-2.6407-2.34-3.3122-3.4725-3.7682-6.3552-0.43118-14.456 6.7341-16.347 1.2384-0.32691 4.1568-0.33478 5.3257-0.0144 2.5188 0.69048 4.4426 1.9369 6.0039 3.89 2.8072 3.5115 3.134 8.4351 0.82474 12.426-0.6125 1.0586-1.9694 2.5334-3.022 3.2845-1.0163 0.72522-2.693 1.5073-3.8295 1.7864-0.86007 0.21115-3.1914 0.36594-3.8228 0.25382zm-41.186-3.4055c-2.3446-0.28748-4.1852-0.80572-6.1345-1.7273-4.966-2.3477-8.7428-6.8419-10.128-12.052-0.50649-1.9052-0.64845-3.0014-0.64845-5.0071 0-1.0264 0.0735-2.3006 0.16335-2.8315 1.0671-6.306 4.7277-11.274 10.428-14.151 1.195-0.60322 3.6229-1.3803 5.097-1.6314 1.6908-0.28799 4.6029-0.29038 6.2727-5e-3 7.2353 1.2359 13.22 6.6404 15.074 13.612 0.50649 1.9052 0.64845 3.0014 0.64845 5.0071 0 5.164-1.8572 9.6502-5.518 13.329-2.8382 2.8523-6.3008 4.641-10.228 5.2836-1.4576 0.2385-3.8276 0.32019-5.0261 0.17323z" fill="#c5682b"/>
 <path d="m128.73 116.32c-0.49552-0.10938-1.3932-0.43496-1.9949-0.7235-1.5418-0.73934-3.0804-2.2759-3.8412-3.8359-0.781-1.6015-0.96222-2.463-0.89269-4.244 0.0936-2.3977 0.81202-4.0526 2.4858-5.7264 1.6746-1.6746 3.3285-2.3922 5.7292-2.4859 1.7459-0.0682 2.9202 0.18902 4.4283 0.9698 1.3876 0.71841 2.9717 2.3527 3.6486 3.7642 2.2926 4.7806 0.0115 10.288-4.9726 12.006-1.3758 0.47421-3.1961 0.58354-4.5906 0.27571zm-41.572-4.4446c-4.7422-0.68336-9.0365-3.8237-11.132-8.1405-2.0624-4.2485-2.0624-8.7873 0-13.036 4.4889-9.2469 17.015-11.11 24.05-3.5769 5.5812 5.9763 5.2684 15.316-0.69957 20.889-3.271 3.0548-7.8298 4.4965-12.218 3.8641z" fill-opacity=".99763" opacity=".59939"/>
 <path d="m129.05 117.99c-0.17697-0.0314-0.66927-0.11871-1.094-0.19395-1.0061-0.17825-2.741-0.91303-3.8081-1.6128-1.0916-0.71587-2.6407-2.34-3.3122-3.4725-3.7682-6.3552-0.43118-14.456 6.7341-16.347 1.2384-0.32691 4.1568-0.33478 5.3257-0.0144 2.5188 0.69048 4.4426 1.9369 6.0039 3.89 2.8072 3.5115 3.134 8.4351 0.82474 12.426-0.6125 1.0586-1.9694 2.5334-3.022 3.2845-1.0163 0.72522-2.693 1.5073-3.8295 1.7864-0.86007 0.21115-3.1914 0.36594-3.8228 0.25382zm-41.186-3.4055c-2.3446-0.28748-4.1852-0.80572-6.1345-1.7273-4.966-2.3477-8.7428-6.8419-10.128-12.052-0.50649-1.9052-0.64845-3.0014-0.64845-5.0071 0-1.0264 0.0735-2.3006 0.16335-2.8315 1.0671-6.306 4.7277-11.274 10.428-14.151 1.195-0.60322 3.6229-1.3803 5.097-1.6314 1.6908-0.28799 4.6029-0.29038 6.2727-5e-3 7.2353 1.2359 13.22 6.6404 15.074 13.612 0.50649 1.9052 0.64845 3.0013 0.64845 5.0071 0 5.164-1.8572 9.6502-5.518 13.329-2.8382 2.8523-6.3008 4.641-10.228 5.2836-1.4576 0.2385-3.8276 0.32019-5.0261 0.17323z" fill="url(#linearGradient45629-8-4)"/>
 <path d="m87.689 112.93c-3.1213-0.44443-6.1026-1.6953-8.5741-3.5974-1.0663-0.82068-2.8775-2.7801-3.6617-3.9616-0.77-1.16-1.6559-2.9464-2.1493-4.3341-0.69675-1.9597-0.16346-4.3083 1.3009-5.7288 0.59823-0.58034 1.8276-1.1552 2.6735-1.2501 2.3752-0.26651 4.7652 1.6899 5.246 4.2941 0.0844 0.45706 0.20677 1.1256 0.27199 1.4856 0.27765 1.5326 1.6924 3.5814 3.0038 4.3499 1.3905 0.81489 2.855 1.1255 4.3958 0.93228 1.3098-0.16423 1.8686-0.37155 2.941-1.091 1.2158-0.81573 1.6544-1.349 3.5122-4.2704 0.461-0.72493 1.4223-1.6344 2.0753-1.9635 3.4829-1.7551 7.3196 1.1947 6.6383 5.1039-0.27381 1.5712-1.7527 3.74-3.8637 5.6661-2.1834 1.9921-5.1209 3.4853-8.0806 4.1075-1.41 0.29643-4.4855 0.43472-5.7293 0.25761zm-0.12063-8.6641c-2.0496-0.73116-3.4618-2.3726-4.0982-4.7631-0.32514-1.2215-0.29849-3.237 0.0599-4.5314 0.7843-2.8325 2.6972-5.0401 5.1077-5.8944 0.70147-0.24861 1.0622-0.29591 2.0645-0.27076 1.0612 0.0266 1.3242 0.0818 2.0823 0.43686 2.7392 1.2828 4.241 4.6447 3.6639 8.2016-0.30247 1.8642-1.5313 4.1629-2.844 5.3202-0.36569 0.32239-1.1472 0.8266-1.7367 1.1205-1.017 0.50695-1.138 0.53622-2.3652 0.5717-0.99152 0.0287-1.4429-0.016-1.9343-0.19123zm9.2067-13.03c-0.83938-0.35185-1.433-0.90097-1.8151-1.679-0.49738-1.0129-0.5006-2.316-8e-3 -3.3829 0.4729-1.025 1.4561-2.0252 2.4342-2.4762 0.67905-0.31315 0.9546-0.36672 1.8822-0.36592 1.2193 1e-3 1.8068 0.22626 2.5629 0.98232 1.0295 1.0295 1.2698 2.7919 0.58411 4.2844-0.43745 0.95217-1.5612 2.0837-2.4672 2.4844-0.83934 0.37118-2.4653 0.44958-3.1728 0.153zm-7.1606-3.3503c-1.9137-0.86938-2.511-3.8965-1.2826-6.5 0.77993-1.6529 2.0082-2.5862 3.4107-2.5917 1.0576-4e-3 1.8147 0.53061 2.399 1.6944 1.2388 2.4673 0.10118 6.2102-2.2215 7.309-0.81947 0.38767-1.5823 0.41689-2.3057 0.0883z" fill="#fff" fill-opacity=".99763"/>
 <path d="m132.48 116.71c2.1108-0.44318 3.9956-1.5014 5.4521-3.0609 1.227-1.3138 1.6323-2.0941 1.636-3.1496 2e-3 -0.59717-0.0715-0.97299-0.26171-1.3356-0.56919-1.085-1.8344-1.6696-2.9612-1.3683-0.86273 0.23074-1.3418 0.64908-2.1928 1.9147-0.78353 1.1653-1.5015 1.9031-2.2126 2.2738-0.62375 0.32517-2.2131 0.38947-3.0181 0.12211-1.3045-0.43329-2.3523-1.7647-2.5957-3.2984-0.34417-2.1685-1.859-3.3675-3.611-2.8582-1.302 0.37851-2.1024 1.6692-1.9765 3.1874 0.0768 0.926 1.1418 3.0855 2.043 4.1427 1.3031 1.5286 3.2706 2.7838 5.1554 3.289 1.0671 0.28606 3.4941 0.36156 4.543 0.14134zm-1.1119-4.9956c1.0764-0.40937 2.0307-1.363 2.6233-2.6213 0.29262-0.62139 0.33152-0.86672 0.33453-2.1095 3e-3 -1.2493-0.0335-1.4849-0.32684-2.1103-0.64505-1.375-1.6994-2.099-3.0577-2.0996-2.335-1e-3 -4.235 2.2319-4.235 4.977 0 1.6658 0.64564 2.9515 1.8589 3.7016 0.49903 0.30852 0.7842 0.38943 1.4658 0.41588 0.51049 0.0198 1.041-0.0412 1.3369-0.15377zm4.4954-7.4716c1.9425-0.47121 2.8941-2.7564 1.6843-4.0448-1.451-1.5452-4.2386-0.16719-4.2186 2.0854 0.012 1.3582 1.2064 2.2816 2.5344 1.9594zm-3.8696-2.2469c1.4076-0.95649 1.7753-3.4414 0.6809-4.6018-0.35129-0.37247-0.51039-0.44665-0.95791-0.44665-0.29517 0-0.66233 0.0644-0.81592 0.14318-1.7098 0.87672-2.1844 3.8516-0.78946 4.9488 0.49424 0.38877 1.2726 0.37075 1.8824-0.0436z" fill="#fff" fill-opacity=".99763"/>
 <path d="m111.62 135.18s14.05 20.935 14.102 31.602c-0.26639 14.182-20.941 10.93-31.628 10.131" fill="none" stroke="#000" stroke-width=".865"/>
 <g fill-opacity=".99763">
  <path d="m93.81 178.34c-0.62808 0.68407-1.3272 0.93091-2.3422 0.82694-0.86735-0.0888-1.3448-0.34922-1.7414-0.94965-0.74752-1.1318-0.73855-1.8196 0.0386-2.9574 0.91703-1.3425 3.1819-1.3156 4.1208 0.0489 0.24361 0.35408 0.42748 0.80836 0.46619 1.1518 0.0403 0.35795 5.1e-4 0.56052-0.0123 0.71985-0.0163 0.20329-0.0538 0.64134-0.52961 1.1595zm-3.5117-0.65138c0.28796 0.52195 0.7404 0.74544 1.509 0.74544 0.77469 0 1.2204-0.22317 1.5238-0.76296 0.35397-0.62979 0.35261-1.193-4e-3 -1.8283-0.22809-0.40584-0.40159-0.53799-0.90094-0.68629-0.53798-0.15975-0.70078-0.1592-1.2514 4e-3 -0.56921 0.16904-0.66642 0.25518-0.96569 0.85572-0.35541 0.71322-0.34637 0.88183 0.0896 1.672z"/>
  <path d="m105.32 135.6c0-0.1579-0.19434-0.19509-1.0194-0.19509-2.7616 0-7.6008-0.50136-11.336-1.1745-13.605-2.4516-24.641-8.9681-29.528-17.437-1.329-2.3028-2.0879-4.5222-2.5248-7.3836-0.14563-0.95359-0.33435-1.778-0.41938-1.8321-0.085-0.0541-0.36452-0.0992-0.62107-0.10025-1.1305-5e-3 -2.239-0.69567-2.7449-1.7109-0.75445-1.514-0.20525-3.0303 1.4381-3.9705 0.60604-0.34674 0.86326-0.41745 1.5093-0.4149 0.85858 3e-3 1.9454 0.39621 2.3462 0.84804 0.23 0.25926 0.22836 0.26292-0.0873 0.19439-0.17697-0.0384-0.66927-0.19776-1.094-0.3541-1.7337-0.6382-3.5822 0.18601-3.9961 1.7818-0.48396 1.8657 1.0858 3.4576 3.2883 3.3347l0.57917-0.0323 0.0843 1.3594c0.49494 7.9809 6.8355 15.61 17.162 20.649 5.6601 2.7623 12.37 4.6166 19.563 5.4066 2.5766 0.28299 8.9404 0.39558 11.656 0.20623 13.264-0.92475 24.949-5.4822 32.324-12.607 2.7776-2.6835 4.5416-5.2986 5.7737-8.5594l0.43011-1.1383 0.48888 0.0782c0.70274 0.11238 1.5531-0.143 2.1352-0.64121 0.64962-0.55605 0.844-1.0383 0.77141-1.9137-0.14185-1.7104-1.9766-2.6074-3.835-1.8749-0.78576 0.30971-0.99259 0.32987-0.78207 0.0762 0.20975-0.25274 1.011-0.61853 1.5885-0.72513 0.35335-0.0652 0.69716-0.0125 1.2692 0.19462 1.4365 0.52013 2.043 1.2638 2.043 2.505 0 0.85527-0.23263 1.3916-0.83171 1.9176-0.57778 0.5073-0.92986 0.65303-1.8605 0.77006l-0.7004 0.0881-0.48383 1.1941c-0.61838 1.5261-1.818 3.6345-2.9089 5.1125-1.218 1.6503-4.1659 4.5424-6.1064 5.9908-6.7488 5.0376-15.421 8.2896-25.502 9.5631-0.76502 0.0966-1.4433 0.22809-1.2903 1.6514 0 0 0.69216 23.103 2.9977 50.592 2.3056 27.489 4.4152 50.467 4.4593 51.705 0.0442 1.2388-0.0476 8.4421-0.20385 16.007-0.24097 11.666-0.25726 13.782-0.10729 13.932 0.20719 0.20719 3.0601 0.62722 5.7495 0.84649 1.2956 0.10563 1.9053 0.20758 2.0386 0.34087 0.16775 0.16775 0.16579 0.20381-0.0166 0.3059-0.39281 0.21983-2.0158 0.2664-3.5839 0.10282-1.5433-0.16098-3.9884-0.80709-4.5043-1.1903-0.22548-0.16747-0.51904-2.4652-2.8574-22.365-0.76965-6.55-0.80826-6.95-0.9067-9.3955-0.0385-0.95563-0.12428-2.5773-0.19068-3.6037s-0.50038-7.9476-0.96439-15.38c-0.46401-7.4327-0.87393-13.651-0.91093-13.818-0.0575-0.25953-0.11764-0.28973-0.41528-0.20864-0.59548 0.16222-5.4911 0.22162-6.0288 0.0731-0.37131-0.10251-0.52774-0.0969-0.63704 0.0228-0.0982 0.10758-0.32037 4.7008-0.6894 14.252-0.80442 20.821-0.78051 20.421-1.6755 27.993-2.5342 21.44-2.7044 22.777-2.9203 22.937-0.11578 0.086-0.75511 0.33787-1.4207 0.55962-1.8384 0.61246-5.0555 0.93672-6.3207 0.63709l-7e-5 2e-5c-0.54243-0.12847-0.59439-0.18685-0.36789-0.41335 0.12673-0.12674 0.76593-0.23222 2.0332-0.33555 2.6743-0.21805 5.5425-0.63947 5.7475-0.84448 0.14731-0.14731 0.1291-2.4673-0.1156-14.735-0.24474-12.27-0.26577-14.951-0.13363-17.039 0.0862-1.3631 1.6025-24.471 3.3695-51.351s1.6414-48.894 1.6414-49.144m23.194-14.595c-0.10618-0.0257-0.62743-0.11705-1.1583-0.20298-2.2203-0.35935-4.6187-1.4106-6.5736-2.8812-3.9178-2.9474-6.1682-7.4745-6.1682-12.409 0-0.93371-0.0453-1.4434-0.12143-1.3667-0.0668 0.0673-0.50447 0.89936-0.97264 1.8491-1.4378 2.9168-3.4041 5.5958-5.6276 7.6672-10.35 9.6423-26.145 9.6423-36.494 0-2.2749-2.1194-4.243-4.8225-5.6908-7.8161-1.0485-2.168-1.6806-4.0092-2.1206-6.1768-1.1581-5.7057-0.45472-11.573 2.0008-16.689 1.4721-3.0668 2.9533-5.1727 5.2629-7.4823 10.414-10.414 27.176-10.414 37.59 0 2.3096 2.3096 3.7908 4.4155 5.2629 7.4823 1.9529 4.0685 2.834 8.7728 2.4743 13.211-0.0846 1.0441-0.18815 2.0287-0.2301 2.188-0.15078 0.57247 0.20715 0.27701 0.71236-0.58803 0.77775-1.3317 1.5569-2.3086 2.7711-3.4742 2.9217-2.8049 6.5946-4.2714 10.698-4.2714 8.5897 0 15.506 6.9379 15.503 15.55-3e-3 6.26-3.7982 11.885-9.6588 14.314-1.7167 0.71149-3.3174 1.035-5.3992 1.0913-1.0264 0.0277-1.9531 0.0294-2.0593 4e-3zm5.3034-1.2665c2.3913-0.63206 4.5354-1.8436 6.3562-3.5916 3.0902-2.9667 4.5573-6.3765 4.5573-10.592 0-2.6621-0.43113-4.4634-1.6186-6.7626-2.0521-3.9732-5.7649-6.7594-10.203-7.6568-1.5055-0.3044-5.0577-0.2054-6.4591 0.18002-5.22 1.4356-9.1355 5.3639-10.581 10.616-0.25709 0.93381-0.28828 1.3401-0.28319 3.6879 5e-3 2.4972 0.0246 2.7005 0.35744 3.7968 0.40251 1.3256 1.2762 3.2163 1.9809 4.2868 0.68977 1.0478 2.7334 3.1176 3.8128 3.8615 1.6993 1.1712 3.4931 1.9482 5.4261 2.3503 1.7424 0.36246 4.9372 0.27795 6.6548-0.17603zm-41.368 0.1598c4.7611-0.51748 9.6127-2.5504 13.412-5.62 1.1393-0.9204 3.3028-3.1267 4.1369-4.2188 1.0789-1.4126 2.0397-2.993 2.8716-4.7233 1.8558-3.8602 2.635-7.6347 2.4776-12.002-0.20036-5.5609-2.0504-10.572-5.5615-15.065-0.9084-1.1623-3.2134-3.4437-4.3751-4.3304-7.8562-5.9962-18.287-7.0781-26.982-2.7987-2.7108 1.3341-4.5241 2.6137-6.7224 4.7438-4.8177 4.6683-7.5239 10.75-7.7653 17.45-0.15736 4.3675 0.62183 8.1421 2.4776 12.002 1.3314 2.7695 2.6333 4.6402 4.7523 6.829 2.1655 2.2368 4.2716 3.785 7.0411 5.1761 2.5024 1.2569 5.7682 2.2447 8.4074 2.5429 1.4693 0.16601 4.3671 0.17305 5.829 0.0142z"/>
  <path d="m88.085 204.21c-1.6238 0.3264-2.5394 2.3982-1.6659 3.7693 0.74035 1.1621 1.3692 1.4409 2.7038 1.1988 0.70801-0.12842 1.1352-0.46498 1.5581-1.2275 0.49484-0.89226 0.4768-2.3279-0.31912-2.9441-0.64573-0.49993-1.2472-0.56171-1.3871-1.1699 0 0-0.62868-0.1433-0.64146-0.0142-0.02989 0.30243-0.16211 0.37021-0.24834 0.38755zm-0.93449 3.4975c-0.27304-0.3502-0.32592-0.5642-0.26627-1.0778 0.20445-1.7606 2.1031-2.3507 3.1545-0.98042 0.37693 0.49126 0.40679 0.98883 0.10206 1.7011-0.34218 0.79977-0.6915 1.0584-1.4923 1.1049-0.78711 0.0457-0.93803-0.0296-1.4979-0.74781z"/>
 </g>
 <g stroke="#000">
  <path d="m105.31 135.6c-15.203 21.389-15.278 47.765-16.684 68.585" clip-path="url(#clipPath7489)" fill="none" stroke-width=".665"/>
  <g stroke-width=".565">
   <path d="m67.482 121.95s-7.0247-7.077-6.348-14.759c-3.8647 1.0197-4.0806-2.3632-4.1212-3.0672 0.25092-1.3716 1.8873-2.467 1.8873-2.467s2.0606-20.96 8.1891-28.864c4.3551-5.6162 8.1348-7.4917 18.417-10.743 14.893-2.8998 46.212 4.7885 46.212 4.7885 4.8482 3.4141 8.6154 8.1268 11.084 13.628 3.9396 8.7799 4.8234 27.406 4.8234 27.406s3.7874-0.86084 3.9464 2.3386c0.12591 2.5332-3.1573 2.7718-3.1573 2.7718-1.7917 4.2649-4.4786 8.1643-8.0059 10.986 0 0 8.594-5.722 11.677-10.139 4.1483-5.9433 3.0056-24.633 1.6519-31.753-0.21411-1.1262 1.8574-0.12854 1.6598-1.1479-2.0455-10.553-5.8648-17.809-14.882-25.068-1.8813-1.5143 3.675-0.88092 2.3454-1.7693-3.2965-2.2028-12.747-4.7168-18.371-6.3993-7.9885-2.3897-19.831-3.2763-29.645-1.9533-6.8725 0.92646-19.608 1.7308-26.041 5.2662-1.5808 0.86871 4.1764 1.4827 2.5888 2.7079-7.0584 5.4475-16.122 14.12-18.564 22.378-0.32154 1.0873 3.8389 0.0855 3.5922 1.2333-2.2009 10.244-3.4312 21.246 0.65773 31.425 2.6454 6.5852 10.405 13.2 10.405 13.2z" fill="url(#linearGradient105563)" stroke-linecap="round" stroke-linejoin="round"/>
   <path d="m121.44 49.915-6.6792-19.001c-0.51083 4.7016 1.1708 11.23-1.5325 14.105l8.2118 4.8965" fill="#3c200d"/>
   <path d="m121.46 49.915c-7.9199-6.0314-12.121-14.094-20.543-16.408 3.1064 5.0629 2.851 9.8334 4.2765 14.75l16.266 1.6583" fill="url(#linearGradient104855)"/>
   <path d="m121.46 49.915c-10.03-2.6431-20.865-7.2594-30.091-7.9293 5.1162 4.4214 4.9704 10.889 7.4557 16.334l22.635-8.4044" fill="url(#linearGradient105061)"/>
  </g>
  <path d="m92.448 61.388c-0.86217 7.3007 18.055 12.665 18.055 12.665-0.3739-15.171 17.05-17.737 10.958-24.138-7.1694-7.5338-27.794 1.1457-29.013 11.474z" fill="url(#linearGradient110366)" stroke-width=".565"/>
  <path d="m121.46 49.915s2.4535 2.8201 9.7929 15.932c2.4918 4.4516 1.6809 16.516 1.6809 16.516-4.4136-0.3678-17.962-11.774-18.709-19.291-0.49528-4.9806 7.2357-13.157 7.2357-13.157" fill="url(#linearGradient110217)" stroke-width=".565"/>
 </g>
 <path d="m90.434 46.612 2.2738 6.3045-7.2022 9.1295 6.9427-0.65773c0.7396-3.3195 4.5852-11.134 18.808-14.161 0 0-5.5063-0.36997-8.184 0.15379-2.3917 0.4678-6.8228 2.6269-6.8228 2.6269l-1.5783-4.0164-4.0308 0.20671z" filter="url(#filter103773)" opacity=".27829" style="mix-blend-mode:normal"/>
 <path d="m96.561 191.56 0.68665 77.846s1.7834 0.3591 2.3388 0.34809c0.55542-0.011 3.1314-0.24974 3.1314-0.24974l2.7237-27.026 3.8179-37.92 7.5374 64.304s2.8155 0.26078 3.3468 0.25888c0.53133-2e-3 2.7867-0.27028 2.7867-0.27028l-1.938-77.627s-2.7333 0.32189-11.776 0.43419c-10.731 0.13326-12.655-0.0987-12.655-0.0987z" fill="#007fff" stroke="#000" stroke-width=".565"/>
 <path d="m96.561 191.56 0.68665 77.846s1.6555 0.13986 2.2109 0.12885c0.55543-0.011 3.1318-0.23149 3.1318-0.23149 1.4844-12.703 2.2453-23.481 3.7297-35.248l2.9394-29.497 7.5374 64.304s2.8155 0.26076 3.3468 0.25886c0.53133-2e-3 2.7867-0.27026 2.7867-0.27026l-1.938-77.627s-2.7333 0.32189-11.776 0.43419c-10.731 0.13326-12.655-0.0987-12.655-0.0987z" fill="url(#linearGradient45093)"/>
 <g fill="none" stroke="#000">
  <g stroke-width=".26458px">
   <path d="m103.91 192.75s0.22989 5.2894-7.3734 3.1969"/>
   <path d="m113.62 192.56s-0.22989 5.2894 7.3734 3.1969"/>
   <path d="m108.15 191.64c0.01 9.218-0.11002 8.4107 0.98477 8.8178l-0.10335-8.6816"/>
  </g>
  <path d="m109.13 200.46 0.12916 4.1083" stroke-width=".265"/>
  <path d="m96.609 192.57 11.343 0.10336h0.12919" stroke-width=".26458px"/>
  <path d="m109.11 192.6 11.834-0.41341" stroke-width=".26458px"/>
 </g>
 <path d="m108.73 204.03-3.3748 0.69482 2.7388 0.64597-0.0387 7.8677 1.2038-8.6794 0.93432 6.186-0.3036-5.6586 3.1652-0.93017z" filter="url(#filter48371)" opacity=".2899" stroke="#000" stroke-width=".26458px"/>
 <path d="m96.185 269.61 0.26138-5.7307 7.3891 0.0947c0.0825 1.4605-0.21693 5.2289-0.76322 5.6858-2.4429 0.55442-4.7157 0.1156-6.8873-0.0498z" fill="#6f9fd0" stroke="#000" stroke-linecap="round" stroke-linejoin="round" stroke-width=".565"/>
 <path d="m96.185 269.61 0.26138-5.7307 7.3891 0.0947c0.0825 1.4605-0.21693 5.2289-0.76322 5.6858-2.4429 0.55442-4.7157 0.1156-6.8873-0.0498z" fill="url(#linearGradient118594)" opacity=".42671"/>
 <path d="m123.31 268.93-0.26138-5.7307-7.3891 0.0947c-0.0825 1.4605 0.21693 5.2289 0.76323 5.6858 2.4429 0.55442 4.7157 0.1156 6.8872-0.0498z" fill="#6f9fd0" stroke="#000" stroke-linecap="round" stroke-linejoin="round" stroke-width=".565"/>
 <path d="m123.31 268.93-0.26138-5.7307-7.3891 0.0947c-0.0825 1.4605 0.21693 5.2289 0.76323 5.6858 2.4429 0.55442 4.7157 0.1156 6.8872-0.0498z" fill="url(#linearGradient119120)" opacity=".42671"/>
 <path d="m96.006 191.49 0.99069-27.591c1.1592-17.777 0.0558 1.8562 0 0-0.0181-0.60255-6.7329-1.0115-6.71-1.5449 0.54492-12.671 11.667-23.884 15.137-26.73l6.2665 2e-3c4.8798 3.2354 10.844 10.42 15.94 26.273 0.15223 0.47352-6.8831 2.539-6.8904 2.005-0.21561-15.716-0.0593-2.1109-0.0411-0.0835l0.25002 27.836c-8.8964-0.15313-18.081 0.22014-24.943-0.16633z" fill="#004c31" fill-opacity=".99763" stroke="#000" stroke-width=".724"/>
 <path d="m96.006 191.49 0.99069-27.591c1.1592-17.777 0.0558 1.8562 0 0-0.0181-0.60255-6.7329-1.0115-6.7099-1.5449 0.54492-12.671 11.667-23.884 15.137-26.73l6.2665 2e-3c4.8798 3.2354 10.844 10.42 15.94 26.273 0.15223 0.47352-6.8831 2.539-6.8904 2.005-0.21561-15.716-0.0593-2.1109-0.0411-0.0835l0.25002 27.836c-8.8964-0.15313-18.081 0.22014-24.943-0.16633z" fill="url(#linearGradient82654)" opacity=".38838"/>
 <path d="m115.36 138.71-17.722 5.5177 7.4943-8.7853 6.5588 0.1847z" fill-opacity=".99763" filter="url(#filter83355)" opacity=".3792"/>
</svg>
