<?xml version="1.0" encoding="UTF-8" standalone="no"?>
<svg
   width="210mm"
   height="297mm"
   viewBox="0 0 210 297"
   version="1.1"
   id="svg5"
   sodipodi:docname="Peep.svg"
   inkscape:version="1.1 (c68e22c387, 2021-05-23)"
   inkscape:export-xdpi="96"
   inkscape:export-ydpi="96"
   xmlns:inkscape="http://www.inkscape.org/namespaces/inkscape"
   xmlns:sodipodi="http://sodipodi.sourceforge.net/DTD/sodipodi-0.dtd"
   xmlns:xlink="http://www.w3.org/1999/xlink"
   xmlns="http://www.w3.org/2000/svg"
   xmlns:svg="http://www.w3.org/2000/svg">
  <sodipodi:namedview
     id="namedview7"
     pagecolor="#ffffff"
     bordercolor="#666666"
     borderopacity="1.0"
     inkscape:pageshadow="2"
     inkscape:pageopacity="0.0"
     inkscape:pagecheckerboard="0"
     inkscape:document-units="mm"
     showgrid="false"
     inkscape:zoom="2"
     inkscape:cx="396.25"
     inkscape:cy="428.75"
     inkscape:window-width="1920"
     inkscape:window-height="1001"
     inkscape:window-x="-9"
     inkscape:window-y="-9"
     inkscape:window-maximized="1"
     inkscape:current-layer="layer4"
     inkscape:snap-grids="true"
     showguides="false" />
<defs>

  <linearGradient id="linearGradient67308" x1="62.442" x2="177.27" y1="143.4" y2="52.388" gradientUnits="userSpaceOnUse">
   <stop stop-color="#0ff" offset="0"/>
   <stop stop-color="#d0a1ff" stop-opacity="0" offset="1"/>
  </linearGradient>
 
  <linearGradient id="linearGradient45629-8-4" x1="123.66" x2="114.77" y1="91.869" y2="114.29" gradientUnits="userSpaceOnUse">
   <stop offset="0"/>
   <stop stop-opacity="0" offset="1"/>
  </linearGradient>
 
  <filter id="filter7744-7-4" x="-.005966" y="-.0015003" width="1.0119" height="1.003" color-interpolation-filters="sRGB">
   <feGaussianBlur stdDeviation="0.0057284191"/>
  </filter>
  <filter id="filter7744-7-0" x="-.013761" y="-.0044589" width="1.0275" height="1.0089" color-interpolation-filters="sRGB">
   <feGaussianBlur stdDeviation="0.01594037"/>
  </filter>
  <filter id="filter7744-7-4-9" x="-.0056329" y="-.0010333" width="1.0113" height="1.0021" color-interpolation-filters="sRGB">
   <feGaussianBlur stdDeviation="0.0057284191"/>
  </filter>
  <filter id="filter1317" x="-.010595" y="-.02" width="1.0168" height="1.0423" color-interpolation-filters="sRGB">
   <feGaussianBlur stdDeviation="0.086061471"/>
  </filter>
  <linearGradient id="linearGradient3198" x1="52.914" x2="158.63" y1="87.424" y2="87.424" gradientUnits="userSpaceOnUse">
   <stop stop-opacity=".21862" offset="0"/>
   <stop stop-color="#402412" stop-opacity="0" offset="1"/>
  </linearGradient>
  <filter id="filter5344" x="-.013328" y="-.0071202" width="1.0267" height="1.0142" color-interpolation-filters="sRGB">
   <feGaussianBlur stdDeviation="0.055828515"/>
  </filter>
  <filter id="filter5367" x="-.0094804" y="-.017249" width="1.019" height="1.0345" color-interpolation-filters="sRGB">
   <feGaussianBlur stdDeviation="0.083717166"/>
  </filter>
 
  <linearGradient id="linearGradient45091">
   <stop offset="0"/>
   <stop stop-opacity="0" offset=".53219"/>
   <stop stop-opacity=".40486" offset="1"/>
  </linearGradient>
  <linearGradient id="linearGradient45093" x1="85.011" x2="132.3" y1="230.01" y2="230.38" gradientUnits="userSpaceOnUse" xlink:href="#linearGradient45091"/>
  <filter id="filter48371" x="-.16325" y="-.10672" width="1.328" height="1.2045" color-interpolation-filters="sRGB">
   <feGaussianBlur stdDeviation="0.44435843"/>
  </filter>
  <linearGradient id="linearGradient49510" x1="48.345" x2="73.787" y1="158.74" y2="158.74" gradientTransform="translate(16.851 -.25549)" gradientUnits="userSpaceOnUse" xlink:href="#linearGradient45091"/>
  <filter id="filter50702" x="-.052043" y="-.16795" width="1.1041" height="1.3359" color-interpolation-filters="sRGB">
   <feGaussianBlur stdDeviation="0.28572222"/>
  </filter>
  <linearGradient id="linearGradient50786" x1="53.241" x2="68.013" y1="158.74" y2="158.67" gradientTransform="translate(16.851 -.25549)" gradientUnits="userSpaceOnUse">
   <stop offset="0"/>
   <stop stop-opacity="0" offset=".48512"/>
   <stop stop-opacity="0" offset=".71785"/>
   <stop offset="1"/>
  </linearGradient>
  <filter id="filter51069" x="-.14923" y="-2.558" width="1.2928" height="6.132" color-interpolation-filters="sRGB">
   <feGaussianBlur stdDeviation="0.20956735"/>
  </filter>
  <filter id="filter83355" x="-.077859" y="-.08446" width="1.1557" height="1.1689" color-interpolation-filters="sRGB">
   <feGaussianBlur stdDeviation="0.23823084"/>
  </filter>
 
  <filter id="filter65283" x="-.031523" y="-.012859" width="1.063" height="1.0257" color-interpolation-filters="sRGB">
   <feGaussianBlur stdDeviation="0.37262907"/>
  </filter>
  <filter id="filter66415" x="-.071001" y="-.0076277" width="1.142" height="1.0153" color-interpolation-filters="sRGB">
   <feGaussianBlur stdDeviation="0.2201878"/>
  </filter>
  <filter id="filter66628" x="-.032866" y="-.0086994" width="1.0657" height="1.0174" color-interpolation-filters="sRGB">
   <feGaussianBlur stdDeviation="0.14670313"/>
  </filter>
 </defs>
<g id="Background">
 <g>
  <rect width="212.72" height="298.98" fill="#fff"/>
  <rect width="212.72" height="298.98" fill="url(#linearGradient67308)"/>
 </g>

</g><g id="Skin">
 <g style="mix-blend-mode:normal">
  <path transform="scale(.26458)" d="m396.2 193.95c-8.6417 0-17.283 0.31408-22.133 0.94141-22.011 2.8471-40.957 8.5314-60.318 18.096-21.237 10.491-39.465 24.596-54.678 42.309-20.543 23.919-33.031 51.961-37.584 84.393-1.0111 7.204-0.85442 31.258 0.25196 38.672l0.87109 5.8379-1.043 0.72851c-4.8569 3.4008-6.548 6.3027-6.2305 10.691 0.42059 5.815 4.5315 9.8832 10.742 10.631 1.7919 0.21574 3.3654 0.50009 3.4961 0.63086 0.1307 0.13066 0.56997 2.6073 0.97657 5.5039 2.3414 16.68 8.1134 29.342 19.68 43.17 17.489 20.908 47.675 38.337 82.732 47.771 17.727 4.7705 44.368 8.5588 60.213 8.5625 3.9137 9.5e-4 5.0602 0.15452 5.2715 0.70508 11.565-0.14831 14.907-1.4937 23.406-1.6732 0-0.69407 1.9142-0.56612 10.344-1.7077 34.744-4.7049 64.643-16.843 89.057-33.94 6.4548-4.5204 9.4537-6.8588 15.438-12.627 10.384-10.008 16.851-19.209 21.61-30.757l2.6275-4.8838 3.1814-0.68466c5.6539-1.2168 7.5878-2.7903 8.5254-7.7158 0.79718-4.1878-1.4637-9.4919-5.773-10.783-1.0988-0.3292-2.068-0.32037-2.3118-0.61442-0.27659-0.33324 0.567-3.5211 1.4537-6.6796 1.8201-6.4833 3.561-14.765 4.6602-22.166 1.1022-7.4209 1.2567-31.486 0.24805-38.672-4.5527-32.432-17.041-60.473-37.584-84.393-4.9084-5.715-14.73-15.473-19.865-19.738-26.69-22.165-59.051-35.999-95.131-40.666-4.8497-0.62733-13.493-0.94141-22.135-0.94141zm-73.223 576.28c0.27209 1.0693-5e-3 1.519-1.8887 3.0625-2.6426 2.1654-2.6075 4.4541-2.2515 8.9394 0.28876 3.6355 0.27059 4.3299 3.2551 6.2226 2.9846 1.8928 4.6699 0.71567 7.2247-0.26005 5.2796-2.0163 6.3979-3.1289 5.2363-8.3196-0.30844-1.3784-0.47845-2.1861-0.90588-2.7964-1.3098-1.87-3.68-4.7034-5.7428-4.7034-2.6921-0.0802-3.1249 0.12911-4.9273-2.1452zm169.89-1.3078c-2.0628 0-4.1227 1.2616-5.4325 3.1316-0.42743 0.61024-1.3044 2.3285-1.6128 3.7069-1.1616 5.1907 0.75349 7.9769 6.033 9.9932 2.5548 0.97568 3.4268 0.51673 6.4115-1.3761 2.9845-1.8928 3.248-1.9755 3.5368-5.611 0.35622-4.4852 0.12016-5.4625-2.5224-7.6279-2.7989-1.214-4.2088-0.81674-6.4136-2.2166z" fill="#cb9661"/>
 </g>

</g><g id="Head">
 <g>
  <path d="m104.32 135.44c-2.7616 0-7.6008-0.50136-11.336-1.1745-13.605-2.4516-24.641-8.9681-29.528-17.437-1.329-2.3028-2.0879-4.5222-2.5248-7.3836-0.14563-0.95359-0.33435-1.778-0.41938-1.8321-0.085-0.0541-0.36452-0.0992-0.62107-0.10025-1.1305-5e-3 -2.239-0.69567-2.7449-1.7109-0.75445-1.514-0.20525-3.0303 1.4381-3.9705 0.60604-0.34674 0.86326-0.41745 1.5093-0.4149 0.85858 3e-3 1.9454 0.39621 2.3462 0.84804 0.23 0.25926 0.22836 0.26292-0.0873 0.19439-0.17697-0.0384-0.66927-0.19776-1.094-0.3541-1.7337-0.6382-3.5822 0.18601-3.9961 1.7818-0.48396 1.8657 1.0858 3.4576 3.2883 3.3347l0.57917-0.0323 0.0843 1.3594c0.49494 7.9809 6.8355 15.61 17.162 20.649 5.6601 2.7623 12.37 4.6166 19.563 5.4066 2.5766 0.28299 8.9404 0.39558 11.656 0.20623 13.264-0.92475 24.949-5.4822 32.324-12.607 2.7776-2.6835 4.5416-5.2986 5.7737-8.5594l0.43011-1.1383 0.48888 0.0782c0.70274 0.11238 1.5531-0.143 2.1352-0.64121 0.64962-0.55605 0.844-1.0383 0.77141-1.9137-0.14185-1.7104-1.9766-2.6074-3.835-1.8749-0.78576 0.30971-0.99259 0.32987-0.78207 0.0762 0.20975-0.25274 1.011-0.61853 1.5885-0.72513 0.35335-0.0652 0.69716-0.0125 1.2692 0.19462 1.4365 0.52013 2.043 1.2638 2.043 2.505 0 0.85527-0.23263 1.3916-0.83171 1.9176-0.57778 0.5073-0.92986 0.65303-1.8605 0.77006l-0.7004 0.0881-0.48383 1.1941c-0.61838 1.5261-1.818 3.6345-2.9089 5.1125-1.218 1.6503-4.1659 4.5424-6.1064 5.9908-6.7488 5.0376-15.421 8.2896-25.502 9.5631-0.76502 0.0966-1.4082 0.2164-2.092 0.31549" fill-opacity=".99763"/>
 </g>

</g><g id="Eye Colour">
 <ellipse cx="89.796" cy="95.736" rx="26.327" ry="26.27" fill="#fff"/>
 <ellipse cx="129.96" cy="106.81" rx="15.043" ry="15.119" fill="#fff"/>
 <path d="m129.05 117.99c-0.17697-0.0314-0.66927-0.11871-1.094-0.19395-1.0061-0.17825-2.741-0.91303-3.8081-1.6128-1.0916-0.71587-2.6407-2.34-3.3122-3.4725-3.7682-6.3552-0.43118-14.456 6.7341-16.347 1.2384-0.32691 4.1568-0.33478 5.3257-0.0144 2.5188 0.69048 4.4426 1.9369 6.0039 3.89 2.8072 3.5115 3.134 8.4351 0.82474 12.426-0.6125 1.0586-1.9694 2.5334-3.022 3.2845-1.0163 0.72522-2.693 1.5073-3.8295 1.7864-0.86007 0.21115-3.1914 0.36594-3.8228 0.25382zm-41.186-3.4055c-2.3446-0.28748-4.1852-0.80572-6.1345-1.7273-4.966-2.3477-8.7428-6.8419-10.128-12.052-0.50649-1.9052-0.64845-3.0014-0.64845-5.0071 0-1.0264 0.0735-2.3006 0.16335-2.8315 1.0671-6.306 4.7277-11.274 10.428-14.151 1.195-0.60322 3.6229-1.3803 5.097-1.6314 1.6908-0.28799 4.6029-0.29038 6.2727-5e-3 7.2353 1.2359 13.22 6.6404 15.074 13.612 0.50649 1.9052 0.64845 3.0014 0.64845 5.0071 0 5.164-1.8572 9.6502-5.518 13.329-2.8382 2.8523-6.3008 4.641-10.228 5.2836-1.4576 0.2385-3.8276 0.32019-5.0261 0.17323z" fill="#a05a2c"/>
 <path d="m128.73 116.32c-0.49552-0.10938-1.3932-0.43496-1.9949-0.7235-1.5418-0.73934-3.0804-2.2759-3.8412-3.8359-0.781-1.6015-0.96222-2.463-0.89269-4.244 0.0936-2.3977 0.81202-4.0526 2.4858-5.7264 1.6746-1.6746 3.3285-2.3922 5.7292-2.4859 1.7459-0.0682 2.9202 0.18902 4.4283 0.9698 1.3876 0.71841 2.9717 2.3527 3.6486 3.7642 2.2926 4.7806 0.0115 10.288-4.9726 12.006-1.3758 0.47421-3.1961 0.58354-4.5906 0.27571zm-41.572-4.4446c-4.7422-0.68336-9.0365-3.8237-11.132-8.1405-2.0624-4.2485-2.0624-8.7873 0-13.036 4.4889-9.2469 17.015-11.11 24.05-3.5769 5.5812 5.9763 5.2684 15.316-0.69957 20.889-3.271 3.0548-7.8298 4.4965-12.218 3.8641z" fill-opacity=".99763" opacity=".59939"/>

</g><g id="Eye Style">
 <path d="m129.01 117.92c-0.17697-0.0314-0.66927-0.11871-1.094-0.19395-1.0061-0.17825-2.741-0.91303-3.8081-1.6128-1.0916-0.71587-2.6407-2.34-3.3122-3.4725-3.7682-6.3552-0.43118-14.456 6.7341-16.347 1.2384-0.32691 4.1568-0.33478 5.3257-0.0144 2.5188 0.69048 4.4426 1.9369 6.0039 3.89 2.8072 3.5115 3.134 8.4351 0.82474 12.426-0.6125 1.0586-1.9694 2.5334-3.022 3.2845-1.0163 0.72522-2.693 1.5073-3.8295 1.7864-0.86007 0.21115-3.1914 0.36594-3.8228 0.25382zm-41.186-3.4055c-2.3446-0.28748-4.1852-0.80572-6.1345-1.7273-4.966-2.3477-8.7428-6.8419-10.128-12.052-0.50649-1.9052-0.64845-3.0013-0.64845-5.0071 0-1.0264 0.0735-2.3006 0.16335-2.8315 1.0671-6.306 4.7277-11.274 10.428-14.151 1.195-0.60322 3.6229-1.3803 5.097-1.6314 1.6908-0.28799 4.6029-0.29038 6.2727-5e-3 7.2353 1.2359 13.22 6.6404 15.074 13.612 0.50649 1.9052 0.64845 3.0013 0.64845 5.0071 0 5.164-1.8572 9.6502-5.518 13.329-2.8382 2.8523-6.3008 4.641-10.228 5.2836-1.4576 0.2385-3.8276 0.32019-5.0261 0.17323z" fill="url(#linearGradient45629-8-4)"/>
 <path d="m87.689 112.93c-3.1213-0.44443-6.1026-1.6953-8.5741-3.5974-1.0663-0.82068-2.8775-2.7801-3.6617-3.9616-0.77-1.16-1.6559-2.9464-2.1493-4.3341-0.69675-1.9597-0.16346-4.3083 1.3009-5.7288 0.59823-0.58034 1.8276-1.1552 2.6735-1.2501 2.3752-0.26651 4.7652 1.6899 5.246 4.2941 0.0844 0.45706 0.20677 1.1256 0.27199 1.4856 0.27765 1.5326 1.6924 3.5814 3.0038 4.3499 1.3905 0.81489 2.855 1.1255 4.3958 0.93228 1.3098-0.16423 1.8686-0.37155 2.941-1.091 1.2158-0.81573 1.6544-1.349 3.5122-4.2704 0.461-0.72493 1.4223-1.6344 2.0753-1.9635 3.4829-1.7551 7.3196 1.1947 6.6383 5.1039-0.27381 1.5712-1.7527 3.74-3.8637 5.6661-2.1834 1.9921-5.1209 3.4853-8.0806 4.1075-1.41 0.29643-4.4855 0.43472-5.7293 0.25761zm-0.12063-8.6641c-2.0496-0.73116-3.4618-2.3726-4.0982-4.7631-0.32514-1.2215-0.29849-3.237 0.0599-4.5314 0.7843-2.8325 2.6972-5.0401 5.1077-5.8944 0.70147-0.24861 1.0622-0.29591 2.0645-0.27076 1.0612 0.0266 1.3242 0.0818 2.0823 0.43686 2.7392 1.2828 4.241 4.6447 3.6639 8.2016-0.30247 1.8642-1.5313 4.1629-2.844 5.3202-0.36569 0.32239-1.1472 0.8266-1.7367 1.1205-1.017 0.50695-1.138 0.53622-2.3652 0.5717-0.99152 0.0287-1.4429-0.016-1.9343-0.19123zm9.2067-13.03c-0.83938-0.35185-1.433-0.90097-1.8151-1.679-0.49738-1.0129-0.5006-2.316-8e-3 -3.3829 0.4729-1.025 1.4561-2.0252 2.4342-2.4762 0.67905-0.31315 0.9546-0.36672 1.8822-0.36592 1.2193 1e-3 1.8068 0.22626 2.5629 0.98232 1.0295 1.0295 1.2698 2.7919 0.58411 4.2844-0.43745 0.95217-1.5612 2.0837-2.4672 2.4844-0.83934 0.37118-2.4653 0.44958-3.1728 0.153zm-7.1606-3.3503c-1.9137-0.86938-2.511-3.8965-1.2826-6.5 0.77993-1.6529 2.0082-2.5862 3.4107-2.5917 1.0576-4e-3 1.8147 0.53061 2.399 1.6944 1.2388 2.4673 0.10118 6.2102-2.2215 7.309-0.81947 0.38767-1.5823 0.41689-2.3057 0.0883z" fill="#fff" fill-opacity=".99763"/>
 <path d="m132.48 116.71c2.1108-0.44318 3.9956-1.5014 5.4521-3.0609 1.227-1.3138 1.6323-2.0941 1.636-3.1496 2e-3 -0.59717-0.0715-0.97299-0.26171-1.3356-0.56919-1.085-1.8344-1.6696-2.9612-1.3683-0.86273 0.23074-1.3418 0.64908-2.1928 1.9147-0.78353 1.1653-1.5015 1.9031-2.2126 2.2738-0.62375 0.32517-2.2131 0.38947-3.0181 0.12211-1.3045-0.43329-2.3523-1.7647-2.5957-3.2984-0.34417-2.1685-1.859-3.3675-3.611-2.8582-1.302 0.37851-2.1024 1.6692-1.9765 3.1874 0.0768 0.926 1.1418 3.0855 2.043 4.1427 1.3031 1.5286 3.2706 2.7838 5.1554 3.289 1.0671 0.28606 3.4941 0.36156 4.543 0.14134zm-1.1119-4.9956c1.0764-0.40937 2.0307-1.363 2.6233-2.6213 0.29262-0.62139 0.33152-0.86672 0.33453-2.1095 3e-3 -1.2493-0.0335-1.4849-0.32684-2.1103-0.64505-1.375-1.6994-2.099-3.0577-2.0996-2.335-1e-3 -4.235 2.2319-4.235 4.977 0 1.6658 0.64564 2.9515 1.8589 3.7016 0.49903 0.30852 0.7842 0.38943 1.4658 0.41588 0.51049 0.0198 1.041-0.0412 1.3369-0.15377zm4.4954-7.4716c1.9425-0.47121 2.8941-2.7564 1.6843-4.0448-1.451-1.5452-4.2386-0.16719-4.2186 2.0854 0.012 1.3582 1.2064 2.2816 2.5344 1.9594zm-3.8696-2.2469c1.4076-0.95649 1.7753-3.4414 0.6809-4.6018-0.35129-0.37247-0.51039-0.44665-0.95791-0.44665-0.29517 0-0.66233 0.0644-0.81592 0.14318-1.7098 0.87672-2.1844 3.8516-0.78946 4.9488 0.49424 0.38877 1.2726 0.37075 1.8824-0.0436z" fill="#fff" fill-opacity=".99763"/>

</g><g id="Eye Outline">
 <g>
  <path d="m128.38 122.38c-0.10618-0.0257-0.62743-0.11705-1.1583-0.20298-2.2203-0.35935-4.6187-1.4106-6.5736-2.8812-3.9178-2.9474-6.1682-7.4745-6.1682-12.409 0-0.93371-0.0453-1.4434-0.12143-1.3667-0.0668 0.0673-0.50447 0.89936-0.97265 1.8491-1.4378 2.9168-3.4041 5.5958-5.6275 7.6672-10.35 9.6423-26.145 9.6423-36.494 0-2.2749-2.1194-4.243-4.8225-5.6908-7.8161-1.0485-2.168-1.6806-4.0092-2.1206-6.1768-1.1581-5.7057-0.45472-11.573 2.0008-16.689 1.4721-3.0668 2.9533-5.1727 5.2629-7.4823 10.414-10.414 27.176-10.414 37.59 0 2.3096 2.3096 3.7908 4.4155 5.2629 7.4823 1.9529 4.0685 2.834 8.7728 2.4743 13.211-0.0846 1.0441-0.18815 2.0287-0.2301 2.188-0.15078 0.57247 0.20715 0.27701 0.71236-0.58803 0.77775-1.3317 1.5569-2.3085 2.7711-3.4742 2.9217-2.8049 6.5946-4.2714 10.698-4.2714 8.5897 0 15.506 6.9379 15.503 15.55-3e-3 6.26-3.7982 11.885-9.6588 14.314-1.7167 0.71149-3.3174 1.035-5.3992 1.0913-1.0264 0.0277-1.9531 0.0294-2.0593 4e-3zm5.3034-1.2665c2.3913-0.63206 4.5354-1.8436 6.3562-3.5916 3.0902-2.9667 4.5573-6.3765 4.5573-10.592 0-2.6621-0.43113-4.4634-1.6186-6.7626-2.0521-3.9732-5.7649-6.7594-10.203-7.6568-1.5055-0.3044-5.0577-0.2054-6.4591 0.18002-5.22 1.4356-9.1355 5.3639-10.581 10.616-0.25709 0.93381-0.28828 1.3401-0.28319 3.6879 5e-3 2.4972 0.0246 2.7005 0.35744 3.7968 0.40251 1.3256 1.2762 3.2163 1.9809 4.2868 0.68977 1.0478 2.7334 3.1176 3.8128 3.8615 1.6993 1.1712 3.4931 1.9482 5.4261 2.3503 1.7424 0.36246 4.9372 0.27795 6.6548-0.17603zm-41.368 0.1598c4.7611-0.51748 9.6127-2.5504 13.412-5.62 1.1393-0.9204 3.3028-3.1267 4.1369-4.2188 1.0789-1.4126 2.0397-2.993 2.8716-4.7233 1.8558-3.8602 2.635-7.6347 2.4776-12.002-0.20035-5.5609-2.0504-10.572-5.5615-15.065-0.9084-1.1623-3.2134-3.4437-4.3751-4.3304-7.8562-5.9962-18.287-7.0781-26.982-2.7987-2.7108 1.3341-4.5241 2.6137-6.7224 4.7438-4.8177 4.6683-7.5239 10.75-7.7653 17.45-0.15736 4.3675 0.62183 8.1421 2.4776 12.002 1.3314 2.7695 2.6333 4.6402 4.7523 6.829 2.1655 2.2368 4.2716 3.785 7.0411 5.1761 2.5024 1.2569 5.7682 2.2447 8.4074 2.5429 1.4693 0.16601 4.3671 0.17305 5.829 0.0142z" fill-opacity=".99763"/>
 </g>

</g><g id="Hair">
 <g stroke="#000" stroke-width=".565">
  <g fill="#371F0F">
   <path d="m106.55 47.333v0s-1.7234 4.1219-1.7183 6.2979c8e-3 3.3913 2.7244 9.8025 2.7244 9.8025 12.25 37.115 36.754 19.203 41.804 44.119 1.4693 0.51044 2.4036 1.2018 2.2797 2.7708-0.12388 1.569-1.2056 2.3623-3.2232 2.6548-2.6707 7.2329-8.5218 11.379-13.344 14.683 11.217-2.9955 23.886-14.518 23.548-32.279s-6.7037-28.232-17.198-36.777c-19.648-15.998-50.234-14.548-70.005-0.44731-11.652 8.3102-19.125 21.091-18.461 38.765 0.66398 17.674 6.1638 24.533 18.483 28.357-8.5328-5.844-10.751-14.635-10.304-18.093-1.5096 0.69274-4.0482-0.53218-4.2482-2.4119 0.02262-3.3689 3.2257-3.8847 5.8208-2.249-3.3256-10.939-1.6753-37.731 38.563-37.505 4.0241 0.02268 6.2839-1.5875 6.2839-1.5875" stroke-linecap="round" stroke-linejoin="round" style="mix-blend-mode:normal"/>
   <path d="m106.55 47.333s-12.981 4.4874-17.568 0.83639c-3.7111-2.954-4.6443-9.7582-2.5285-14.003 1.088-2.1828 4.1452-3.7983 6.5321-3.2967 6.9585 1.4623 13.564 16.464 13.564 16.464z"/>
   <path d="m91.406 37.852c-2.1473-3.1953-3.6975-7.9344-1.9777-11.379 1.4079-2.8197 5.2875-4.6587 8.419-4.303 6.0694 0.68927 12.542 5.8627 14.032 11.787 1.1709 4.6551-5.332 13.377-5.332 13.377s-11.819-4.5392-15.141-9.4817z"/>
   <path d="m93.442 24.265c1.6888-4.1982 8.49-4.0518 13.012-3.8721 4.409 0.17524 9.6579 1.273 12.348 4.7708 2.6198 3.4065 3.197 8.9105 1.4032 12.816-2.3033 5.0143-13.657 9.3544-13.657 9.3544s-16.406-14.864-13.105-23.069z"/>
   <path d="m106.55 47.333s2.3518-16.228 8.7693-18.818c3.2306-1.3035 7.4192 1.1701 9.7524 3.757 2.3152 2.567 4.479 7.0378 2.7128 10.009-3.7175 6.2543-21.235 5.0514-21.235 5.0514z"/>
   <path d="m106.55 47.333s4.8559-7.2293 8.7032-8.5406c3.9607-1.3499 9.7261-1.6738 12.464 1.4902 1.7234 1.9913 1.7244 6.0978-0.19762 7.898-5.1058 4.7823-20.97-0.84767-20.97-0.84767z"/>
  </g>
  <g fill="none">
   <path d="m107.55 63.434s-0.81422 13.946 10.845 20.996c2.6816 1.6214 6.4216 4.8965 6.8542 6.981" stroke-linecap="round"/>
   <path d="m61.134 107.19c-0.55186 16.553 7.9446 25.82-1.0583 30.692-1.7227 0.93222-4.7377-1.1055-5.0271-3.0427-0.33225-2.2238 1.6493-5.5081 4.4979-5.0271 5.9521 1.0051 10.481 6.5515 6.4823 11.774-4.249 5.5497-4.7865 4.3357-6.35 9.2604-0.86435 2.7226 1.4552 10.054 1.4552 10.054"/>
   <path d="m148.41 112.98c-4.8737 17.489-8.9123 25.668 0 30.692 1.7064 0.96177 4.7376-1.1055 5.0271-3.0427 0.33226-2.2238-1.6493-5.5081-4.4979-5.0271-5.9521 1.0051-10.481 6.5515-6.4823 11.774 4.249 5.5497 4.7865 4.3357 6.35 9.2604 0.86435 2.7226-1.4552 10.054-1.4552 10.054"/>
  </g>
 </g>
 <path d="m106.55 47.334v0s-1.7234 4.1219-1.7183 6.2979c8e-3 3.3913 2.7244 9.8025 2.7244 9.8025 12.25 37.115 36.754 19.203 41.804 44.119 1.4693 0.51044 2.4036 1.2018 2.2797 2.7708-0.12388 1.569-1.2056 2.3623-3.2232 2.6548-2.6707 7.2329-8.5218 11.379-13.344 14.683 11.217-2.9955 23.886-14.518 23.548-32.279s-6.7037-28.232-17.198-36.777c-5.0335-4.0984-11.354-7.0388-16.336-8.9134 4.275 1.4628 4.9963-8.3882 3.1397-9.6585 0.81617-1.198-3.4818-11.271-8.1073-11.648 1.6434-5.3809-15.419-12.736-25.414-5.4393-4.8043-1.2077-7.0805 7.4008-6.1 8.6839-1.8574-1.7637-7.1778 14.475 2.3264 17.556-5.969 1.8929-13.381 4.5974-19.514 8.9715-11.652 8.3102-19.125 21.091-18.461 38.765 0.66398 17.674 6.1638 24.533 18.483 28.357-8.5328-5.844-10.751-14.635-10.304-18.093-1.5096 0.69274-4.0482-0.53218-4.2482-2.4119 0.02262-3.3689 3.2257-3.8847 5.8208-2.249-3.3256-10.939-1.6753-37.731 38.563-37.505 4.0241 0.02268 6.2839-1.5875 6.2839-1.5875" fill="url(#linearGradient3198)" stroke-linecap="round" stroke-linejoin="round" style="mix-blend-mode:normal"/>
 <g>
  <path d="m106.55 47.333s-12.981 4.4874-17.568 0.83639c-3.7111-2.954-4.6443-9.7582-2.5285-14.003 0.20524 4.4673 5.3659 4.4869 7.5537 6.2888 5.556 4.685 12.542 6.8785 12.542 6.8785z" opacity=".16"/>
  <path d="m91.406 37.852c-2.1473-3.1953-3.6975-7.9344-1.9777-11.379-1.176 5.0164 4.1346 8.9231 9.1464 12.102 3.5941 4.3351 7.9726 8.7592 7.9726 8.7592s-11.819-4.5392-15.141-9.4817z" opacity=".16"/>
  <path d="m93.442 24.265c1.6888-4.1982 8.49-4.0518 13.012-3.8721-7.4783 5.5703-4.6707 6.5917-2.5569 8.7942 2.6152 2.7249 5.9471 5.9836 5.9471 5.9836-0.93873 2.3714-3.2961 12.163-3.2961 12.163s-16.406-14.864-13.105-23.069z" opacity=".16"/>
 </g>
 <path d="m106.55 47.333s2.3518-16.228 8.7693-18.818c2.3693 1.095-1.8319 7.3356 1.2834 9.8799-6.4585 1.9132-10.053 8.9375-10.053 8.9375z" filter="url(#filter5344)" opacity=".16"/>
 <path d="m106.55 47.333s4.8559-7.2293 8.7032-8.5406c3.9607-1.3499-1.3382 1.6181 1.3996 4.7821 1.7234 1.9913 12.789 2.8059 10.867 4.6061-5.1058 4.7823-20.97-0.84767-20.97-0.84767z" filter="url(#filter5367)" opacity=".16"/>
 <g fill="none">
  <path d="m107.55 63.434s-0.81422 13.946 10.845 20.996c2.6816 1.6214 6.4216 4.8965 6.8542 6.981" stroke-linecap="round"/>
  <path d="m61.134 107.19c-0.55186 16.553 7.9446 25.82-1.0583 30.692-1.7227 0.93222-4.7377-1.1055-5.0271-3.0427-0.33225-2.2238 1.6493-5.5081 4.4979-5.0271 5.9521 1.0051 10.481 6.5515 6.4823 11.774-4.249 5.5497-4.7865 4.3357-6.35 9.2604-0.86435 2.7226 1.4552 10.054 1.4552 10.054"/>
  <path d="m148.41 112.98c-4.8737 17.489-8.9123 25.668 0 30.692 1.7064 0.96177 4.7376-1.1055 5.0271-3.0427 0.33226-2.2238-1.6493-5.5081-4.4979-5.0271-5.9521 1.0051-10.481 6.5515-6.4823 11.774 4.249 5.5497 4.7865 4.3357 6.35 9.2604 0.86435 2.7226-1.4552 10.054-1.4552 10.054"/>
 </g>
 <path transform="matrix(-12.018 0 0 5.4713 1850.7 -839.86)" d="m141.57 173.16c-0.50056-6.6003 1.1084-7.9791 2.0777-9.1634-0.83796 0.47718-3.006 2.6972-2.0777 9.1634z" color="#000000" filter="url(#filter7744-7-4)" opacity=".23127" style="-inkscape-stroke:none;mix-blend-mode:normal"/>
 <path transform="matrix(12.018 0 0 5.4713 -1640.3 -840.23)" d="m140.92 170.18c-0.29963 4.4424 0.80619 5.7762 1.5071 6.2879-0.84315-1.8253-0.86959-1.7095-1.018-3.2382-0.19136-0.29763-0.30015-0.61997-0.0659-1.0858-0.10314-4.1883 0.9495-7.2452 1.9671-8.9815-1.1616 0.98894-2.207 2.9358-2.3904 7.0176z" color="#000000" filter="url(#filter7744-7-4-9)" opacity=".14007" style="-inkscape-stroke:none;mix-blend-mode:normal"/>
 <path transform="matrix(6.691 0 0 -2.1507 -827.26 443.72)" d="m141.01 173.21c0.55069-2.8958 0.64244-2.796 1.0897-3.8329 0.50774-1.1773 1.4497-2.3497 1.6904-4.747-0.72214 3.5085-2.6454 4.0825-2.7801 8.5799z" color="#000000" filter="url(#filter7744-7-0)" opacity=".23127" style="-inkscape-stroke:none;mix-blend-mode:normal"/>
 <path d="m120.88 50.658s-11.956 3.2089-13.127 12.869l-2.5358 0.90806c-1.9854-8.2621-17.107-4.148-23.17-11.953l2.909-1.4023 5.8193-1.8104 4.7201 0.38795 11.047-2.3237z" filter="url(#filter1317)" opacity=".14332" stroke="#000" stroke-width=".26458px" style="mix-blend-mode:normal"/>

</g><g id="Expression">
 <g fill="none" stroke="#000" stroke-linecap="round" stroke-linejoin="round">
  <path d="m113.97 123.38a3.0941 4.3202 0 0 1-2.4264 1.7962 3.0941 4.3202 0 0 1-2.4938-1.6063" stroke-width=".63971" style="paint-order:normal"/>
  <path d="m118.91 123.19a3.1048 4.2978 0 0 1-2.4348 1.7869 3.1048 4.2978 0 0 1-2.5024-1.5979" stroke-width=".6" style="paint-order:normal"/>
 </g>

</g><g id="Pose">
 <path d="m93.014 270.84c-0.54243-0.12847-0.59439-0.18685-0.36789-0.41335 0.12673-0.12674 0.76593-0.23222 2.0332-0.33555 2.6743-0.21805 5.5425-0.63947 5.7475-0.84448 0.1473-0.14731 0.1291-2.4673-0.1156-14.735-0.24474-12.27-0.26577-14.951-0.13364-17.039 0.0862-1.3631 1.6025-24.471 3.3695-51.351s3.2127-49.077 3.2127-49.326c0-0.72652-0.37063-0.58428-1.1962 0.45908-0.49341 0.62361-1.373 2.1812-2.78 4.923-1.132 2.2059-2.2412 4.4162-2.4649 4.9117-0.22369 0.49551-0.77741 1.6828-1.2305 2.6384-0.45308 0.95564-0.82359 1.7818-0.82337 1.8359 2.6e-4 0.0541-0.41414 1.0097-0.92082 2.1236-1.3716 3.0153-2.8954 6.5962-3.5181 8.2675-0.30332 0.81406-0.90034 2.3489-1.3267 3.4107-0.42638 1.0618-1.0488 2.7414-1.3831 3.7324s-0.77 2.2444-0.96817 2.7851c-1.1018 3.0067-3.1481 10.673-3.6517 13.68-0.1177 0.70291-0.23613 1.3138-0.26317 1.3576-0.36925 0.59745-1.0219 8.4559-0.9302 11.2 0.0644 1.9269 0.48989 5.2043 0.73516 5.6626 0.0754 0.14092 0.32871 0.24687 0.68665 0.2872 0.34347 0.0387 0.79776 0.22259 1.1518 0.4662 1.3645 0.93881 1.3914 3.2037 0.0489 4.1208-1.1378 0.77718-1.8256 0.78616-2.9574 0.0386-0.60042-0.39657-0.86081-0.87404-0.94965-1.7414-0.10397-1.015 0.14287-1.7141 0.82694-2.3422 0.51825-0.47584 0.57489-0.58053 0.49154-0.90852-0.29442-1.1586-0.60633-3.7241-0.67099-5.5189-0.0552-1.5315-3e-3 -2.9333 0.20393-5.47 0.24067-2.9515 0.56135-5.5383 0.718-5.7917 0.0261-0.0422 0.14015-0.62416 0.25348-1.2932 0.88038-5.1974 3.5621-14.301 6.029-20.467 0.46929-1.173 1.0625-2.7337 1.3181-3.4683 0.25569-0.73457 0.60008-1.6024 0.76533-1.9285 0.16524-0.32609 0.67505-1.4875 1.1329-2.5809 0.45786-1.0934 1.1631-2.712 1.5672-3.5968 0.40408-0.88485 0.90234-2.0286 1.1072-2.5416 0.20491-0.513 0.63566-1.4566 0.95723-2.0969s0.70311-1.4658 0.84788-1.8344c0.25778-0.65647 3.8645-7.7478 5.1349-10.096 0.35365-0.65367 0.643-1.2763 0.643-1.3836 0-0.1579-0.19434-0.19509-1.0194-0.19509l0.0179-0.70739c1.7755 0.15344 3.5326 0.18527 5.2569 0.0774 0.7158-0.0499 1.427-0.11039 2.1332-0.18129l0.17271 0.50403c-0.0694 0.0694 0.13953 0.58361 0.51729 1.2733 1.1729 2.1414 4.7405 9.1304 5.0058 9.8069 0.14464 0.36865 0.52607 1.1941 0.84764 1.8344s0.75232 1.5839 0.95723 2.0969c0.2049 0.513 0.70316 1.6567 1.1072 2.5416 0.40407 0.88485 1.1093 2.5034 1.5672 3.5968 0.45787 1.0934 0.96768 2.2548 1.1329 2.5809 0.16525 0.32609 0.50964 1.1939 0.76533 1.9285 0.25568 0.73457 0.84885 2.2953 1.3181 3.4683 2.4669 6.1659 5.1486 15.27 6.029 20.467 0.11333 0.66908 0.2274 1.251 0.25348 1.2932 0.15665 0.25348 0.47733 2.8402 0.718 5.7917 0.20683 2.5366 0.25909 3.9384 0.20392 5.47-0.0647 1.7948-0.37656 4.3604-0.67098 5.5189-0.0834 0.328-0.0267 0.43269 0.49154 0.90852 0.68407 0.62808 0.93091 1.3272 0.82694 2.3422-0.0888 0.86735-0.34923 1.3448-0.94965 1.7414-1.1318 0.74753-1.8196 0.73855-2.9574-0.0386-1.3425-0.91703-1.3156-3.1819 0.0489-4.1208 0.35407-0.24361 0.80836-0.42748 1.1518-0.46619 0.35794-0.0403 0.61123-0.14629 0.68665-0.28721 0.24527-0.45831 0.67076-3.7357 0.73515-5.6626 0.0917-2.7443-0.56095-10.603-0.93019-11.2-0.027-0.0438-0.14547-0.65467-0.26318-1.3576-0.50358-3.0073-2.5499-10.673-3.6517-13.68-0.19817-0.5408-0.63385-1.7941-0.96817-2.7851s-0.95671-2.6706-1.3831-3.7324-1.0234-2.5966-1.3267-3.4107c-0.62271-1.6713-2.1465-5.2522-3.5181-8.2675-0.50668-1.1139-0.92123-2.0685-0.92123-2.1213 0-0.3198-5.5926-11.66-6.6644-13.514-0.47766-0.82604-0.75906-1.0666-0.87979-0.75193-0.0383 0.0998 1.8168 22.672 4.1223 50.161 2.3056 27.489 4.2281 50.993 4.2722 52.232 0.0442 1.2388-0.0476 8.4421-0.20384 16.007-0.24097 11.666-0.25726 13.782-0.10729 13.932 0.20719 0.20719 3.0601 0.62722 5.7495 0.84649 1.2956 0.10563 1.9053 0.20758 2.0386 0.34087 0.16775 0.16775 0.16579 0.20381-0.0166 0.3059-0.39281 0.21983-2.0158 0.2664-3.5839 0.10282-1.5433-0.16098-3.9884-0.80709-4.5043-1.1903-0.22548-0.16747-0.51904-2.4652-2.8574-22.365-0.76965-6.55-0.80826-6.95-0.9067-9.3955-0.0385-0.95563-0.12428-2.5773-0.19068-3.6037s-0.50038-7.9476-0.96439-15.38c-0.46401-7.4327-0.87393-13.651-0.91093-13.818-0.0575-0.25953-0.11765-0.28973-0.41528-0.20864-0.59549 0.16222-5.4911 0.22162-6.0288 0.0731-0.3713-0.10251-0.52774-0.0969-0.63704 0.0228-0.0982 0.10758-0.32037 4.7008-0.68939 14.252-0.80443 20.821-0.78052 20.421-1.6756 27.993-2.5342 21.44-2.7044 22.777-2.9203 22.937-0.11578 0.086-0.75511 0.33787-1.4207 0.55962-1.8384 0.61246-5.0555 0.93672-6.3207 0.63709zm-5.654-62.721c0.38879-0.21457 0.52158-0.39052 0.66877-0.88617 0.50456-1.6991-1.0089-2.9884-2.5146-2.1422-0.53979 0.30339-0.76296 0.7491-0.76296 1.5238 0 0.8699 0.21942 1.2451 0.93739 1.6029 0.70567 0.35166 0.87406 0.34175 1.6714-0.0983zm44.138-0.89653c0.52194-0.28796 0.74544-0.7404 0.74544-1.509 0-0.77469-0.22317-1.2204-0.76296-1.5238-0.6298-0.35397-1.193-0.35261-1.8283 4e-3 -0.40584 0.22809-0.538 0.40159-0.68629 0.90094-0.15976 0.53798-0.1592 0.70078 4e-3 1.2514 0.16904 0.56921 0.25518 0.66642 0.85572 0.96569 0.71322 0.35541 0.88183 0.34637 1.672-0.0896z" fill-opacity=".99763"/>

</g><g id="Clothes">
 <g stroke="#000">
  <path d="m96.561 191.56 1.1982 77.81s1.1439 0.1764 1.6994 0.16539c0.55543-0.011 1.6332-0.23149 1.6332-0.23149l4.4531-35.3 3.7146-29.445 9.191 64.304s1.1619 0.26078 1.6932 0.25888c0.53133-2e-3 1.4948-0.27028 1.4948-0.27028l-0.64613-77.627s-2.7333 0.32189-11.776 0.43419c-10.731 0.13326-12.655-0.0987-12.655-0.0987z" fill="#007fff" stroke-width=".26458px"/>
  <path d="m96.561 191.56 1.1982 77.81s1.1439 0.1764 1.6994 0.16539c0.55543-0.011 1.6332-0.23149 1.6332-0.23149l4.4531-35.3 3.7146-29.445 9.191 64.304s1.1619 0.26078 1.6932 0.25888c0.53133-2e-3 1.4948-0.27028 1.4948-0.27028l-0.64613-77.627s-2.7333 0.32189-11.776 0.43419c-10.731 0.13326-12.655-0.0987-12.655-0.0987z" fill="url(#linearGradient45093)" stroke-linecap="round" stroke-linejoin="round" stroke-width=".565"/>
  <g fill="none">
   <path d="m101.94 192.56s-0.0259 3.4623-5.4002 2.868" stroke-width=".26458px"/>
   <path d="m108.15 191.64c0.01 9.218-0.11002 8.4107 0.98477 8.8178l-0.10335-8.6816" stroke-width=".26458px"/>
   <path d="m109.13 200.46 0.12916 4.1083" stroke-width=".265"/>
   <g stroke-width=".26458px">
    <path d="m96.609 192.57 11.343 0.10336h0.12919"/>
    <path d="m109.11 192.6 11.834-0.41341"/>
    <path d="m115.2 192.42s0.0278 3.4623 5.8021 2.868"/>
   </g>
  </g>
  <path d="m108.73 204.03-3.3748-1.1655 2.7388 2.5063-0.0387 7.8677 1.2038-8.6794 0.93432 6.186-0.3036-5.6586 2.5451-2.9456z" filter="url(#filter48371)" opacity=".2899" stroke-width=".26458px"/>
 </g>
 <path d="m108.08 191.62c7.2904 4.9187 12.919 2.6097 12.919 2.6097l0.17496-2.1965s-2.9421 3.5016-12.148-1.3147c-0.38597-0.20193-1.3071 0.65792-0.94601 0.90154z" fill-opacity=".53846" filter="url(#filter50702)"/>
 <g transform="matrix(1 0 0 1.026 47.768 1.8761)" fill="#382e85" fill-opacity=".99763">
  <path d="m61.259 185.09s-10.687 4.7682-12.904 1.153c0 0 3.3796-16.889 7.7444-44.853 0.70119-4.4939 1.7901-11.239 1.7901-11.239l5.5934-0.31303c0.0481 0.28858 1.2365 7.7581 1.9295 11.586 3.7502 20.711 8.3241 44.948 8.3241 44.948-2.4225 3.0868-12.477-1.2814-12.477-1.2814z" fill="#382e85" fill-opacity=".99763" stroke="#000" stroke-width=".71478"/>
 </g>
 <g transform="matrix(1 0 0 1.026 30.917 2.1382)" fill="url(#linearGradient49510)" opacity=".30945">
  <path d="m78.111 184.84s-10.687 4.8038-12.904 1.1886c0 0 3.3796-16.924 7.7444-44.889 0.70119-4.4939 1.7901-11.239 1.7901-11.239l5.5934-0.31303c0.0481 0.28858 1.2365 7.7581 1.9295 11.586 3.7502 20.711 8.4702 44.912 8.4702 44.912-2.4225 3.0868-12.623-1.2458-12.623-1.2458z" fill="url(#linearGradient50786)" opacity="1"/>
 </g>
 <path d="m107.18 191.17c0.78911 0.34701 2.4848 0.31059 3.7272-1e-5" fill="none" stroke="#000" stroke-width=".26458px"/>
 <path d="m107.21 191.46c0.78911 0.34701 2.4848 0.31059 3.7272-1e-5" fill="none" filter="url(#filter51069)" stroke="#000" stroke-width=".26458px"/>
 <path d="m111.95 139.32-7.3435 2.5459 1.0477-6.4536 5.5944-0.31598z" fill-opacity=".99763" filter="url(#filter83355)" opacity=".3792"/>

</g><g id="Accessory">
 <g>
  <path d="m87.54 167.64c-1.7595 9.3173-3.7938 31.649-3.7938 31.649l0.86872 5.5624 2.2169-0.37429-0.48591-5.1822s6.589-22.55 8.3254-28.348c-0.73302 14.641-5.9709 30.234-3.4106 42.065 0.80164 3.7045 5.7147 10.938 5.7147 10.938 5.4789-27.518-1.0341-32.9 8.5651-88.432-4.6715-1.7688-15.945 21.24-18.001 32.122z" fill="#ffdb13" fill-opacity=".99763" stroke="#020200" stroke-width=".565"/>
  <path d="m87.54 167.64c-1.7595 9.3173-3.7938 31.649-3.7938 31.649l0.86872 5.5624 0.90144-0.082-0.63207-5.1092s1.4068-17.491 3.9702-30.899c1.8314-9.5794 4.3964-15.501 6.8058-18.673 5.8271-6.1356 27.054-16.406 9.8802-14.571-4.6715-1.7688-15.945 21.24-18.001 32.122z" filter="url(#filter65283)" opacity=".29546" style="mix-blend-mode:normal"/>
  <g fill="none" stroke="#000">
   <path d="m94.581 171.6c-0.09031 0.18062 1.5753-9.5715 3.191-16.937" stroke-width=".565"/>
   <g stroke-width=".26458px">
    <path d="m83.746 199.29c2.5997 6e-3 2.5997 6e-3 2.5997 6e-3"/>
    <path d="m83.923 200.81h2.6355"/>
    <path d="m84.052 202.03h2.558"/>
    <path d="m84.491 203.42 2.1704-0.25838"/>
   </g>
  </g>
  <path d="m129.25 167.21c1.7595 9.3173 3.7938 31.649 3.7938 31.649l-0.86872 5.5624-2.2169-0.37429 0.48591-5.1822s-6.589-22.55-8.3254-28.348c0.73302 14.641 5.9708 30.234 3.4106 42.065-0.80164 3.7045-4.3408 11.369-4.3408 11.369-5.4789-27.518-0.33976-33.331-9.939-88.863 4.6715-1.7688 15.945 21.24 18.001 32.122z" fill="#ffdb13" fill-opacity=".99763" stroke="#020200" stroke-width=".565"/>
  <g fill="none" stroke="#000">
   <path d="m122.22 171.16c0.0903 0.18062-1.5883-9.5586-3.2039-16.924" stroke-width=".565"/>
   <g stroke-width=".26458px">
    <path d="m133.04 198.86-2.5997 6e-3"/>
    <path d="m132.87 200.39h-2.6355"/>
    <path d="m132.74 201.6h-2.558"/>
    <path d="m132.3 203-2.1704-0.25838"/>
   </g>
  </g>
  <path d="m106.84 224.68 5.2496 0.0755-2.8311-20.19z" fill="#ffdb13" fill-opacity=".99763" stroke="#000" stroke-width=".265"/>
  <path d="m106.75 224.51 5.4114 0.0755-2.9184-20.19z" fill="#010100" fill-opacity=".57661" stroke="#000" stroke-width=".26458px"/>
  <path d="m97.772 154.67c-0.26552 23.093-5.6987 48.719-0.79655 69.28 0 0-8.9837-9.1922-6.0619-25.751 1.2431-7.045 2.3387-17.762 3.7509-26.683 1.4874-9.3957 3.1075-16.847 3.1075-16.847z" fill-opacity=".99763" filter="url(#filter66415)" opacity=".17208"/>
  <path d="m121.03 163.61 10.713 35.04-0.74029 5.4322-1.0394-0.0333 0.48591-5.1822-8.3254-28.348z" fill-opacity=".99763" filter="url(#filter66628)" opacity=".16234"/>
 </g>

</g></svg>