<?xml version="1.0" encoding="UTF-8"?>
<!-- Created with Inkscape (http://www.inkscape.org/) -->
<svg width="210mm" height="297mm" version="1.1" viewBox="0 0 210 297" xmlns="http://www.w3.org/2000/svg" xmlns:xlink="http://www.w3.org/1999/xlink">
 <defs>
  <filter id="filter1973-1" x="-.39594" y="-.60677" width="1.7919" height="2.2135" color-interpolation-filters="sRGB">
   <feGaussianBlur stdDeviation="1.8210371"/>
  </filter>
  <filter id="filter1973-1-4" x="-.39594" y="-.60677" width="1.7919" height="2.2135" color-interpolation-filters="sRGB">
   <feGaussianBlur stdDeviation="1.8210371"/>
  </filter>
 </defs>
 <g>
  <ellipse transform="matrix(1.6029 0 0 .8112 -54.819 22.014)" cx="90.738" cy="125.77" rx="5.5191" ry="3.6015" fill="#d72a8f" fill-rule="evenodd" filter="url(#filter1973-1)" opacity=".23127" stroke-linejoin="round" stroke-width=".284"/>
  <g fill="none" stroke="#c85a5a" stroke-width=".26458px">
   <path d="m94.671 125.25-1.7568-1.8528" style="mix-blend-mode:normal"/>
   <path d="m91.432 125.48-1.7568-1.8528" style="mix-blend-mode:normal"/>
   <path d="m87.833 125.24-1.7568-1.8528" style="mix-blend-mode:normal"/>
  </g>
  <ellipse transform="matrix(1.6029 0 0 .8112 -16.263 21.733)" cx="90.738" cy="125.77" rx="5.5191" ry="3.6015" fill="#d72a8f" fill-rule="evenodd" filter="url(#filter1973-1-4)" opacity=".23127" stroke-linejoin="round" stroke-width=".284"/>
  <g fill="none">
   <g stroke="#c85a5a" stroke-width=".26458px">
    <path d="m133.23 124.97-1.7568-1.8528" style="mix-blend-mode:normal"/>
    <path d="m129.99 125.2-1.7568-1.8528" style="mix-blend-mode:normal"/>
    <path d="m126.39 124.96-1.7568-1.8528" style="mix-blend-mode:normal"/>
   </g>
   <path d="m106.92 125.23c2.3304 2.9516 7.6101 3.2051 9.8885 0.0168" stroke="#000" stroke-linecap="round" stroke-width=".765"/>
  </g>
 </g>
</svg>
