<?xml version="1.0" encoding="UTF-8"?>
<!-- Created with Inkscape (http://www.inkscape.org/) -->
<svg width="210mm" height="297mm" version="1.1" viewBox="0 0 210 297" xmlns="http://www.w3.org/2000/svg" xmlns:xlink="http://www.w3.org/1999/xlink">
 <defs>
  <filter id="filter3637" x="-.097217" y="-.91431" width="1.1944" height="2.8286" color-interpolation-filters="sRGB">
   <feGaussianBlur stdDeviation="2.3386684"/>
  </filter>
  <radialGradient id="radialGradient4346" cx="112.78" cy="116.2" r="34.48" gradientTransform="matrix(.48072 .0021195 -.0011102 .2518 56.579 91.104)" gradientUnits="userSpaceOnUse">
   <stop stop-color="#f55483" stop-opacity="0" offset="0"/>
   <stop stop-color="#f55483" offset="1"/>
  </radialGradient>
 </defs>
 <g>
  <path d="m113.53 128.08c1.2387-0.27363 2.5467-0.95708 3.8228-2.2523 0.10981-0.11153 0.10802-0.29108-4e-3 -0.40039-0.053-0.0526-0.12459-0.082-0.19922-0.082l1.1e-4 4e-5c-0.0752 9.8e-4 -0.14689 0.0319-0.19922 0.0859-1.1802 1.1979-2.3629 1.772-3.4812 1.9724m0 0c-1.1193 0.20056-2.174 0.0268-3.0969-0.27059-1.8449-0.59442-1.9426-1.4814-2.8027-2.0202-0.2319-0.14528-0.7117-0.17428-0.81865-0.0614-0.10644 0.11339-0.0246 0.56234 0.12132 0.78212 0.73164 1.1019 1.3951 1.4432 3.3779 2.082 0.97013 0.31257 2.0931 0.42658 3.2798 0.16443" color="#000000" stroke-linecap="round" style="-inkscape-stroke:none"/>
  <path d="m81.267 124.84-1.4428-2.9294 33.672-2.5518 24.063 4.4648-0.6768 1.674-24.409-2.1924z" fill="url(#radialGradient4346)" filter="url(#filter3637)" opacity=".76873"/>
 </g>
</svg>
