<?xml version="1.0" encoding="UTF-8"?>
<!-- Created with Inkscape (http://www.inkscape.org/) -->
<svg width="210mm" height="297mm" version="1.1" viewBox="0 0 210 297" xmlns="http://www.w3.org/2000/svg">
 <defs>
  <linearGradient id="linearGradient1707" x1="111.62" x2="111.57" y1="117.36" y2="126.45" gradientUnits="userSpaceOnUse">
   <stop offset="0"/>
   <stop stop-color="#bf4c4c" offset="1"/>
  </linearGradient>
  <linearGradient id="linearGradient3034" x1="111.3" x2="111.38" y1="118.14" y2="123.2" gradientUnits="userSpaceOnUse">
   <stop offset="0"/>
   <stop stop-color="#fff" offset="1"/>
  </linearGradient>
  <filter id="filter5858" x="-.0011039" y="-.0030483" width="1.0022" height="1.0061" color-interpolation-filters="sRGB">
   <feGaussianBlur stdDeviation="0.00300962"/>
  </filter>
 </defs>
 <path d="m106.04 122.06c3.2901-0.53399 6.9935-0.55122 10.645 0.10335 0 0-1.9181 10.053-5.7361 9.9219-3.7187-0.128-4.9093-10.025-4.9093-10.025z" fill="url(#linearGradient1707)" stroke="#000" stroke-linejoin="round" stroke-width=".665"/>
 <path d="m106.46 122.33c3.6058 2.6739 6.3141 1.8876 9.8232 0.11247-3.4864-0.58638-6.3854-0.69492-9.8232-0.11247z" fill="url(#linearGradient3034)"/>
 <path d="m107.51 127.22s2.6111-0.82534 3.8481-0.45393c1.1256 0.33796 2.6949 2.2735 2.6949 2.2735-2.8479 5.1341-5.2612 2.2629-6.543-1.8196z" fill="#ef8a8a"/>
 <path d="m107.51 127.22s2.611-0.82534 3.8481-0.45393c1.1256 0.33796 2.6949 2.2735 2.6949 2.2735-1.0547-0.99727-1.6082-1.2642-2.6047-1.7085-0.85998-0.38347-2.6677 0.10646-3.8689 0.35844 0 0 0.026-0.26363-0.0695-0.4695z" filter="url(#filter5858)" opacity=".12052" style="mix-blend-mode:normal"/>
</svg>
