<?xml version="1.0" encoding="UTF-8"?>
<!-- Created with Inkscape (http://www.inkscape.org/) -->
<svg width="210mm" height="297mm" version="1.1" viewBox="0 0 210 297" xmlns="http://www.w3.org/2000/svg" xmlns:xlink="http://www.w3.org/1999/xlink">
 <defs>
  <filter id="filter27501" x="-.12691" y="-.20017" width="1.2538" height="1.4003" color-interpolation-filters="sRGB">
   <feGaussianBlur stdDeviation="4.5263233"/>
  </filter>
  <linearGradient id="linearGradient1094" x1="111.42" x2="111.53" y1="110.23" y2="124.06" gradientTransform="matrix(.82706 0 0 .82706 21.077 24.044)" gradientUnits="userSpaceOnUse">
   <stop offset="0"/>
   <stop stop-color="#fff" offset="1"/>
  </linearGradient>
  <linearGradient id="linearGradient1096" x1="106.87" x2="116.92" y1="123.93" y2="124.02" gradientTransform="matrix(1.0207 0 0 1 -.14704 2.2862)" gradientUnits="userSpaceOnUse">
   <stop offset="0"/>
   <stop offset=".16683"/>
   <stop stop-opacity="0" offset=".25336"/>
   <stop stop-opacity="0" offset=".71785"/>
   <stop offset=".79598"/>
   <stop offset="1"/>
  </linearGradient>
 </defs>
 <g>
  <path d="m116.9 123.78c-0.96912-0.14097-3.2382 1.1966-5.6265 0.5426-2.1954-0.60117-3.3972 3.5188-1.5486 3.6974 2.9145 0.28162 8.7685-0.37996 8.7567-0.24602 0.47441-0.8383 1.7294-3.256-1.5816-3.994z" fill="url(#linearGradient1094)" stroke="#000" stroke-linejoin="round" stroke-width=".519" style="mix-blend-mode:normal"/>
  <path d="m108.94 126.22c3.8646 0.0528 7.3513 0.12522 10.24-0.15846" fill="none" stroke="url(#linearGradient1096)" stroke-width=".22108px"/>
  <path transform="matrix(.87696 0 0 .67059 9.6299 23.483)" d="m69.574 69.281c0.39533-21.608 32.904-14.798 49.002-9.9015 14.042 4.2712 41.132 15.096 35.441 32.418-3.2767 9.9747-13.842 11.779-21.785 9.6913-2.4144-0.6346-9.9262 10.546-10.16 6.08-0.76527-14.629-5.1894-29.825-15.598-35.824-10.516-6.0611-27.514-2.4298-36.233 4.3743-1.8305 1.4285-0.72097-3.9567-0.66824-6.8386z" fill="#f00" filter="url(#filter27501)" opacity=".40391" style="mix-blend-mode:normal"/>
  <path d="m118.96 87.45s1.5777 4.7912 2.9108 3.4845c1.3331-1.3066 2.9298-2.7763 4.166-3.4922 1.4819-0.85823 3.9312-1.7264 6.041-2.4043s3.8691-1.1523 3.8691-1.1523l4.5391-1.0043s-6.0255 2.4063-8.1114 3.0765c-2.0859 0.67023-4.0612 1.2281-5.8535 2.3203-1.4083 0.85822-2.7231 1.8106-3.9626 2.8817-1.286 1.1113-2.5275 1.1444-3.5986-3.71z" color="#000000" stroke-linejoin="round" style="-inkscape-stroke:none"/>
  <path d="m111.25 70.13s-2.3064 3.8374-3.8639 2.1789c-1.5575-1.6584-3.4278-3.5287-4.8971-4.4629-1.7614-1.1199-4.7002-2.3007-7.2353-3.2327s-4.6536-1.5985-4.6536-1.5985l-5.477-1.452s7.2163 3.2344 9.7227 4.1559c2.5064 0.92145 4.8837 1.7005 7.0112 3.121 1.8372 1.2267 3.5311 2.5862 5.1095 4.1193 1.348 1.3093 2.9771 0.29697 4.2835-2.8289z" color="#000000" stroke-linejoin="round" stroke-width="1.2188" style="-inkscape-stroke:none"/>
  <g fill="none" stroke="#f00" stroke-linecap="round" stroke-width=".965">
   <path d="m130.84 79.375s9.095 0.20671 9.3018-7.4414"/>
   <path d="m141.72 70.583s-0.20671 9.0951 7.4414 9.3018"/>
   <path d="m130.09 81.317s9.095-0.20671 9.3018 7.4414"/>
   <path d="m141.19 90.805s-0.20671-9.0951 7.4414-9.3018"/>
  </g>
 </g>
</svg>
