<?xml version="1.0" encoding="UTF-8"?>
<!-- Created with Inkscape (http://www.inkscape.org/) -->
<svg width="210mm" height="297mm" version="1.1" viewBox="0 0 210 297" xmlns="http://www.w3.org/2000/svg" xmlns:xlink="http://www.w3.org/1999/xlink">
 <defs>
  <linearGradient id="linearGradient3104">
   <stop offset="0"/>
   <stop stop-color="#fff" offset="1"/>
  </linearGradient>
  <linearGradient id="linearGradient3034" x1="111.3" x2="111.38" y1="118.14" y2="123.2" gradientUnits="userSpaceOnUse" xlink:href="#linearGradient3104"/>
  <filter id="filter5858" x="-.0011039" y="-.0030483" width="1.0022" height="1.0061" color-interpolation-filters="sRGB">
   <feGaussianBlur stdDeviation="0.00300962"/>
  </filter>
  <linearGradient id="linearGradient7346" x1="111.62" x2="111.57" y1="117.36" y2="126.45" gradientUnits="userSpaceOnUse">
   <stop offset="0"/>
   <stop stop-color="#bf4c4c" offset="1"/>
  </linearGradient>
  <linearGradient id="linearGradient15058" x1="111.42" x2="111.53" y1="110.23" y2="124.06" gradientTransform="matrix(.82706 0 0 .82706 21.077 24.044)" gradientUnits="userSpaceOnUse" xlink:href="#linearGradient3104"/>
  <linearGradient id="linearGradient21717" x1="106.87" x2="116.92" y1="123.93" y2="124.02" gradientTransform="matrix(1.0207 0 0 1 -.14704 2.2862)" gradientUnits="userSpaceOnUse">
   <stop offset="0"/>
   <stop offset=".16683"/>
   <stop stop-opacity="0" offset=".25336"/>
   <stop stop-opacity="0" offset=".71785"/>
   <stop offset=".79598"/>
   <stop offset="1"/>
  </linearGradient>
  <filter id="filter25624" x="-.078526" y="-.13044" width="1.1571" height="1.2609" color-interpolation-filters="sRGB">
   <feGaussianBlur stdDeviation="3.0229799"/>
  </filter>
  <filter id="filter3637" x="-.097217" y="-.91432" width="1.1944" height="2.8286" color-interpolation-filters="sRGB">
   <feGaussianBlur stdDeviation="2.3386684"/>
  </filter>
  <radialGradient id="radialGradient4346" cx="112.78" cy="116.2" r="34.48" gradientTransform="matrix(.48072 .0021195 -.0011102 .2518 56.579 91.104)" gradientUnits="userSpaceOnUse">
   <stop stop-color="#f55483" stop-opacity="0" offset="0"/>
   <stop stop-color="#f55483" offset="1"/>
  </radialGradient>
  <linearGradient id="linearGradient4850" x1="115.04" x2="137.55" y1="85.158" y2="51.052" gradientUnits="userSpaceOnUse">
   <stop stop-color="#8da4ff" offset="0"/>
   <stop stop-color="#8da4ff" stop-opacity="0" offset="1"/>
  </linearGradient>
 </defs>
 <g display="none">
  <path d="m116.9 123.78c-0.96912-0.14097-3.2382 1.1966-5.6265 0.5426-2.1954-0.60117-3.3972 3.5188-1.5486 3.6974 2.9145 0.28162 8.7685-0.37996 8.7567-0.24602 0.47441-0.8383 1.7294-3.256-1.5816-3.994z" display="inline" fill="url(#linearGradient15058)" stroke="#000" stroke-linejoin="round" stroke-width=".519" style="mix-blend-mode:normal"/>
  <path d="m108.94 126.22c3.8646 0.0528 7.3513 0.12522 10.24-0.15846" fill="none" stroke="url(#linearGradient21717)" stroke-width=".22108px"/>
  <path transform="matrix(.87696 0 0 1 18.475 21.265)" d="m65.802 49.231c-13.623 18.077 28.007 42.097 52.297 46.067 13.423 2.1942 37.682-2.6446 37.418-14.616-0.62403-28.238-71.959-55.014-89.715-31.451z" fill="url(#linearGradient4850)" filter="url(#filter25624)" opacity=".40391"/>
  <path d="m119.22 81.677s1.6142 2.6632 2.9474 3.9698c1.3331 1.3066 2.9298 2.7763 4.166 3.4922 1.4819 0.85823 3.9312 1.7264 6.041 2.4043s3.8691 1.1523 3.8691 1.1523l4.5391 1.0043s-6.0255-2.4063-8.1114-3.0765c-2.0859-0.67023-4.0612-1.2281-5.8535-2.3203-2.8696-1.7487-5.3507-3.8884-7.5977-6.626z" color="#000000" stroke-linejoin="round" style="-inkscape-stroke:none"/>
  <path d="m104.23 59.59s-2.3946 2.945-4.2227 4.2993-4.0018 2.8614-5.6141 3.5188c-1.9328 0.78808-5.035 1.4263-7.6956 1.8915-2.6606 0.4653-4.864 0.74361-4.864 0.74361l-5.6481 0.4527s7.6772-1.8966 10.308-2.3566c2.6305-0.46002 5.1086-0.80292 7.4552-1.8215 3.757-1.6308 7.1106-3.7988 10.282-6.7278z" color="#000000" display="inline" stroke-linejoin="round" stroke-width="1.2188" style="-inkscape-stroke:none"/>
  <path d="m113.53 128.08c1.2387-0.27363 2.5467-0.95708 3.8228-2.2523 0.10981-0.11153 0.10802-0.29108-4e-3 -0.40039-0.053-0.0526-0.12459-0.082-0.19922-0.082l1.1e-4 4e-5c-0.0752 9.8e-4 -0.14689 0.0319-0.19922 0.0859-1.1802 1.1979-2.3629 1.772-3.4812 1.9724m0 0c-1.1193 0.20056-2.174 0.0268-3.0969-0.27059-1.8449-0.59442-1.9426-1.4814-2.8027-2.0202-0.2319-0.14528-0.7117-0.17428-0.81865-0.0614-0.10644 0.11339-0.0246 0.56234 0.12132 0.78212 0.73164 1.1019 1.3951 1.4432 3.3779 2.082 0.97013 0.31257 2.0931 0.42658 3.2798 0.16443" color="#000000" stroke-linecap="round" style="-inkscape-stroke:none"/>
  <path d="m81.267 124.84-1.4428-2.9294 33.672-2.5518 24.063 4.4648-0.6768 1.674-24.409-2.1924z" fill="url(#radialGradient4346)" filter="url(#filter3637)" opacity=".76873"/>
  <path d="m106.04 122.06c3.2901-0.53399 6.9935-0.55122 10.645 0.10335 0 0-1.9181 10.053-5.7361 9.9219-3.7187-0.128-4.9093-10.025-4.9093-10.025z" stroke="#000" stroke-width=".665"/>
  <path d="m106.46 122.33c3.6058 2.6739 6.3141 1.8876 9.8232 0.11247-3.4864-0.58638-6.3854-0.69492-9.8232-0.11247z" fill="url(#linearGradient3034)"/>
  <path d="m107.51 127.22s2.6111-0.82534 3.8481-0.45393c1.1256 0.33796 2.6949 2.2735 2.6949 2.2735-2.8479 5.1341-5.2612 2.2629-6.543-1.8196z" fill="#ef8a8a"/>
  <path d="m107.51 127.22s2.611-0.82534 3.8481-0.45393c1.1256 0.33796 2.6949 2.2735 2.6949 2.2735-4.2721-3.5542-5.705-1.1047-6.4736-1.3501 0 0 0.026-0.26363-0.0695-0.4695z" display="inline" filter="url(#filter5858)" opacity=".12052" style="mix-blend-mode:normal"/>
  <path d="m106.46 122.33c3.6058 2.6739 6.3141 1.8876 9.8232 0.11247-3.4864-0.58638-6.3854-0.69492-9.8232-0.11247z" fill="url(#linearGradient3034)"/>
  <path d="m107.51 127.22s2.6111-0.82534 3.8481-0.45393c1.1256 0.33796 2.6949 2.2735 2.6949 2.2735-2.8479 5.1341-5.2612 2.2629-6.543-1.8196z" fill="#ef8a8a"/>
  <path d="m107.51 127.22s2.611-0.82534 3.8481-0.45393c1.1256 0.33796 2.6949 2.2735 2.6949 2.2735-4.2721-3.5542-5.705-1.1047-6.4736-1.3501 0 0 0.026-0.26363-0.0695-0.4695z" display="inline" filter="url(#filter5858)" opacity=".12052" style="mix-blend-mode:normal"/>
  <path d="m101.08 123.3c5.1099-0.0233 10.114 0.58452 15.256 0.15397 2.6223 1.2656 2.7509 0.0377 3.9676-0.1023l0.36174 3.669-3.8241 0.25838-4.0308 0.0517h-3.4623l-5.9945-0.41341z" fill="none" stroke="#000" stroke-width=".26458px"/>
 </g>
 <path d="m108.84 130.07c1.5363 1.1674 3.6399 0.32214 4.1549-0.21217 2.651-2.7507 1.208-8.873-1.8342-8.943-3.1474-0.0723-5.2833 6.904-2.3206 9.1551z" fill="url(#linearGradient7346)" stroke="#000" stroke-width=".665"/>
 <path d="m109.38 122.15c0.82874 0.71898 2.3174 1.1042 3.5244 0.0782-0.54511-0.89424-2.3168-1.6328-3.5244-0.0782z" fill="url(#linearGradient3034)"/>
</svg>
