<?xml version="1.0" encoding="UTF-8" standalone="no"?>
<!-- Created with Inkscape (http://www.inkscape.org/) -->

<svg
   width="96.97963mm"
   height="53.335442mm"
   version="1.1"
   viewBox="0 0 96.97963 53.335442"
   id="svg20"
   sodipodi:docname="blank_eyes.svg"
   inkscape:version="1.1 (c68e22c387, 2021-05-23)"
   xmlns:inkscape="http://www.inkscape.org/namespaces/inkscape"
   xmlns:sodipodi="http://sodipodi.sourceforge.net/DTD/sodipodi-0.dtd"
   xmlns="http://www.w3.org/2000/svg"
   xmlns:svg="http://www.w3.org/2000/svg">
  <defs
     id="defs24" />
  <sodipodi:namedview
     id="namedview22"
     pagecolor="#ffffff"
     bordercolor="#666666"
     borderopacity="1.0"
     inkscape:pageshadow="2"
     inkscape:pageopacity="0.0"
     inkscape:pagecheckerboard="0"
     inkscape:document-units="mm"
     showgrid="false"
     fit-margin-top="0"
     fit-margin-left="0"
     fit-margin-right="0"
     fit-margin-bottom="0"
     inkscape:zoom="0.73406285"
     inkscape:cx="-71.519761"
     inkscape:cy="300.383"
     inkscape:window-width="1920"
     inkscape:window-height="1013"
     inkscape:window-x="-9"
     inkscape:window-y="-9"
     inkscape:window-maximized="1"
     inkscape:current-layer="svg20" />
  <g
     fill-opacity="0.99763"
     id="g18"
     transform="translate(-54.804771,-69.06172)">
    <path
       d="m 128.38,122.38 c -0.10618,-0.0257 -0.62743,-0.11705 -1.1583,-0.20298 -2.2203,-0.35935 -4.6187,-1.4106 -6.5736,-2.8812 -3.9178,-2.9474 -6.1682,-7.4745 -6.1682,-12.409 0,-0.93371 -0.0453,-1.4434 -0.12143,-1.3667 -0.0668,0.0673 -0.50447,0.89936 -0.97265,1.8491 -1.4378,2.9168 -3.4041,5.5958 -5.6275,7.6672 -10.35,9.6423 -26.145,9.6423 -36.494,0 -2.2749,-2.1194 -4.243,-4.8225 -5.6908,-7.8161 -1.0485,-2.168 -1.6806,-4.0092 -2.1206,-6.1768 -1.1581,-5.7057 -0.45472,-11.573 2.0008,-16.689 1.4721,-3.0668 2.9533,-5.1727 5.2629,-7.4823 10.414,-10.414 27.176,-10.414 37.59,0 2.3096,2.3096 3.7908,4.4155 5.2629,7.4823 1.9529,4.0685 2.834,8.7728 2.4743,13.211 -0.0846,1.0441 -0.18815,2.0287 -0.2301,2.188 -0.15078,0.57247 0.20715,0.27701 0.71236,-0.58803 0.77775,-1.3317 1.5569,-2.3085 2.7711,-3.4742 2.9217,-2.8049 6.5946,-4.2714 10.698,-4.2714 8.5897,0 15.506,6.9379 15.503,15.55 -0.003,6.26 -3.7982,11.885 -9.6588,14.314 -1.7167,0.71149 -3.3174,1.035 -5.3992,1.0913 -1.0264,0.0277 -1.9531,0.0294 -2.0593,0.004 z m 5.3034,-1.2665 c 2.3913,-0.63206 4.5354,-1.8436 6.3562,-3.5916 3.0902,-2.9667 4.5573,-6.3765 4.5573,-10.592 0,-2.6621 -0.43113,-4.4634 -1.6186,-6.7626 -2.0521,-3.9732 -5.7649,-6.7594 -10.203,-7.6568 -1.5055,-0.3044 -5.0577,-0.2054 -6.4591,0.18002 -5.22,1.4356 -9.1355,5.3639 -10.581,10.616 -0.25709,0.93381 -0.28828,1.3401 -0.28319,3.6879 0.005,2.4972 0.0246,2.7005 0.35744,3.7968 0.40251,1.3256 1.2762,3.2163 1.9809,4.2868 0.68977,1.0478 2.7334,3.1176 3.8128,3.8615 1.6993,1.1712 3.4931,1.9482 5.4261,2.3503 1.7424,0.36246 4.9372,0.27795 6.6548,-0.17603 z m -41.368,0.1598 c 4.7611,-0.51748 9.6127,-2.5504 13.412,-5.62 1.1393,-0.9204 3.3028,-3.1267 4.1369,-4.2188 1.0789,-1.4126 2.0397,-2.993 2.8716,-4.7233 1.8558,-3.8602 2.635,-7.6347 2.4776,-12.002 -0.20035,-5.5609 -2.0504,-10.572 -5.5615,-15.065 -0.9084,-1.1623 -3.2134,-3.4437 -4.3751,-4.3304 -7.8562,-5.9962 -18.287,-7.0781 -26.982,-2.7987 -2.7108,1.3341 -4.5241,2.6137 -6.7224,4.7438 -4.8177,4.6683 -7.5239,10.75 -7.7653,17.45 -0.15736,4.3675 0.62183,8.1421 2.4776,12.002 1.3314,2.7695 2.6333,4.6402 4.7523,6.829 2.1655,2.2368 4.2716,3.785 7.0411,5.1761 2.5024,1.2569 5.7682,2.2447 8.4074,2.5429 1.4693,0.16601 4.3671,0.17305 5.829,0.0142 z"
       id="path2" />
    <g
       stroke="currentColor"
       stroke-width="0.26458px"
       id="g16">
      <path
         d="m 64.624,87.312 -9.6573,-3.0427 0.92604,-3.3073 9.2604,5.0932 z"
         id="path4" />
      <path
         d="m 66.15,83.14 -8.8664,-4.8896 1.5608,-3.0593 8.0724,6.8214 z"
         id="path6" />
      <path
         d="m 68.498,79.368 -7.4912,-6.8119 2.2276,-2.6141 6.2711,8.507 z"
         id="path8" />
      <path
         d="m 144.93,103.15 6.6925,-2.1102 -0.64175,-2.2937 -6.4175,3.5323 z"
         id="path10" />
      <path
         d="m 143.87,100.26 6.1444,-3.3911 -1.0817,-2.1217 -5.5942,4.7308 z"
         id="path12" />
      <path
         d="m 142.25,97.641 5.1914,-4.7242 -1.5437,-1.813 -4.3459,5.8998 z"
         id="path14" />
    </g>
  </g>
</svg>
