<?xml version="1.0" encoding="UTF-8" standalone="no"?>
<!-- Created with Inkscape (http://www.inkscape.org/) -->

<svg
   width="129.09119mm"
   height="129.09119mm"
   viewBox="0 0 129.09119 129.09119"
   version="1.1"
   id="svg5"
   sodipodi:docname="logo.svg"
   inkscape:version="1.1 (c68e22c387, 2021-05-23)"
   inkscape:export-filename="H:\My Drive\NFT Little Peeps\Eyes Logo Square.png"
   inkscape:export-xdpi="96"
   inkscape:export-ydpi="96"
   xmlns:inkscape="http://www.inkscape.org/namespaces/inkscape"
   xmlns:sodipodi="http://sodipodi.sourceforge.net/DTD/sodipodi-0.dtd"
   xmlns="http://www.w3.org/2000/svg"
   xmlns:svg="http://www.w3.org/2000/svg">
  <sodipodi:namedview
     id="namedview7"
     pagecolor="#ffffff"
     bordercolor="#666666"
     borderopacity="1.0"
     inkscape:pageshadow="2"
     inkscape:pageopacity="0.0"
     inkscape:pagecheckerboard="0"
     inkscape:document-units="mm"
     showgrid="false"
     inkscape:zoom="1"
     inkscape:cx="140.5"
     inkscape:cy="226.5"
     inkscape:window-width="1920"
     inkscape:window-height="1013"
     inkscape:window-x="-9"
     inkscape:window-y="-9"
     inkscape:window-maximized="1"
     inkscape:current-layer="layer4"
     inkscape:snap-grids="true"
     showguides="false" />
  <defs
     id="defs2">
    <marker
       style="overflow:visible"
       id="DiamondL"
       refX="0"
       refY="0"
       orient="auto"
       inkscape:stockid="DiamondL"
       inkscape:isstock="true">
      <path
         transform="scale(0.8)"
         style="fill:context-stroke;fill-rule:evenodd;stroke:context-stroke;stroke-width:1pt"
         d="M 0,-7.0710768 -7.0710894,0 0,7.0710589 7.0710462,0 Z"
         id="path16787" />
    </marker>
    <marker
       style="overflow:visible"
       id="Arrow2Lstart"
       refX="0"
       refY="0"
       orient="auto"
       inkscape:stockid="Arrow2Lstart"
       inkscape:isstock="true">
      <path
         transform="matrix(1.1,0,0,1.1,1.1,0)"
         d="M 8.7185878,4.0337352 -2.2072895,0.01601326 8.7185884,-4.0017078 c -1.7454984,2.3720609 -1.7354408,5.6174519 -6e-7,8.035443 z"
         style="fill:context-stroke;fill-rule:evenodd;stroke-width:0.625;stroke-linejoin:round"
         id="path16726" />
    </marker>
    <marker
       style="overflow:visible"
       id="Arrow1Mstart"
       refX="0"
       refY="0"
       orient="auto"
       inkscape:stockid="Arrow1Mstart"
       inkscape:isstock="true">
      <path
         transform="matrix(0.4,0,0,0.4,4,0)"
         style="fill:context-stroke;fill-rule:evenodd;stroke:context-stroke;stroke-width:1pt"
         d="M 0,0 5,-5 -12.5,0 5,5 Z"
         id="path16714" />
    </marker>
    <marker
       style="overflow:visible"
       id="Arrow1Lstart"
       refX="0"
       refY="0"
       orient="auto"
       inkscape:stockid="Arrow1Lstart"
       inkscape:isstock="true">
      <path
         transform="matrix(0.8,0,0,0.8,10,0)"
         style="fill:context-stroke;fill-rule:evenodd;stroke:context-stroke;stroke-width:1pt"
         d="M 0,0 5,-5 -12.5,0 5,5 Z"
         id="path16708" />
    </marker>
    <linearGradient
       id="linearGradient19611"
       inkscape:swatch="gradient">
      <stop
         style="stop-color:#fefd03;stop-opacity:1;"
         offset="0"
         id="stop19607" />
      <stop
         style="stop-color:#fefd03;stop-opacity:0;"
         offset="1"
         id="stop19609" />
    </linearGradient>
  </defs>
  <g
     inkscape:groupmode="layer"
     id="layer13"
     inkscape:label="Eyes"
     style="display:inline"
     transform="translate(-36.66938,-61.365089)">
    <ellipse
       style="opacity:1;fill:#ffffff;fill-opacity:1;fill-rule:nonzero;stroke:none;stroke-width:0.723999;stroke-miterlimit:4;stroke-dasharray:none;stroke-opacity:1"
       id="path70457"
       cx="83.706841"
       cy="122.86884"
       rx="30.413689"
       ry="30.838297" />
    <ellipse
       style="opacity:1;fill:#ffffff;fill-opacity:1;fill-rule:nonzero;stroke:none;stroke-width:0.723999;stroke-miterlimit:4;stroke-dasharray:none;stroke-opacity:1"
       id="path70459"
       ry="17.384151"
       rx="17.721087"
       cy="135.92874"
       cx="131.24944" />
  </g>
  <g
     inkscape:groupmode="layer"
     id="layer4"
     inkscape:label="Eye Outer"
     style="display:inline"
     transform="translate(-36.66938,-61.365089)">
    <path
       style="display:inline;fill:#00adff;fill-opacity:1;stroke:none;stroke-width:0.128705"
       d="m 115.56557,142.35597 c -91.216175,-87.670553 -45.608085,-43.83529 0,0 z m 14.54185,6.8848 c -0.20755,-0.0369 -0.78499,-0.13918 -1.28314,-0.22746 -1.18009,-0.2091 -3.21499,-1.07091 -4.46648,-1.89168 -1.28028,-0.83964 -3.09726,-2.74454 -3.88487,-4.07286 -4.41972,-7.45401 -0.5057,-16.95546 7.89848,-19.174 1.45253,-0.38342 4.87552,-0.39263 6.24647,-0.0175 2.9543,0.80987 5.21067,2.27181 7.04198,4.56258 3.29256,4.11864 3.67584,9.89349 0.96735,14.57491 -0.71841,1.24168 -2.30988,2.9714 -3.54452,3.8524 -1.192,0.85062 -3.15856,1.76796 -4.49157,2.09524 -1.00876,0.24765 -3.74318,0.4292 -4.4837,0.2977 z M 81.800789,145.2465 c -2.749989,-0.33717 -4.90877,-0.94504 -7.195197,-2.02594 -5.824652,-2.75356 -10.254458,-8.02483 -11.878912,-14.13528 -0.594062,-2.23463 -0.760566,-3.52028 -0.760566,-5.87281 0,-1.20392 0.08621,-2.6984 0.191593,-3.3211 1.251624,-7.39628 5.545128,-13.22276 12.23076,-16.59766 1.40159,-0.70752 4.249255,-1.61898 5.978224,-1.91347 1.983151,-0.33777 5.398751,-0.34058 7.357223,-0.005 8.486326,1.44962 15.505966,7.78859 17.679746,15.96542 0.59405,2.23461 0.76055,3.52029 0.76055,5.87282 0,6.05685 -2.17832,11.31873 -6.47203,15.63377 -3.32894,3.34543 -7.39022,5.44341 -11.99629,6.19712 -1.709553,0.27973 -4.489373,0.37553 -5.895101,0.20317 z"
       id="path1458-8"
       sodipodi:nodetypes="cccsssscsssscccssscsscsssscc" />
  </g>
  <g
     inkscape:groupmode="layer"
     id="layer5"
     inkscape:label="Eye Inner"
     style="display:inline"
     transform="translate(-36.66938,-61.365089)">
    <path
       style="display:inline;opacity:0.599388;fill:#000000;fill-opacity:0.99763;stroke:none;stroke-width:0.128705"
       d="m 117.86188,126.22389 c -92.74705,-76.915833 -46.373527,-38.457926 0,0 z m 11.86814,21.05507 c -0.58119,-0.12827 -1.63413,-0.51017 -2.33985,-0.8486 -1.80829,-0.86717 -3.61301,-2.66939 -4.5053,-4.49908 -0.91602,-1.8784 -1.12858,-2.88892 -1.04704,-4.97773 0.10984,-2.81222 0.95243,-4.75327 2.91563,-6.71648 1.96411,-1.96411 3.90399,-2.80583 6.71984,-2.91575 2.0478,-0.08 3.42512,0.22169 5.19398,1.1375 1.62758,0.8426 3.48556,2.75945 4.27946,4.41497 2.68894,5.60718 0.0141,12.06679 -5.83242,14.08178 -1.61363,0.55619 -3.74867,0.68444 -5.3843,0.32339 z m -48.759489,-5.21311 c -5.5621,-0.8015 -10.598951,-4.48479 -13.056892,-9.54802 -2.419024,-4.98306 -2.419024,-10.30661 0,-15.2897 5.265005,-10.84566 19.957061,-13.03076 28.208371,-4.19532 6.5462,7.00959 6.17935,17.96375 -0.82052,24.50087 -3.836554,3.58292 -9.183595,5.27394 -14.330959,4.53217 z"
       id="path1456-2"
       sodipodi:nodetypes="ccssssscssssssssss" />
  </g>
  <g
     inkscape:groupmode="layer"
     id="layer19"
     inkscape:label="Eye Whites 1"
     style="display:inline"
     transform="translate(-36.66938,-61.365089)">
    <path
       style="display:inline;fill:#ffffff;fill-opacity:0.99763;stroke:none;stroke-width:0.127848"
       d="m 81.591216,143.30718 c -3.661008,-0.52127 -7.157761,-1.98838 -10.056572,-4.2194 -1.250697,-0.96258 -3.375004,-3.2608 -4.294858,-4.64652 -0.903127,-1.36052 -1.942208,-3.45585 -2.520871,-5.08343 -0.817222,-2.29857 -0.19172,-5.05318 1.5258,-6.71937 0.701659,-0.68069 2.143608,-1.35492 3.135773,-1.46626 2.78581,-0.31258 5.589099,1.98208 6.152981,5.03662 0.09898,0.53608 0.242521,1.32016 0.319019,1.74241 0.325653,1.79765 1.984988,4.2006 3.523136,5.10201 1.630933,0.9558 3.348581,1.32009 5.1558,1.09349 1.536234,-0.19263 2.191734,-0.4358 3.449453,-1.27964 1.426045,-0.95677 1.940478,-1.58224 4.119492,-5.00878 0.540701,-0.85029 1.668218,-1.91704 2.434191,-2.30302 4.08509,-2.05858 8.5851,1.40124 7.7861,5.98633 -0.32115,1.84291 -2.05577,4.38666 -4.53178,6.64571 -2.56089,2.33653 -6.006334,4.08787 -9.477774,4.81769 -1.653793,0.3477 -5.26101,0.50989 -6.71989,0.30216 z m -0.141497,-10.16213 c -2.403968,-0.85757 -4.060389,-2.78276 -4.806741,-5.58665 -0.381356,-1.43268 -0.350099,-3.79665 0.07024,-5.31487 0.919903,-3.32224 3.16356,-5.91146 5.990795,-6.91345 0.822746,-0.2916 1.245816,-0.34707 2.421474,-0.31758 1.244615,0.0311 1.553107,0.096 2.442368,0.51239 3.212767,1.50457 4.974326,5.44775 4.297426,9.61968 -0.354789,2.18646 -1.796123,4.8827 -3.335767,6.24003 -0.42891,0.37814 -1.345566,0.96952 -2.037001,1.31422 -1.192783,0.5946 -1.334809,0.6289 -2.774124,0.67053 -1.162952,0.0338 -1.692417,-0.0188 -2.268706,-0.2243 z m 10.798576,-15.28253 c -0.984522,-0.41268 -1.680793,-1.05675 -2.128899,-1.96926 -0.58338,-1.18799 -0.587151,-2.71645 -0.0089,-3.96783 0.554671,-1.20222 1.707848,-2.3753 2.855084,-2.90437 0.796475,-0.3673 1.119655,-0.43013 2.20768,-0.42921 1.43009,9.3e-4 2.11922,0.26539 3.00601,1.15218 1.20747,1.2075 1.4893,3.27464 0.6851,5.02513 -0.51308,1.1168 -1.83106,2.44396 -2.8938,2.91389 -0.98445,0.43535 -2.891543,0.52732 -3.72139,0.17947 z m -8.398657,-3.9296 c -2.244579,-1.01967 -2.945164,-4.57023 -1.504317,-7.62377 0.914781,-1.93864 2.355456,-3.03339 4.000363,-3.03982 1.240464,-0.005 2.128473,0.62235 2.813825,1.98739 1.452987,2.89388 0.118643,7.2839 -2.605571,8.57268 -0.961156,0.45469 -1.855916,0.48896 -2.7043,0.10362 z"
       id="path11508-7"
       sodipodi:nodetypes="ssssssssssssssssssssssssssccsscscsssccsscsssss" />
    <path
       style="display:inline;fill:#ffffff;fill-opacity:0.99763;stroke:none;stroke-width:0.127848"
       d="m 134.12257,147.74027 c 2.47577,-0.51979 4.68647,-1.76092 6.39477,-3.59015 1.43909,-1.54097 1.91448,-2.45615 1.91892,-3.6942 9.3e-4,-0.70041 -0.0838,-1.1412 -0.30698,-1.56651 -0.66758,-1.27262 -2.15154,-1.95833 -3.47313,-1.60485 -1.01189,0.27062 -1.57384,0.7613 -2.57193,2.24571 -0.91903,1.36676 -1.7611,2.23213 -2.59518,2.66696 -0.7316,0.3814 -2.59579,0.45681 -3.53992,0.14323 -1.53007,-0.50822 -2.75899,-2.06985 -3.04448,-3.86873 -0.40369,-2.54342 -2.18039,-3.94974 -4.23534,-3.35235 -1.52713,0.44396 -2.46594,1.95785 -2.31827,3.73846 0.0902,1.08609 1.33919,3.61898 2.39624,4.85896 1.52839,1.79288 3.83606,3.26511 6.04677,3.8577 1.25167,0.33553 4.09828,0.42407 5.32853,0.16572 z m -1.30412,-5.85928 c 1.26253,-0.48014 2.38184,-1.59859 3.07688,-3.07453 0.34322,-0.72883 0.38884,-1.01657 0.39238,-2.47421 0.004,-1.46535 -0.0394,-1.74167 -0.38337,-2.47516 -0.75658,-1.61277 -1.99324,-2.46195 -3.58639,-2.46263 -2.73869,-9.3e-4 -4.96719,2.6178 -4.96719,5.83748 0,1.95389 0.75726,3.46182 2.18034,4.34164 0.58531,0.36188 0.91979,0.45676 1.71928,0.48779 0.59875,0.0232 1.22092,-0.0483 1.56807,-0.18038 z m 5.27266,-8.76341 c 2.27834,-0.55267 3.39448,-3.23302 1.97551,-4.74411 -1.70184,-1.81234 -4.97146,-0.1961 -4.94807,2.44591 0.0141,1.59303 1.41492,2.67606 2.97256,2.2982 z m -4.53862,-2.63536 c 1.651,-1.12186 2.08222,-4.03638 0.79863,-5.39742 -0.41203,-0.43687 -0.59865,-0.52385 -1.12353,-0.52385 -0.34622,0 -0.77685,0.0756 -0.95699,0.16797 -2.00544,1.02832 -2.56205,4.51754 -0.92595,5.80449 0.57968,0.45597 1.49267,0.43486 2.20784,-0.0512 z"
       id="path11508-5"
       sodipodi:nodetypes="sscsssssssssssssscssssssssscscsssc" />
  </g>
  <g
     inkscape:groupmode="layer"
     id="g15520"
     inkscape:label="Base 2"
     style="display:inline"
     transform="translate(-36.66938,-61.365089)">
    <path
       style="display:inline;fill:#000000;fill-opacity:0.99763;stroke:none;stroke-width:0.128705"
       d="m 129.32046,154.38928 c -0.12458,-0.0302 -0.73592,-0.13725 -1.35861,-0.23808 -2.60422,-0.42149 -5.41731,-1.65446 -7.71016,-3.37934 -4.59521,-3.45696 -7.23472,-8.76683 -7.23472,-14.55409 0,-1.09514 -0.0532,-1.69296 -0.14232,-1.60304 -0.0785,0.0788 -0.59169,1.05487 -1.14084,2.16887 -1.68636,3.4211 -3.99265,6.56329 -6.60052,8.99291 -12.139205,11.30942 -30.665026,11.30942 -42.804228,0 -2.668217,-2.48582 -4.976634,-5.65634 -6.674782,-9.16752 -1.229797,-2.54282 -1.97121,-4.70236 -2.487261,-7.24474 -1.358381,-6.69228 -0.533341,-13.57406 2.3467,-19.57407 1.726602,-3.59704 3.46396,-6.06706 6.172841,-8.77594 12.214831,-12.214834 31.874394,-12.214834 44.08924,0 2.70887,2.70888 4.44622,5.1789 6.17284,8.77594 2.29055,4.77194 3.32398,10.28968 2.90214,15.49534 -0.0993,1.22463 -0.22067,2.37947 -0.26989,2.5663 -0.17686,0.67143 0.24297,0.32487 0.83554,-0.68972 0.91222,-1.56194 1.82608,-2.70771 3.25019,-4.07489 3.42684,-3.28992 7.73482,-5.00996 12.54775,-5.00996 10.0748,0 18.1872,8.13745 18.18301,18.23916 -0.004,7.34235 -4.4549,13.93972 -11.32882,16.78863 -2.01353,0.83451 -3.89105,1.21398 -6.33268,1.27995 -1.20389,0.0326 -2.29078,0.0344 -2.41534,0.006 z m 6.22035,-1.48549 c 2.80475,-0.74135 5.3195,-2.16235 7.45516,-4.21265 3.62447,-3.47965 5.34523,-7.47899 5.34523,-12.42335 0,-3.12241 -0.50567,-5.23507 -1.89851,-7.93185 -2.40684,-4.66014 -6.76164,-7.92808 -11.96728,-8.98063 -1.76579,-0.35702 -5.93213,-0.24091 -7.57589,0.21114 -6.12248,1.6838 -10.71503,6.29127 -12.41091,12.45126 -0.30154,1.09525 -0.33811,1.57178 -0.33215,4.32549 0.006,2.92899 0.0288,3.16739 0.41924,4.45326 0.4721,1.55482 1.49685,3.7724 2.32343,5.02806 0.80902,1.22896 3.20602,3.65658 4.47199,4.52909 1.99306,1.37367 4.09707,2.285 6.36428,2.75665 2.04361,0.42512 5.79088,0.326 7.80541,-0.20647 z m -48.520431,0.18743 c 5.58431,-0.60696 11.274741,-2.99131 15.731441,-6.59168 1.33631,-1.07954 3.87385,-3.66731 4.8522,-4.94826 1.26539,-1.65681 2.39238,-3.51056 3.36807,-5.53999 2.17666,-4.5276 3.09057,-8.95475 2.90602,-14.07742 -0.23499,-6.52232 -2.40497,-12.40014 -6.52309,-17.6693 -1.06549,-1.36324 -3.76902,-4.03917 -5.13155,-5.079103 -9.214523,-7.032889 -21.448274,-8.301854 -31.646808,-3.282626 -3.17953,1.564809 -5.30636,3.065656 -7.884664,5.563989 -5.650641,5.47542 -8.824788,12.60824 -9.107913,20.46704 -0.184569,5.12267 0.729344,9.54982 2.906019,14.07742 1.561647,3.24831 3.088598,5.44249 5.57396,8.00966 2.5399,2.62351 5.010097,4.43943 8.258489,6.07108 2.935038,1.47427 6.765542,2.63284 9.861023,2.98256 1.723368,0.19471 5.122187,0.20298 6.836803,0.0157 z"
       id="path15518"
       sodipodi:nodetypes="csssssssssssssssssscssccsssssssccsssscssssssssssssscc" />
    <path
       style="fill:#000000;fill-opacity:0.99763;stroke:#000000;stroke-width:0.264583px;stroke-linecap:butt;stroke-linejoin:miter;stroke-opacity:1"
       d="m 54.539308,113.25893 -11.32703,-3.56878 1.086155,-3.87913 10.861536,5.97384 z"
       id="path18459" />
    <path
       style="display:inline;fill:#000000;fill-opacity:0.99763;stroke:#000000;stroke-width:0.264583px;stroke-linecap:butt;stroke-linejoin:miter;stroke-opacity:1"
       d="m 56.328911,108.36513 -10.399371,-5.73508 1.830703,-3.588295 9.468164,8.000875 z"
       id="path18459-4" />
    <path
       style="display:inline;fill:#000000;fill-opacity:0.99763;stroke:#000000;stroke-width:0.264583px;stroke-linecap:butt;stroke-linejoin:miter;stroke-opacity:1"
       d="m 59.082764,103.94113 -8.786471,-7.989735 2.612712,-3.066113 7.355347,9.977898 z"
       id="path18459-4-2" />
    <path
       style="display:inline;fill:#000000;fill-opacity:0.99763;stroke:#000000;stroke-width:0.264583px;stroke-linecap:butt;stroke-linejoin:miter;stroke-opacity:1"
       d="m 148.73176,131.83546 7.84965,-2.47502 -0.75271,-2.69026 -7.52705,4.14298 z"
       id="path18459-1" />
    <path
       style="display:inline;fill:#000000;fill-opacity:0.99763;stroke:#000000;stroke-width:0.264583px;stroke-linecap:butt;stroke-linejoin:miter;stroke-opacity:1"
       d="m 147.49155,128.44149 7.20682,-3.97738 -1.2687,-2.48856 -6.56147,5.54878 z"
       id="path18459-4-1" />
    <path
       style="display:inline;fill:#000000;fill-opacity:0.99763;stroke:#000000;stroke-width:0.264583px;stroke-linecap:butt;stroke-linejoin:miter;stroke-opacity:1"
       d="m 145.58314,125.37336 6.08906,-5.54104 -1.81063,-2.12642 -5.09728,6.91989 z"
       id="path18459-4-2-2" />
  </g>
</svg>
