<?xml version="1.0" encoding="UTF-8"?>
<!-- Created with Inkscape (http://www.inkscape.org/) -->
<svg width="129.09mm" height="129.09mm" version="1.1" viewBox="0 0 129.09 129.09" xmlns="http://www.w3.org/2000/svg" xmlns:xlink="http://www.w3.org/1999/xlink">
 <defs>
  <linearGradient id="linearGradient1532" x1="85.093" x2="75.209" y1="55.639" y2="83.684" gradientUnits="userSpaceOnUse">
   <stop offset="0"/>
   <stop stop-opacity="0" offset="1"/>
  </linearGradient>
 </defs>
 <g transform="translate(-36.669 -61.365)">
  <ellipse cx="83.707" cy="122.87" rx="30.414" ry="30.838" fill="#fff"/>
  <ellipse cx="131.25" cy="135.93" rx="17.721" ry="17.384" fill="#fff"/>
  <path d="m130.11 149.24c-0.20755-0.0369-0.78499-0.13918-1.2831-0.22746-1.1801-0.2091-3.215-1.0709-4.4665-1.8917-1.2803-0.83964-3.0973-2.7445-3.8849-4.0729-4.4197-7.454-0.5057-16.955 7.8985-19.174 1.4525-0.38342 4.8755-0.39263 6.2465-0.0175 2.9543 0.80987 5.2107 2.2718 7.042 4.5626 3.2926 4.1186 3.6758 9.8935 0.96735 14.575-0.71841 1.2417-2.3099 2.9714-3.5445 3.8524-1.192 0.85062-3.1586 1.768-4.4916 2.0952-1.0088 0.24765-3.7432 0.4292-4.4837 0.2977zm-48.307-3.9943c-2.75-0.33717-4.9088-0.94504-7.1952-2.0259-5.8247-2.7536-10.254-8.0248-11.879-14.135-0.59406-2.2346-0.76057-3.5203-0.76057-5.8728 0-1.2039 0.08621-2.6984 0.19159-3.3211 1.2516-7.3963 5.5451-13.223 12.231-16.598 1.4016-0.70752 4.2493-1.619 5.9782-1.9135 1.9832-0.33777 5.3988-0.34058 7.3572-5e-3 8.4863 1.4496 15.506 7.7886 17.68 15.965 0.59405 2.2346 0.76055 3.5203 0.76055 5.8728 0 6.0568-2.1783 11.319-6.472 15.634-3.3289 3.3454-7.3902 5.4434-11.996 6.1971-1.7096 0.27973-4.4894 0.37553-5.8951 0.20317z" fill="#00adff"/>
 </g>
 <g>
  <path d="m93.438 87.877c-0.20755-0.0369-0.78499-0.13918-1.2831-0.22746-1.1801-0.2091-3.215-1.0709-4.4665-1.8917-1.2803-0.83964-3.0973-2.7445-3.8849-4.0729-4.4197-7.454-0.5057-16.955 7.8985-19.174 1.4525-0.38342 4.8755-0.39263 6.2465-0.0175 2.9543 0.80987 5.2107 2.2718 7.042 4.5626 3.2926 4.1186 3.6758 9.8935 0.96735 14.575-0.71841 1.2417-2.3099 2.9714-3.5445 3.8524-1.192 0.85062-3.1586 1.768-4.4916 2.0952-1.0088 0.24765-3.7432 0.4292-4.4837 0.2977zm-48.307-3.9943c-2.75-0.33717-4.9088-0.94504-7.1952-2.0259-5.8247-2.7536-10.254-8.0248-11.879-14.135-0.59406-2.2346-0.76057-3.5203-0.76057-5.8728 0-1.2039 0.08621-2.6984 0.19159-3.3211 1.2516-7.3963 5.5451-13.223 12.231-16.598 1.4016-0.70752 4.2493-1.619 5.9782-1.9135 1.9832-0.33777 5.3988-0.34058 7.3572-5e-3 8.4863 1.4496 15.506 7.7886 17.68 15.965 0.59405 2.2346 0.76055 3.5203 0.76055 5.8728 0 6.0568-2.1783 11.319-6.472 15.634-3.3289 3.3454-7.3902 5.4434-11.996 6.1971-1.7096 0.27973-4.4894 0.37553-5.8951 0.20317z" fill="url(#linearGradient1532)"/>
 </g>
 <g transform="translate(-36.669 -61.365)" fill-opacity=".99763">
  <path d="m129.73 147.28c-0.58119-0.12827-1.6341-0.51017-2.3398-0.8486-1.8083-0.86717-3.613-2.6694-4.5053-4.4991-0.91602-1.8784-1.1286-2.8889-1.047-4.9777 0.10984-2.8122 0.95243-4.7533 2.9156-6.7165 1.9641-1.9641 3.904-2.8058 6.7198-2.9158 2.0478-0.08 3.4251 0.22169 5.194 1.1375 1.6276 0.8426 3.4856 2.7594 4.2795 4.415 2.6889 5.6072 0.0141 12.067-5.8324 14.082-1.6136 0.55619-3.7487 0.68444-5.3843 0.32339zm-48.759-5.2131c-5.5621-0.8015-10.599-4.4848-13.057-9.548-2.419-4.9831-2.419-10.307 0-15.29 5.265-10.846 19.957-13.031 28.208-4.1953 6.5462 7.0096 6.1794 17.964-0.82052 24.501-3.8366 3.5829-9.1836 5.2739-14.331 4.5322z" opacity=".59939"/>
  <path d="m81.591 143.31c-3.661-0.52127-7.1578-1.9884-10.057-4.2194-1.2507-0.96258-3.375-3.2608-4.2949-4.6465-0.90313-1.3605-1.9422-3.4558-2.5209-5.0834-0.81722-2.2986-0.19172-5.0532 1.5258-6.7194 0.70166-0.68069 2.1436-1.3549 3.1358-1.4663 2.7858-0.31258 5.5891 1.9821 6.153 5.0366 0.09898 0.53608 0.24252 1.3202 0.31902 1.7424 0.32565 1.7976 1.985 4.2006 3.5231 5.102 1.6309 0.9558 3.3486 1.3201 5.1558 1.0935 1.5362-0.19263 2.1917-0.4358 3.4495-1.2796 1.426-0.95677 1.9405-1.5822 4.1195-5.0088 0.5407-0.85029 1.6682-1.917 2.4342-2.303 4.0851-2.0586 8.5851 1.4012 7.7861 5.9863-0.32115 1.8429-2.0558 4.3867-4.5318 6.6457-2.5609 2.3365-6.0063 4.0879-9.4778 4.8177-1.6538 0.3477-5.261 0.50989-6.7199 0.30216zm-0.1415-10.162c-2.404-0.85757-4.0604-2.7828-4.8067-5.5866-0.38136-1.4327-0.3501-3.7966 0.07024-5.3149 0.9199-3.3222 3.1636-5.9115 5.9908-6.9134 0.82275-0.2916 1.2458-0.34707 2.4215-0.31758 1.2446 0.0311 1.5531 0.096 2.4424 0.51239 3.2128 1.5046 4.9743 5.4478 4.2974 9.6197-0.35479 2.1865-1.7961 4.8827-3.3358 6.24-0.42891 0.37814-1.3456 0.96952-2.037 1.3142-1.1928 0.5946-1.3348 0.6289-2.7741 0.67053-1.163 0.0338-1.6924-0.0188-2.2687-0.2243zm10.799-15.283c-0.98452-0.41268-1.6808-1.0568-2.1289-1.9693-0.58338-1.188-0.58715-2.7164-0.0089-3.9678 0.55467-1.2022 1.7078-2.3753 2.8551-2.9044 0.79648-0.3673 1.1197-0.43013 2.2077-0.42921 1.4301 9.3e-4 2.1192 0.26539 3.006 1.1522 1.2075 1.2075 1.4893 3.2746 0.6851 5.0251-0.51308 1.1168-1.8311 2.444-2.8938 2.9139-0.98445 0.43535-2.8915 0.52732-3.7214 0.17947zm-8.3987-3.9296c-2.2446-1.0197-2.9452-4.5702-1.5043-7.6238 0.91478-1.9386 2.3555-3.0334 4.0004-3.0398 1.2405-5e-3 2.1285 0.62235 2.8138 1.9874 1.453 2.8939 0.11864 7.2839-2.6056 8.5727-0.96116 0.45469-1.8559 0.48896-2.7043 0.10362z" fill="#fff"/>
  <path d="m134.12 147.74c2.4758-0.51979 4.6865-1.7609 6.3948-3.5902 1.4391-1.541 1.9145-2.4562 1.9189-3.6942 9.3e-4 -0.70041-0.0838-1.1412-0.30698-1.5665-0.66758-1.2726-2.1515-1.9583-3.4731-1.6048-1.0119 0.27062-1.5738 0.7613-2.5719 2.2457-0.91903 1.3668-1.7611 2.2321-2.5952 2.667-0.7316 0.3814-2.5958 0.45681-3.5399 0.14323-1.5301-0.50822-2.759-2.0698-3.0445-3.8687-0.40369-2.5434-2.1804-3.9497-4.2353-3.3524-1.5271 0.44396-2.4659 1.9578-2.3183 3.7385 0.0902 1.0861 1.3392 3.619 2.3962 4.859 1.5284 1.7929 3.8361 3.2651 6.0468 3.8577 1.2517 0.33553 4.0983 0.42407 5.3285 0.16572zm-1.3041-5.8593c1.2625-0.48014 2.3818-1.5986 3.0769-3.0745 0.34322-0.72883 0.38884-1.0166 0.39238-2.4742 4e-3 -1.4654-0.0394-1.7417-0.38337-2.4752-0.75658-1.6128-1.9932-2.462-3.5864-2.4626-2.7387-9.3e-4 -4.9672 2.6178-4.9672 5.8375 0 1.9539 0.75726 3.4618 2.1803 4.3416 0.58531 0.36188 0.91979 0.45676 1.7193 0.48779 0.59875 0.0232 1.2209-0.0483 1.5681-0.18038zm5.2727-8.7634c2.2783-0.55267 3.3945-3.233 1.9755-4.7441-1.7018-1.8123-4.9715-0.1961-4.9481 2.4459 0.0141 1.593 1.4149 2.6761 2.9726 2.2982zm-4.5386-2.6354c1.651-1.1219 2.0822-4.0364 0.79863-5.3974-0.41203-0.43687-0.59865-0.52385-1.1235-0.52385-0.34622 0-0.77685 0.0756-0.95699 0.16797-2.0054 1.0283-2.562 4.5175-0.92595 5.8045 0.57968 0.45597 1.4927 0.43486 2.2078-0.0512z" fill="#fff"/>
  <g>
   <path d="m129.32 154.39c-0.12458-0.0302-0.73592-0.13725-1.3586-0.23808-2.6042-0.42149-5.4173-1.6545-7.7102-3.3793-4.5952-3.457-7.2347-8.7668-7.2347-14.554 0-1.0951-0.0532-1.693-0.14232-1.603-0.0785 0.0788-0.59169 1.0549-1.1408 2.1689-1.6864 3.4211-3.9926 6.5633-6.6005 8.9929-12.139 11.309-30.665 11.309-42.804 0-2.6682-2.4858-4.9766-5.6563-6.6748-9.1675-1.2298-2.5428-1.9712-4.7024-2.4873-7.2447-1.3584-6.6923-0.53334-13.574 2.3467-19.574 1.7266-3.597 3.464-6.0671 6.1728-8.7759 12.215-12.215 31.874-12.215 44.089 0 2.7089 2.7089 4.4462 5.1789 6.1728 8.7759 2.2906 4.7719 3.324 10.29 2.9021 15.495-0.0993 1.2246-0.22067 2.3795-0.26989 2.5663-0.17686 0.67143 0.24297 0.32487 0.83554-0.68972 0.91222-1.5619 1.8261-2.7077 3.2502-4.0749 3.4268-3.2899 7.7348-5.01 12.548-5.01 10.075 0 18.187 8.1374 18.183 18.239-4e-3 7.3424-4.4549 13.94-11.329 16.789-2.0135 0.83451-3.891 1.214-6.3327 1.28-1.2039 0.0326-2.2908 0.0344-2.4153 6e-3zm6.2204-1.4855c2.8048-0.74135 5.3195-2.1624 7.4552-4.2126 3.6245-3.4796 5.3452-7.479 5.3452-12.423 0-3.1224-0.50567-5.2351-1.8985-7.9318-2.4068-4.6601-6.7616-7.9281-11.967-8.9806-1.7658-0.35702-5.9321-0.24091-7.5759 0.21114-6.1225 1.6838-10.715 6.2913-12.411 12.451-0.30154 1.0952-0.33811 1.5718-0.33215 4.3255 6e-3 2.929 0.0288 3.1674 0.41924 4.4533 0.4721 1.5548 1.4968 3.7724 2.3234 5.0281 0.80902 1.229 3.206 3.6566 4.472 4.5291 1.9931 1.3737 4.0971 2.285 6.3643 2.7566 2.0436 0.42512 5.7909 0.326 7.8054-0.20647zm-48.52 0.18743c5.5843-0.60696 11.275-2.9913 15.731-6.5917 1.3363-1.0795 3.8738-3.6673 4.8522-4.9483 1.2654-1.6568 2.3924-3.5106 3.3681-5.54 2.1767-4.5276 3.0906-8.9548 2.906-14.077-0.23499-6.5223-2.405-12.4-6.5231-17.669-1.0655-1.3632-3.769-4.0392-5.1316-5.0791-9.2145-7.0329-21.448-8.3019-31.647-3.2826-3.1795 1.5648-5.3064 3.0657-7.8847 5.564-5.6506 5.4754-8.8248 12.608-9.1079 20.467-0.18457 5.1227 0.72934 9.5498 2.906 14.077 1.5616 3.2483 3.0886 5.4425 5.574 8.0097 2.5399 2.6235 5.0101 4.4394 8.2585 6.0711 2.935 1.4743 6.7655 2.6328 9.861 2.9826 1.7234 0.19471 5.1222 0.20298 6.8368 0.0157z"/>
   <g stroke="#000" stroke-width=".26458px">
    <path d="m54.539 113.26-11.327-3.5688 1.0862-3.8791 10.862 5.9738z"/>
    <path d="m56.329 108.37-10.399-5.7351 1.8307-3.5883 9.4682 8.0009z"/>
    <path d="m59.083 103.94-8.7865-7.9897 2.6127-3.0661 7.3553 9.9779z"/>
    <path d="m148.73 131.84 7.8496-2.475-0.75271-2.6903-7.527 4.143z"/>
    <path d="m147.49 128.44 7.2068-3.9774-1.2687-2.4886-6.5615 5.5488z"/>
    <path d="m145.58 125.37 6.0891-5.541-1.8106-2.1264-5.0973 6.9199z"/>
   </g>
  </g>
 </g>
</svg>
